<svg width="5110.4" height="4395.5" viewBox="0 0 1352.1 1163" xmlns:xlink="http://www.w3.org/1999/xlink" xmlns="http://www.w3.org/2000/svg"><defs><clipPath clipPathUnits="userSpaceOnUse" id="h"><path style="fill:none;stroke:#000;stroke-width:.264583;stroke-opacity:1" d="M-169.8-75.7h1352.1v1163H-169.8z"/></clipPath><clipPath clipPathUnits="userSpaceOnUse" id="g"><path style="fill:none;stroke:#000;stroke-width:.264583;stroke-opacity:1" d="M-169.8-75.7h1352.1v1163H-169.8z"/></clipPath><clipPath clipPathUnits="userSpaceOnUse" id="f"><path style="fill:none;stroke:#000;stroke-width:.264583;stroke-opacity:1" d="M-169.8-75.7h1352.1v1163H-169.8z"/></clipPath><clipPath clipPathUnits="userSpaceOnUse" id="e"><path style="fill:none;stroke:#000;stroke-width:.264583;stroke-opacity:1" d="M-169.8-75.7h1352.1v1163H-169.8z"/></clipPath><clipPath clipPathUnits="userSpaceOnUse" id="d"><path style="fill:none;stroke:#000;stroke-width:.264583;stroke-opacity:1" d="M-169.8-75.7h1352.1v1163H-169.8z"/></clipPath><clipPath clipPathUnits="userSpaceOnUse" id="c"><path style="fill:none;stroke:#000;stroke-width:.264583;stroke-opacity:1" d="M-169.8-75.7h1352.1v1163H-169.8z"/></clipPath><clipPath clipPathUnits="userSpaceOnUse" id="b"><path style="fill:none;stroke:#000;stroke-width:.264583;stroke-opacity:1" d="M-169.8-75.7h1352.1v1163H-169.8z"/></clipPath><clipPath clipPathUnits="userSpaceOnUse" id="j"><path style="fill:none;stroke:#000;stroke-width:.264583;stroke-opacity:1" d="M-169.8-75.7h1352.1v1163H-169.8z"/></clipPath><clipPath clipPathUnits="userSpaceOnUse" id="l"><path style="fill:none;stroke:#000;stroke-width:.264583;stroke-opacity:1" d="M-169.8-75.7h1352.1v1163H-169.8z"/></clipPath><linearGradient id="a"><stop style="stop-color:#ffccd1;stop-opacity:.58469385" offset="0"/><stop style="stop-color:#ffc9c2;stop-opacity:0" offset="1"/></linearGradient><linearGradient xlink:href="#a" id="i" x1="-169.8" y1="-75.7" x2="1182.3" y2="1087.3" gradientUnits="userSpaceOnUse"/><linearGradient xlink:href="#a" id="k" gradientUnits="userSpaceOnUse" x1="1182.3" y1="-75.7" x2="-174.1" y2="1087.3"/></defs><g style="display:inline"><path style="fill:#f2c7d5;stroke-width:5.08" d="M-169.9 1471.1c0-498.5 0-498.3 18.2-480.2 6 6 21 6.5 87.3 2.2 28.6-1.9 52-5.4 52-7.8 0-8.5 23-4.2 29.1 5.5 4 6.3 10.3 9.1 17.8 8l31.9-5.4c25-4.2 60.3-3.2 75.2 2.1 12.3 4.4 104.6 3.9 126.7-.7 7.6-1.5 15.2-.7 16.8 1.9 1.6 2.6 4.8 3.6 7 2.2 2.2-1.3 11.1-.4 19.9 2.1 10.1 3 17 2.7 19-.5 1.8-3 9-3.6 16.6-1.6 19.2 5.1 127.7 6.6 144 2 8-2.3 25.6-1.2 41.4 2.5 18 4.2 30.6 4.8 36.3 1.6 4.7-2.6 38.2-5 74.4-5.2 36.2-.2 67-2.4 68.5-4.8s5.5-2.2 8.8.6c3.3 2.7 18.5 5.2 33.8 5.5l43 1c38 1.3 85.3-5.3 89.8-12.5 2.2-3.5 7.8-2.5 16.3 3.1s14 6.6 16.2 3c1.8-2.9 7-3.8 11.7-2 12 4.8 56.6 5.7 56.6 1.2 0-2.1 2.7-3.8 6-3.8 3.2 0 9.8-3.5 14.5-7.8 6.3-5.7 11.8-6.5 20.8-3 6.8 2.5 39.7 5.2 73.1 5.9 33.5.7 66 1.5 72.3 1.8 11 .5 11.4 2 11.4 55.2v54.6l-412.7 1c-227 .5-399 1.5-382.3 2.3l134.6 6.7c174.1 8.8 211.2 10.2 337.8 12.8 103.2 2 193.1 8.5 301 21.3l21.6 2.6v44l-82.5-2.4c-45.4-1.3-112.3-4.4-148.6-7a3592 3592 0 0 0-75.8-5c-21.8-.4-1.8-6 30.7-8.6 19.2-1.5 36.8-4.5 39-6.6 8.8-8.2-50.6-12.7-265.4-20.4-145-5.1-242.8-1.3-274 10.9-7.3 2.9-58 6.5-112.4 8-54.5 1.4-102.3 4.4-106.3 6.5-4.2 2.2 14.5 5.6 43.1 8 47.5 3.7 49 4.2 25.9 7.7-31.3 4.8-36.2 9.5-10.5 10 11 .2 16.4 1.7 12.2 3.3-4.1 1.6-13.3 5.1-20.3 8-12.5 5-15.8 5.6-40.6 8.2-12.3 1.3-12.2 1.4 2.5 5.9 8.4 2.5 15.9 2.7 16.6.5 1.5-4.4 60.9 1.2 65.9 6.2 1.7 1.7.6 3-2.3 3-3 0-6.5 4.6-8 10.2-1.4 5.6-1 9.2 1 8 1.9-1.2 6.8-.1 10.9 2.4 6 3.8 5.4 4.8-2.8 5-8.6.1-9 .9-2.1 4.9 13.7 8 40 10.7 50.5 5 7.2-3.8 10-3.7 10 .3 0 3.3 4.2 4.3 10.4 2.3a21 21 0 0 1 17.8 2.8c5.8 4.8 9 4.8 14.8 0 7.8-6.5 28.1-2.7 28.1 5.2 0 2.6 2.5 4.8 5.4 4.8 3 0 4-2.3 2.3-5.1-1.8-2.8-.5-5.1 2.8-5.1 3.2 0 4.6 3.3 3.1 7.2-3.8 10 15.7 21.8 50.9 31 34.6 9 38.8 9.2 34.4 2.1-3.8-6-24-14.7-43-18.2-14.9-2.8-26-11.9-15-12.1 5.4-.1 4.6-2.4-2.8-8.1-9.4-7.5-8.2-7.9 19.3-5.8 16.2 1.2 30.6.3 32-2 1.5-2.3 10.1-1 19.3 2.8 12.4 5.2 19.2 5.6 26.4 1.5 5.4-3 16.2-4.9 24.2-4 12.6 1.2 14 0 11-9.2-3.7-11.8 2.1-14 12-4.2 5.2 5 5.8 3.4 3.2-9-3.1-14.4-2.9-14.7 4.7-5.3 4.4 5.4 8 7.3 8 4.3 0-6.4 15.4-3.8 38.8 6.6 8.8 4 18 7.2 20.5 7.2 2.4 0 8.7 8 14 17.7 7 13 13 17.8 22 17.8s11.6-2.1 9.5-7.6c-1.6-4.2-.7-7.6 2-7.6s5 4.2 5 9.3c0 15 5.3 16.2 17 3.8 7-7.6 15.1-11 23-9.8 10.9 1.7 11.4 1 5-7-6.4-8.3-6.2-8.4 2.4-1.6 5.2 4 11.3 12.3 13.6 18.3 2.3 6 12.3 15.7 22.3 21.6 17.9 10.6 18.2 10.6 18.2.8 0-5.5 2.2-10 4.8-10 2.7 0 3.9-4.7 2.8-10.4-1.6-8.5 0-9.9 8.2-7.2 21.8 6.9 70 7.3 76.7.6 3.6-3.6 8.3-7 10.4-7.3 31-5.5 38.8-8 36.5-11.8-3.9-6.3-.5-5.7 15.7 2.7 9 4.7 17.8 5.8 25.1 3 6.2-2.4 14.4-2.3 18.4.3 10.4 6.6 14.8 5.7 14.8-3 0-8.5 13-10.3 17.8-2.5 1.7 2.8 5.4 5.1 8.2 5.1 2.8 0 4-1.8 2.6-4s5.6-3 15.5-2c11.5 1.4 19.5-.3 22.2-4.6 3.4-5.5 8.2-4.7 25 4.2 11.3 6 28.6 12.5 38.3 14.4l17.7 3.3v679.6H-169.9zm474.4-152.6c1.7-4.4 1-6.7-1.4-5.2-2.4 1.6-5.6-1.8-7-7.3-1.5-5.6-.8-10.1 1.5-10.1 6.4 0 20.7 15.5 18.1 19.6-1.2 2 2.2 3.6 7.6 3.6 5.4 0 9.8-2.2 9.8-5s2.7-2.3 6 1c3.4 3.4 9.5 6.2 13.6 6.2 5.8 0 5.4-2.1-1.9-10.2-5-5.6-11.9-10.1-15.2-10.1-3.3 0-12.4-5.5-20.2-12.2a79.4 79.4 0 0 0-33.2-15.2c-19.6-3.1-28.5-13.2-19.5-22.2 3.4-3.4.7-4.2-8.1-2.5-11.4 2.1-12.3 3.6-6.7 10.8 5.5 7 5.3 7.4-1.2 2.5-7.2-5.5-39-14.2-41.8-11.6-.8.7-6.5-1.4-12.7-4.8-9.5-5-10.8-4.8-8.3 1.7 2.2 6-.8 7.7-12.8 7.7-8.7 0-15.8 2.5-15.8 5.4 0 3-2.4 4-5.2 2.2-2.8-1.7-4-5.1-2.5-7.5 1.5-2.4-2.2-6-8.1-7.9-6.6-2-12.4-1-14.7 2.8-2.6 4.2-4.5 4.4-5.7.6-1-3-10.5-6.2-21-6.9-10.4-.7-19-3.6-19.1-6.4 0-2.8-2.1-1.9-4.6 2-8.7 13.7 5.2 25.2 35 29.2 15.4 2 31 3.2 34.7 2.5 3.7-.7 14.7 1.3 24.5 4.6 9.8 3.2 20.5 6.4 23.8 7 52.8 10.6 69.5 15.1 69.5 18.8 0 2.5 3.2 4.4 7.1 4.4 3.9 0 12.5 4.5 19 10 14.6 12.2 12.9 12 16.5 2.5zm140.3-12c0-5.5-15.6-12-19.6-8-1.6 1.7.4 5.1 4.5 7.7 9.5 6 15.1 6.2 15.1.4zm-388.6-61.4c1.7-2.8.7-5-2.2-5-3 0-5.4 2.2-5.4 5s1 5 2.2 5c1.3 0 3.7-2.2 5.4-5zm270.5-145.9c-7.7-1.2-20.2-1.2-28 0-7.6 1.2-1.3 2.1 14 2.1 15.4 0 21.7-1 14-2zm416 153.5c-1.6-4.2-.7-7.6 2-7.6s5 3.4 5 7.6c0 4.2-1 7.6-2 7.6-1.2 0-3.4-3.4-5-7.6zm-389.3-28-33-3.3 37.1-.8c23.7-.6 36 1 34 4.2-1.7 2.8-3.6 4.7-4.1 4.2-.6-.5-15.8-2.4-34-4.2zm-56.8-33.9c3.6-1.5 8-1.3 9.7.4 1.7 1.7-1.3 2.9-6.7 2.7-5.9-.3-7-1.5-3-3zm437.8-27c10.2-6.6 111.7-6.6 111.7 0 0 3.1-23.2 5-59.6 5-40.5 0-57.3-1.7-52.1-5z" clip-path="url(#b)" transform="translate(169.8 75.7)"/><path style="fill:#e6b8c6;stroke-width:5.08" d="M-169.9 1659.5v-296.8l15.3 7.6c14 7 16.2 6.8 27.5-2 13.3-10.5 10.6-24.2-3.8-18.7-4.6 1.8-7.2 5.1-5.8 7.5 2.6 4.2-21.2 1.5-29-3.4-5.5-3.4-5.3-27.3.2-27.3 2.5 0 10.3 4.5 17.4 10.1 14.4 11.4 18.9 12.6 18.9 5.1a5 5 0 0 0-5-5c-2.9 0-9.8-4.7-15.5-10.4-5.7-5.7-12-9.3-14.2-8-2 1.3-4.3-3.7-4.9-11-.9-10.5.2-12 5-7.3 3.4 3.4 9.4 6.1 13.4 6.1 5.9 0 6-1.4.8-7.7-3.6-4.3-5.3-9-3.9-10.3 3.7-3.7 29.5 8.6 27 12.8-1.8 2.8 9 3.1 22.4.6 1.2-.2-2-3.5-7.2-7.3a31 31 0 0 1-11-17.5c-1.5-9.5.2-10.2 17.3-7.6a72.5 72.5 0 0 1 25.3 7.8c4.3 3.5 7.2 2.5 9.3-3 3.5-9.2 29.6-8.4 39.1 1.1 7.2 7.3 24 7.5 24 .4 0-3 2.8-3.7 6.2-1.6C9 1280 55.4 1281 59 1275c5-8 50 0 60.9 10.8 7 7 17.5 9 48.5 9 31.3 0 45.3 2.6 67.8 12.8 15.5 7 35.7 15.5 44.8 18.9 9 3.3 16.5 7.9 16.5 10.1 0 2.3 8 9 18 15.2 13.4 8.3 16.6 12.7 12.6 17.5-4 5-2.6 6.3 6.2 5.8 9-.4 11.2 1.9 10.3 11-.7 6.2 3.3 16 8.8 21.5 5.6 5.6 10.1 13.3 10.1 17.1 0 4 5.8 10.8 12.7 15.4 7 4.5 12.3 10 11.9 12-.8 3.8 8.7 28.9 14.5 38.2 2 3.2-1.9 3.8-10.4 1.7-15.6-4-18.5 4.7-3 9.6 13.5 4.3 30.2 22.5 30.2 33.1 0 12.6 15.3 40.8 24 44.1a10 10 0 0 0 11.6-3.6c3.2-5.2 9.3-3.6 27.4 7 12.9 7.6 23.4 16.4 23.4 19.6 0 3.2 3.1 1.6 6.9-3.6 6.7-9.2 7.4-9.1 23.1 2 15.5 11.1 16.7 11.2 26 2.8 9.6-8.7 9.5-9.2-5.8-28.5-8.5-10.8-12.7-19.6-9.4-19.6 4.5 0 4.3-2.4-.7-9-6.6-8.4-6.4-8.4 3.6 0 5.7 5 14 9 18.3 9 4.3 0 10.6 3.3 14 7.4 4.2 5 11.3 6.4 22.2 4.3 20.4-3.9 22.7-6 13.4-12.4-5.4-3.8-1.5-4.4 14-2.2 17.7 2.4 21 1.6 18.5-4.7-3.5-9 .2-9.7 13.8-2.4 7.7 4.1 10.6 3.5 13-2.7 2.8-7.3 4.2-7.3 15.1-.1 11.4 7.4 12.1 7.3 12.1-2.4 0-5.6 2.2-10.2 5-10.2 5.6 0 1.1-30.5-5.7-37.9-7.6-8.4-4.7-14.2 5.8-11.5 12 3.2 12.7-2 2.7-21.4-10.8-21 1-28.4 20.4-12.7 5.5 4.4 6.7 6.4 2.8 4.3-4.7-2.4-6-1.7-3.5 2.2 4.4 7.2 26.9 7.8 29.2.8 1.2-3.4 7.6-3.5 18.8-.2l17 4.8-15.5-14.8a143.8 143.8 0 0 1-24-31c-8-15.5-7.9-16 1.1-12.3 18 7.5 32.3 9 32.3 3.3 0-3.2-1.7-5.9-3.8-6.1-13.7-1.4-23.7-4.7-28.4-9.4-6.5-6.5 3-6.7 38.5-.9 13.3 2.2 24.1 2.4 24.1.5 0-4 51.9 3.1 72.4 10 8.8 3 14 3 14 0 0-6.8 67.9-6.1 74.6.6 7.1 7.1 42.3 10.5 42.3 4.2 0-2.7-6-7.1-13.3-9.9-8.9-3.4-12.2-7.6-10.2-12.8 1.7-4.3 1-6.5-1.7-5-2.5 1.6-16.5-4-31-12.6s-29-14.7-32-13.6c-3.2 1 1 5.6 9.4 10.1l15.2 8.3-20.8.2c-24 .2-54-9-50-15.3 3.2-5.3-7.5-25.1-18-33.5-4.2-3.3-6.2-7.5-4.5-9.2 1.8-1.7 10.2 2.7 18.7 9.9l15.5 13 1.6-11.5c1.3-9 4.9-11.6 15.6-11.4 7.7.1 14-1.4 14-3.3s8.6-1.6 19 .8c16.3 3.6 17.8 3.2 10.2-2.4-12.2-9-11.2-14.7 1.4-8 7.9 4.2 12 3.8 17.5-1.7 4-4 5.8-8.8 3.9-10.7-1.9-1.8 7.5 2.7 20.8 10.2l24.2 13.5-3.4-13.7c-3.1-12.3-2.2-13.6 8.6-12.2 6.7.9 15-.2 18.5-2.4 3.5-2.2 6.3-2 6.3.2s10.2 3.9 22.6 3.7c12.5-.2 21.5 1.5 20 3.8-1.4 2.3 2.2 4.2 8 4.2 5.7 0 10.4-3 10.4-6.5 0-13.7 22-5.7 43.6 15.9l22.4 22.4v114.5l-21.6 2.3c-11.9 1.2-23.7.3-26.4-2-7.4-6.7-11.5-5.2-14.2 5-3.1 12 15.7 25.5 21.8 15.7 2.8-4.6 7.3-2.6 16.4 7.2 15.1 16.3 18.9 17 15.1 2.5-2-7.5-1-9.8 3-7.3 4.4 2.7 6 68.8 6 249.7v246H-170zm507.5-71.8c-6.7-3.6-13.1-5.5-14.3-4.3-3.7 3.7 17 16.6 21.8 13.6 2.5-1.6-.9-5.8-7.5-9.3zm-54-23.4c-2-7.2-1-9.8 2.7-7.4 3.1 1.9 11.5 2 18.6.2 20.9-5.2 14.5-27.5-7.8-27.5-2.6 0-4.7 2.4-4.7 5.3 0 3 2.2 4.1 4.8 2.5 2.6-1.6 6.1-.6 7.9 2.2 5.9 9.6-16.1 5.3-25.4-5-5.2-5.7-6.6-10.1-3.3-10.1 3.2 0 5.9-4.6 5.9-10.2 0-6.7-3.4-10.1-10-10.1-5.6 0-13.9-5.8-18.5-12.8-7.8-12-44.4-26.7-74.9-30.1-6-.7-16.4-3-23-5.1-8.3-2.7-11-2.2-8.6 1.7 2.1 3.4-.7 5.6-7.3 5.6-6.4 0-9.4 2.2-7.3 5.5 1.9 3 7.4 4.5 12.2 3.3 4.9-1.3 14.1.5 20.7 4a35 35 0 0 0 25.5 2.4c10.5-3 18.9-1 34.7 8.5 11.5 6.9 21 13.6 21 15 0 1.4-2.5 1.1-5.3-.7-3-1.8-12.1-5.2-20.5-7.6-11.2-3.2-14.2-2.8-11.5 1.7 2 3.3-.5 2.7-5.6-1.4-8.3-6.8-9-6.5-7.2 2.5 1.4 7.4 6 10 18 10 17 0 42.2 19 42.2 31.8 0 5.5 24.4 36.8 28.7 36.8.4 0-.5-5-2-11zm29.1 6c0-2.9-2.4-5.2-5.3-5.2-3 0-4 2.3-2.3 5.1 1.8 2.8 4.2 5 5.4 5 1.2 0 2.2-2.2 2.2-5zm101.6-9c0-2.2-4.5-6.7-10.1-10.2-8.3-5.2-10.2-5.1-10.2.4 0 3.8 1.6 8.4 3.4 10.2 4.6 4.7 17 4.3 17-.4zm-222.1-22.8c-9-6.3-16.5-13.8-16.6-16.6-.1-5.6-23.6-17.7-34.5-17.7-10.5 0-5.9 7.1 17 26.2 11.4 9.4 27.4 17.7 35.6 18.3l14.9 1.3zm171.3 7.1c0-2.3-5.7-6.8-12.7-10-13.4-6.2-16.7-2-6.6 8.2 7 7 19.3 8.2 19.3 1.8zm-139.4-31c-1.9-3-5.8-5.4-8.8-5.4-3.4 0-3 3 1 7.8 7 8.4 13.2 6.5 7.8-2.3zm175-.3c0-2.8-2.4-5-5.4-5-3 0-4 2.2-2.2 5 1.7 2.8 4.1 5.1 5.4 5.1 1.2 0 2.2-2.3 2.2-5zm-289.6-32.7c0-1.2-2.2-3.6-5-5.4-2.8-1.7-5.1-.7-5.1 2.3s2.3 5.3 5 5.3c2.9 0 5.1-1 5.1-2.2zm659.2-9.2c-1.1-3.5-7.6-7-14.4-7.8-11.9-1.3-12-1.1-2.4 6.4 12 9.4 19.7 10 16.8 1.4zM376 1463c-2-3.1-.3-7.7 3.5-10.1 5.2-3.3 4-4.5-4.4-4.5-17-.2-14.7 15.3 2.8 19.8.9.2 0-2.1-1.9-5.2zm-118.1-13.7c-6.1-4-11-10.7-11-14.9 0-4.8-3-6.4-8.1-4.4-4.4 1.7-10.7 3-13.9 3-3.1 0-.1 4 6.8 8.6 7 4.7 14.3 11.5 16.5 15 2.2 3.6 7.7 5 12.4 3.3 7.3-2.8 7-4.2-2.7-10.6zm60 7.2c0-1-4.5-3.1-10.1-4.6-5.6-1.5-9-.6-7.4 2 2.8 4.4 17.5 6.6 17.5 2.6zm38.1-13.3c-1.7-2.8-5.4-5-8.2-5-2.8 0-3.7 2.2-2 5 1.8 2.8 5.5 5 8.3 5 2.8 0 3.7-2.2 2-5zm-147.4-10c1.6-2.6-4.5-8.6-13.7-13.3l-16.7-8.5 12.3 13.4c14 15 14 15 18 8.5zm-134.5-10c-7-5.3-18.2-14.3-25-20.2-6.6-5.8-14.4-10.6-17.2-10.6-7.4 0 11.7 20.2 29.5 31.2 19.8 12.2 29.1 12 12.7-.4zm262 1.6c-2.4-6.5-.7-7.6 8.4-5.3 9.8 2.4 10.3 2 3.6-3.2-4.4-3.4-18.5-14.9-31.5-25.6-13-10.7-25.6-18.3-28-16.8-2.4 1.5-10.5-.4-18-4.3-11.3-5.9-13.6-5.9-13.6-.3 0 3.8 6.3 9.4 14 12.5 22.6 9 44.4 23.7 44.4 29.8 0 3.2 4.6 9.2 10.1 13.4 13 9.9 14.5 9.9 10.7-.2zm-63.3-23.6c-5-5-5.6-4.4-2.8 2.9 1.9 5 4.7 7.8 6.3 6.2 1.6-1.5 0-5.6-3.5-9zM18.1 1403c0-2.7-2.2-6.2-4.8-7.8-2.7-1.7-3.5-6.7-1.7-11.3 2.5-6.5.8-7.7-7.9-5.4-6.2 1.6-11 .5-11-2.6 0-3-1.3-4.1-2.8-2.6-1.6 1.6-10.1-3.8-19-12-9-8-17-12.4-18-9.5-.9 2.8-3.4 5.1-5.6 5.1-7 0-26.7-19.7-24-24 1.5-2.5-2-7.3-7.6-10.8-9.4-5.9-10-5.5-6.7 5.3 3 9.6 2.3 10.6-3.1 5.4-3.7-3.5-9-6.3-12-6.2-3 .1-1.3 2.5 3.6 5.4 4.8 2.8 8.8 8.3 8.8 12.2 0 3.8 4.6 8.4 10.2 10.2 5.6 1.8 10.2 5.1 10.2 7.4 0 2.3 9.7 8 21.6 12.8a130 130 0 0 1 30.3 16.4c4.7 4.3 12.3 6.4 16.7 4.7 4.6-1.7 9.2.1 10.8 4.5 3.2 8.3 12 10.3 12 2.8zm223.5-7.9c0-5.7-39.7-21.2-57.7-22.4-29.3-2-18.2 7.9 13.3 11.8 14.7 1.8 30.1 5.5 34.3 8.1 8.7 5.6 10.1 5.9 10.1 2.5zm-350.5-12.6c0-2.7-3.4-3.6-7.6-2-4.2 1.6-7.6 3.8-7.6 5 0 1 3.4 2 7.6 2 4.2 0 7.6-2.3 7.6-5zm40.6-5.2c-4.1-2.7-9.9-5-12.7-5-2.7 0-1.6 2.3 2.6 5s9.9 4.9 12.7 4.9c2.8 0 1.6-2.2-2.6-5zm203.2 0c0-2.8-4.4-5.1-9.8-5.1s-11.3-2.3-13-5c-1.7-2.9-5.7-5.2-8.7-5.2-3 0-1.4 4.6 3.6 10.2 9.6 10.6 28 13.9 28 5zm23 0c-1.8-2.8-5.5-5.1-8.3-5.1-2.8 0-3.7 2.3-2 5 1.8 2.9 5.5 5.1 8.3 5.1 2.8 0 3.6-2.2 2-5zm67.1-18.3c-1.7-1.7-6-2-9.7-.4-4 1.6-2.9 2.8 3 3 5.4.2 8.4-1 6.7-2.6zm702.4-9.1c0-1.1-3.5-3.4-7.9-5-4.5-1.8-6.5-1-4.7 2 3 4.8 12.6 7 12.6 3zm-423.3 222.1c-1.9-1.9-7.4-3.7-12.3-4-9-.7-11.4-3.5-11.4-13.6 0-3.8 2-4 6.3-.7a65.5 65.5 0 0 0 20.4 8.4c7.6 1.8 14 5.6 14 8.3 0 5.6-11.9 6.7-17 1.6zm1.7-32.2c-6.2-4-5.4-5 3.8-5 6.3 0 11.4 2.2 11.4 5 0 6.4-5.4 6.4-15.2 0zm-45.6-7.5c-4.2-5-4-7.8.6-10.7 3.5-2.2 7.2-1.3 8.3 2 1 3.4 4 6 6.5 6 2.4 0 3.2-3.4 1.5-7.6-1.6-4.1-5.2-7.6-8-7.6-10.6 0-49.7-45.3-49.7-57.6 0-16.3-13.2-47.6-16.2-38.4-1.6 4.7-5.2 2.5-11.5-7.1-11.3-17.2-7.4-22.6 8.2-11.7 12.3 8.6 21.8 10.8 17.6 4-1.4-2.1-.6-7 1.7-10.8 3.3-5.2 5.6-4.3 10 4.2 3.3 6 4.5 13.3 2.7 16.2-1.8 2.9 3.8 7.9 12.5 11.2 10.6 4 15.7 9.3 15.7 16.5 0 12 9 22.7 18.8 22.7 4.7 0 5.3-2.6 2.2-8.9-2.5-4.9-8.4-17.8-13-28.6-6.5-15-10-18.4-14.4-14-9.3 9.3-12.7 6.8-10-7.6 1.7-9-.1-14.8-5.6-17.9-4.6-2.6-6.8-8-5-12.4 2.1-5.8 4-6.3 6.7-1.9 2.8 4.5 4.7 4.5 7.3.3 2.2-3.5-2.5-7.9-12-11.2-17.7-6.2-20.9-14.6-5.5-14.6 5.6 0 10.1 2.4 10.1 5.4 0 3 2 4.2 4.2 2.8 2.3-1.5 8.2 2 13 7.8 5 5.7 10.3 9 11.9 7.5 1.6-1.6 0-6.3-3.3-10.4-4.8-5.7-4.8-9.7-.4-16.7 5.6-8.6 5.7-8.6 2.9.5-2.6 8.1-1.9 8.6 4.7 3.2 4.2-3.5 7.7-4.7 7.7-2.7 0 2.1 3.2 1.2 7.2-2.1 4.9-4 8.2-4.3 10.4-.6 4.9 7.8 12.9 6.4 12.9-2.3 0-4.2-2.5-7.7-5.4-7.7-3 0-4-2.2-2.3-5 3.7-6 25.6 7.2 41.8 25.4 9.5 10.5 12.2 11.4 16.2 5.3 6.5-9.8 23-1.2 53.8 28 12.4 11.6 23.1 19.4 24 17.2.8-2.2 10.2 5 21 16l19.5 19.8-15.7-3.2c-10.5-2-15.8-1.1-15.8 2.8 0 4-5.7 4.9-17.8 2.6-12.1-2.3-17.7-1.4-17.7 2.7 0 3.3-3.5 9.5-7.7 13.7-4.2 4.2-6.2 10-4.5 12.8 1.8 2.9-2.3 1.6-9.2-3-12.4-8-12.4-8-10 7.9 1.6 11.2.5 14.9-3.6 12.4-3.2-2-4.5-5.8-3-8.3 1.6-2.6-.4-3.4-4.4-1.9-4 1.6-9 .4-10.8-2.6-6-9.6-12.9-5.7-12.9 7.3 0 7-1.7 12.7-3.8 12.7-2.2 0-10-5.7-17.6-12.7-15.2-14.1-30-18-19.3-5.1 7.3 8.7 2.9 33-6 33-3.2 0-9.8-3.5-14.6-8-5.8-5.2-10-6-12.1-2.4-1.9 3 .2 5.4 4.6 5.4 5.5 0 7.9 5 7.9 16.7 0 12.8-2.3 16.8-9.9 17.4-5.4.4-12.3-2.3-15.4-6zM367 1410c-6-12.6-7.2-20.8-3.8-26.7 4-7.2 6-5.6 12.7 10.3 14.6 34.7 6.7 49.1-9 16.4zm322-8c-.1-4.6-6-12-13-16.6-7-4.6-12.7-11.5-12.7-15.3 0-3.8-5.2-8.3-11.5-10-6.2-1.6-16.6-11-22.9-20.8-11.4-17.8-11.4-18-1-18 5.8 0 9.2-2.1 7.6-4.8-3.5-5.6 27.7 3.9 35.1 10.7 7.8 7 18 5 18-3.6 0-10.3 17.6-7.4 18.3 3 1.2 17.2 2.4 20.2 8.2 20.2 4.7 0 4.7-1.4 0-6.1-8.8-8.8-7.5-14.2 3.4-14.2 11.8 0 19 8.3 23.8 27.4 3 11.5 2.3 13.8-3 10.6a52 52 0 0 0-20.6-4.6c-10.9-.3-13.9 1.8-13.5 9.7.3 5.6 2.6 13 5.1 16.3 6 8-.3 18.2-9.1 14.9-3.7-1.5-7.9 0-9.3 3.4-1.4 3.5-2.6 2.6-2.8-2.2zM378.9 1385c0-4.4 2.3-8 5-8 2.9 0 5.1 2.2 5.1 4.8 0 2.7-2.2 6.2-5 8-2.8 1.7-5.1-.5-5.1-4.8zm259-5.4c0-4.2 2.4-7.6 5.1-7.6 2.8 0 5.1 3.4 5.1 7.6 0 4.2-2.3 7.6-5 7.6-2.8 0-5.1-3.4-5.1-7.6zm86.4-68.9c0-3 2.3-4 5.1-2.2 2.8 1.7 5 4.1 5 5.4 0 1.2-2.2 2.2-5 2.2s-5-2.4-5-5.4zm-40.6-10.8a48.3 48.3 0 0 0-25-13.5c-23.3-4.8-25.2-13.5-3-13.9 9.8-.2 17.8 1.8 17.8 4.3 0 2.6 5 8.6 11 13.5 5.9 4.8 9.9 11.2 8.8 14.2-1 3-5.4 1-9.6-4.6zm-57.8-16.6c-4.6-7-8.3-14-8.3-15.9 0-5.2 15.3 8.8 20.8 19 7.5 14.1-3 11.4-12.5-3.1zm-795-56.4c-1-22 .4-27.6 6.7-27.6 4.3 0 7.9-2.6 7.9-5.7 0-3-3.4-4.3-7.6-2.7-6.7 2.6-7.7-10.7-7.7-101 0-85 1.3-104 7-104 3.9 0 9.6 3.1 12.8 7 4.1 5 14 6.2 35 4.4 16-1.3 47.7-2.4 70.6-2.5 33 0 41-1.5 38.8-7-4.2-11 8.6-8 18.6 4.3 8.8 10.9 10.3 11 46.6 5 28.6-4.9 41.6-5 54.3-.6a89.8 89.8 0 0 0 36.7 2.6c11-1.7 20-1.3 20 .9 0 4.7 65.4 2 92.5-3.8 10.3-2.2 20-2.7 21.7-1.1 3.6 3.6 18.6 5.8 51 7.6 13.9.7 28.3 3.2 31.9 5.4 3.6 2.3 9.7 1.5 13.5-1.7 5.4-4.5 8.3-3.7 12.4 3.4 3.4 5.6 7 7.2 9.3 4 2.2-2.7 15.4-5.5 29.3-6 16.3-.7 21.9.3 15.6 2.9-8.2 3.3-8.5 4.4-1.9 7 4.4 1.6 13.5 0 20.2-3.4 17.2-9 42.5-13.4 48-8.5 6.6 6.1 54.8 10.5 62.5 5.8 5.4-3.4 5.4-4.6-.3-6.5-3.8-1.2 1.4-2 11.6-1.8 16 .3 18 1.6 13.8 9.3-3 5.8-2.9 8.9.5 8.9 3 0 5.3-2.1 5.3-4.6 0-2.6 5.1-3.7 11.4-2.5 6.3 1.1 8.6.7 5.1-1-3.5-1.6-6.3-4.5-6.3-6.3 0-5 42-4.2 49.8.9 3.6 2.3 12.8 2.5 20.3.4l16.2-4.4a38 38 0 0 0 8.5-4.3c3.3-2 7.5-1.5 9.2 1.4 1.8 2.8 8.4 5.1 14.6 5.1 6.3 0 13.6 2.2 16.2 4.8 3 3 10.9 2 21.2-3 12.8-6.2 19.7-6.8 31.9-2.5 15 5.2 20 4.8 39.4-2.7 4.9-2 41.5-3.7 81.4-3.9 51.5-.2 73.7-2.1 76.5-6.5 3.5-5.7 50.4-5.5 172.3.6 11 .5 11.4 2.1 11.4 53.2v52.6l-191.8-3.5a8772 8772 0 0 0-201.9-2.4c-23.9 2.6-439.6 2-469.8-.6-18.2-1.6-34.3-1.3-35.7.8-1.4 2-9.4 4.7-17.7 5.9-8.4 1.2 11 2.7 43.1 3.4 140.6 2.7 198.7 5.2 243.9 10.3 26.5 3 123.7 6.6 215.9 8 185.5 2.6 184.3 2.6 377.2 20.6l36.8 3.4v40.9l-125.7-3.8c-69.2-2.2-138.3-5.5-153.7-7.5l-28-3.5 39.5-4.2c21.7-2.2 40.7-6.1 42.2-8.6 1.5-2.4.5-4.5-2.2-4.5-2.8 0-21.8-2.1-42.2-4.8a2233 2233 0 0 0-183.3-11.2c-7.7.2-14-2-14-5 0-3.4-5.2-4.1-14-2-22.3 5.7-129.8 3.2-133.7-3-2.2-3.6-4.1-3.7-5.3-.5-1.2 3.1-49.6 6.3-123.8 8-127.8 3.1-176.7 7-172.5 13.8 1.4 2.3-1.5 4-6.5 4-72.8-1.6-149 2.3-147.2 7.4 1.1 3.3 8.1 6 15.5 5.8 7.4 0 13.5 1.8 13.5 4.2 0 2.3 2.3 2.8 5.1 1.1 2.8-1.7 15.6-1.6 28.4.4 19.4 2.9 22.8 5 20.8 13-1.6 6 .1 9.5 5 9.5 4 0 6 2.3 4.2 5-1.7 2.9-7.6 5.1-13 5.1s-9.9 3.5-9.9 7.7-3.8 7.6-8.5 7.6c-7.5 0-7.4 1 1.2 7.2 9 6.6 7 7.2-19.4 5.7-31.5-1.7-44.2-8.3-42-22 .7-4.8-1.3-10.4-4.4-12.4-3.5-2.3-2.2-3.8 3.3-3.8 4.9 0 8.9 3.4 8.9 7.6 0 7 1.7 6.9 15.5-.2a46.2 46.2 0 0 1 26.7-5.2c10 2.5 10.2 2.4 1-1.6a487 487 0 0 0-50.8-17.5c-2.8-.5-6.8-3.3-8.8-6-2-2.9-3.8 1.1-3.9 8.8 0 7.7-2.9 14-6.4 14-4.2.1-3.8 1.8 1.3 5 4.2 2.6 7.7 10.3 7.8 17.2.3 12.2-.3 12.3-35.5 10-19.6-1.4-37-4.5-38.4-7-1.6-2.4-7.3-4.4-12.8-4.4-23.7.1-43.2-4.1-51.7-11.2-5.6-4.7-17.5-7.2-30.7-6.5-12 .6-20.4-1-18.8-3.6 4.7-7.5-20.3-5.2-31 2.9-8.7 6.5-8.8 7.4-1.3 7.6 4.7 0 10-2.1 11.7-5 1.8-2.7 5.9-5 9.2-4.9 3.3.1 1.6 3.6-3.8 7.7-9.7 7.3-9.7 7.4.3 7.4 5.6 0 14.6 3.4 20 7.5 8.7 6.5 8.8 7.5 1.3 7.6-4.7 0-10-2.1-11.7-5-1.8-2.7-7.3-5-12.3-5-5 0-15.2-4.7-22.6-10.5-13.1-10.3-13.4-10.4-13.4-.6 0 5.5 3.4 11.3 7.6 13 10.8 4 9.5 11.7-2.5 14.8-6.1 1.6-9 .6-7-2.4 1.8-3-1.6-2.6-7.8.7-6 3.2-9.6 7.9-8 10.4 1.5 2.5-1.5 6.8-6.7 9.6-8.6 4.6-9.5 2.7-10.6-22.6zm168.9-25.2c2.2-6-.6-7.4-12.5-6.5-13.9 1-14.6 1.8-6.5 7.7 11.5 8.5 15.4 8.2 19-1.2zm25.5-3.3c-1.3-2-5.7-2.5-9.8-1-10.3 4-9.3 6.5 2.4 5.6 5.4-.4 8.7-2.5 7.4-4.6zm45-2.5a19.6 19.6 0 0 0-12.7 0c-3.5 1.4-.7 2.6 6.3 2.6s9.9-1.2 6.4-2.6zm21.7-16.7c-1.6-2.7-6.4-3.6-10.5-2-10.5 4-9.2 6.8 3 6.8 5.8 0 9.2-2.2 7.5-4.8zm-119.5-35.8a5 5 0 0 0-5-5 5 5 0 0 0-5.2 5 5 5 0 0 0 5.1 5 5 5 0 0 0 5-5zm78.7 0c3.8-6-6.2-6-20.3 0-9 3.9-8.7 4.4 3.5 4.7 7.5.2 15.1-2 16.8-4.7zm87.6 2c-1.7-1.7-6.1-1.9-9.8-.4-4 1.6-2.8 2.8 3 3 5.4.3 8.4-1 6.8-2.6zm-188-5c-1.7-1.8-6-2-9.7-.5-4 1.6-2.9 2.8 3 3 5.4.3 8.4-.9 6.7-2.6zm143.6-3.3c0-5.2-29.2-5-32.4.3-1.5 2.3 5.3 4 14.9 3.9 9.6-.2 17.5-2 17.5-4.2zm28.2-1.6c9.8-7.8 9.7-7.8-.3-3.2a314 314 0 0 1-17.7 7.5c-6.6 2.4-6.6 2.8.3 3.2a33 33 0 0 0 17.7-7.5zm122.8 4.8c-1.7-1.7-6-1.9-9.7-.4-4 1.6-2.9 2.8 3 3 5.4.3 8.4-.9 6.7-2.6zm-9.3-14c4.8-5.8 2-6.8-15.9-5.5-11.9 1-22.8 2-24.2 2.5-2 .8 18.6 7 31.1 9.3 1.8.4 5.8-2.5 9-6.4zm78.9 2.8c2.5-1.4 54.6-2.5 115.8-2.5 79.5 0 109.7-1.5 105.8-5.4-6.2-6.1-67.8-7-131.3-1.7-27.6 2.3-41.1 1.8-39-1.5 1.6-2.8.6-5-2.4-5s-5.3 1.8-5.3 4c0 2.4-13.2 4.3-29.2 4.3a267 267 0 0 0-52.1 5.6l-22.9 5.7 28-.5c15.3-.3 30-1.6 32.6-3zm-118.3-13.4 17-7.3-25.3.6c-14 .4-20.8 1.7-15.3 3l10.2 2.3-10.2 4c-7.7 3.1-8.2 4.1-1.8 4.4 4.6.2 16-3 25.4-7zm104.8-6.4c-7.6-1.2-21.3-1.2-30.5 0-9.1 1-2.9 2 14 2 16.7 0 24.1-.9 16.5-2zm243.3-24.3c1-3.1-15.6-5.5-42.1-6.2-24.1-.6-42.5.2-41 1.8 9.9 9.9 80 13.5 83.1 4.4zm-384.4-5.8c15.4-1.1 28.8-4.3 29.7-7 1-2.8 4.8-5 8.6-5s8-2 9.5-4.2c1.4-2.3-11.6-2.2-29 .3-30.6 4.5-84.4 2.4-110.2-4.2l-12.7-3.2 11.6 8.6a74 74 0 0 0 34.3 9.4c21 .8 28.2 4.6 18.9 9.8-2.1 1.2-.4 1.1 3.8-.1 4.2-1.2 20.2-3.2 35.5-4.4zm63.5 3.3c1.8-2.9-.2-3.7-4.8-2-8.8 3.4-10.4 7-3 7 2.6 0 6.1-2.3 7.8-5zm177.8 0c4-6.5-2.7-6.5-12.7 0-6.5 4.2-6.4 4.9 1 5 4.7 0 10-2.3 11.7-5zm234.6-2.6c-1-2.8-11.8-5.6-24.1-6.1-12.4-.6-19.6.1-16.1 1.7 3.5 1.5 5.4 4.2 4.3 6-1.2 2 6.8 3.5 17.7 3.5 11 0 19.1-2.3 18.2-5.1zm57.5 2.5c0-2.8-2.4-5-5.3-5-3 0-4 2.2-2.3 5 1.8 2.8 4.2 5.1 5.4 5.1 1.2 0 2.2-2.3 2.2-5zm61-1.2c0-2.1-9.1-3.9-20.3-3.9-11.2 0-20.3 2.3-20.3 5s9.1 4.5 20.3 3.8c11.1-.6 20.3-2.8 20.3-5zm-185.4-3.9c9-3.8 8.6-4.4-3.8-4.7-7.7-.2-14 2-14 4.7 0 6 4 6 17.8 0zm219.6 2c-1.7-1.6-6-1.8-9.7-.3-4 1.6-2.9 2.8 3 3 5.4.2 8.4-1 6.7-2.6zm35.6 0c-1.7-1.6-6.1-1.8-9.8-.3-4 1.6-2.8 2.8 3 3 5.4.2 8.4-1 6.8-2.6zm-283.2-19.7c39-8.6 78.3-10 73.7-2.6-3.9 6.3 2.7 6.5 12.4.3 4.5-2.8 11-2.7 16.5.3 5.5 2.9 9.2 3 9.2.1 0-2.5-4-6.3-8.9-8.4-14-5.8-90.8-3-141.8 5.2-45.5 7.3-74.8 6.6-116-2.8-11.2-2.5-42-4.3-68.6-3.9l-48.2.7 58.4 3.5c32.1 2 64.1 6 71.1 9 18.3 8 103.5 7 142.2-1.4zm461.5 0c1.4-1.4-14.4-2.3-35.2-1.9-30.2.6-33.6 1.4-17.3 4 21.1 3.4 48 2.3 52.5-2.1zm-960.6-6a41.7 41.7 0 0 0-17.7 0c-5 1.2-1 2.2 8.8 2.2s13.8-1 9-2.3zm210.9 0a19.6 19.6 0 0 0-12.7 0c-3.5 1.5-.7 2.6 6.3 2.6s9.9-1.1 6.4-2.5zm551.2-10.6c2.1-6.5-38-12.5-79.6-12-40.8.6-45.2 4.1-10.8 8.7 14.5 2 23.8 5.1 20.7 7-3.2 2 10.8 3.1 31 2.5 20.4-.7 37.7-3.4 38.7-6.2zm-130.9-16.5a5 5 0 0 0-5-5 5 5 0 0 0-5.1 5 5 5 0 0 0 5 5.1 5 5 0 0 0 5.1-5zm-789.9 208.2c1.8-2.8 5.4-3.8 8-2.2 7 4.4 5.7 7.4-3.2 7.4-4.4 0-6.5-2.3-4.8-5.2zm307.3-6.9c0-4.5 20.6-6.9 23.2-2.7 1.5 2.6-3 4.6-10.2 4.6-7.1 0-13-.8-13-1.9zm-234.6-16.8c3.7-1.4 8-1.3 9.7.4 1.7 1.7-1.3 3-6.6 2.7-6-.2-7.2-1.4-3.1-3zm813.7-47.7c-8.8-2.6-3.2-3.8 18.8-4.2 17.3-.2 32.5 1.2 33.8 3.3 3 5-36.2 5.7-52.6 1z" clip-path="url(#c)" transform="translate(169.8 75.7)"/><path style="fill:#d1a1af;stroke-width:5.08" d="M-169.9 1669.1c0-258.6.9-287.5 8.2-290.3 4.5-1.7 9.6-.7 11.4 2.1 1.8 3 13 8.2 25 11.8 11.9 3.5 24.1 9.5 27.3 13.2 3 3.8 9.3 6.8 13.9 6.7 7.3-.2 7.2-1-.7-7-15.3-11.6-9.7-14.5 7.7-4 9 5.6 30.2 17.4 47 26.3 16.7 8.8 33.3 19.8 36.7 24.2 12.3 15.9 11 3-1.5-15.5-17.6-25.9-8.2-23.5 26.2 6.6 16 14 32.5 25.4 36.7 25.4 4.2 0 6.3 1.4 4.6 3-4 4.1 7.9 17 12.8 14 2.1-1.3 15 9.2 28.5 23.3 13.5 14.2 28 25.7 32 25.7 4.1 0 13.8 6.6 21.4 14.6 11.4 11.9 12.6 15.2 6.2 17.6-4.2 1.6-9.1.8-10.7-1.9-1.7-2.7-8-4.7-14.2-4.5l-11.1.3 11.4 5.5c6.3 3 11.4 7.6 11.4 10.2 0 2.6 4.3 3.3 9.5 1.7 11.8-3.8 22 7.9 23 26.4.3 7.7 4.7 19.6 9.5 26.5a48 48 0 0 1 8.8 19c0 3.6 3.1 6.6 6.9 6.6 3.7 0 9.4 5.7 12.5 12.7 5.2 11.4 11.3 15 22.5 13.3 2-.3 7.4 5.1 12 12 4.5 7 10.6 11.2 13.6 9.3 3.4-2 4.1 0 2 5.7-2.7 6.9-1.6 8.3 4.6 6 4.4-1.8 13 .3 19 4.5 14 9.8 21.8 9.8 13.6 0-3.4-4.2-9.3-7.7-13-7.7-8 0-35.5-34.4-31-38.9 1.7-1.6.7-7.4-2.2-12.8-3.8-7-3.5-12 .8-17.2 4.7-5.6 4.6-9-.2-14.8-3.5-4.2-5-13-3.2-19.8 2-8.4.6-13.2-4.8-15.2-4.3-1.7-7.2-6-6.5-9.5.7-3.5-1.5-11.5-5-17.8-3.5-6.3-4.4-11.4-2-11.4 7.1 0 31.6 27.9 31.6 36 0 4.2 2.7 10.4 6 13.7 7.4 7.4 21.3 8.2 16.8 1-6.1-10 16.7-4.8 35.6 8 12.8 8.7 20.4 11.2 22.7 7.5 2.4-3.8 7.4-2.6 15.8 3.7 6.8 5 18.6 13.2 26.3 18 12.2 7.7 14 7.9 14 1 0-4.4-8-12.7-17.9-18.5-18-10.6-25.9-24.3-8.6-15.1 7.2 3.9 9.2 2.8 9.8-5 .4-5.3-1.4-9.7-4-9.7s-4.8-2.3-4.8-5c0-8.7 22.2-5.5 35.6 5 10.3 8 11 10 3.8 10-12.5.2-11 6.6 4.3 20 18 15.5 34.1 18.6 30 5.6-2.7-8.5-1.3-9.1 11.2-5.6 16 4.5 28.4 2 24-5-4.7-7.7 6.3-5.2 13 3 3.5 4.1 8.4 7.6 10.8 7.6 2.5 0 4.5-3.5 4.5-7.7 0-4.1 2-7.6 4.4-7.6 2.5 0 7.4 3.5 10.8 7.6a22.9 22.9 0 0 0 15.3 7.7c4.9 0 11.7 3.4 15.2 7.6 9.2 11 16.4 9.3 9.2-2.2-3.4-5.4-7.4-9.7-9-9.6-10 1-15.6-1.6-12.9-6 1.7-2.8 8.7-5 15.4-5 11.3 0 11.9-1.2 7.1-14a53 53 0 0 0-13.5-20.4c-7.4-5.6-7-6.3 4.1-6.3 7 0 17.2 3.2 22.8 7.1 14.5 10.2 39.4 4.8 36.1-7.8-2.5-9.6 3.9-13.2 9-5 1.5 2.5 9 6.1 16.8 8 7.7 2 19.1 8.3 25.4 14.2 13 12.2 16 10.9 17.6-8 1-12.5 9-20 9-8.5 0 2.8 2.7 5 5.9 5 3.1 0 8.8 4 12.5 9 5.5 7.2 6.8 7.4 7 1.2 0-4.2-4.9-10.8-11-14.6-10-6.3-10.2-7.3-2.2-11.8 6.7-3.8 14-.5 32.6 14.3 40.7 32.8 61.1 54.1 58.4 61.2-1.6 4 .9 6.8 6 6.8 4.7 0 12.8 5.1 17.9 11.4 14.4 17.8 17 7.4 4-15.6-14.3-25.3-64.2-78.1-70.3-74.4-5.5 3.4-25.5-13.3-22.2-18.6 1.3-2.2 6.4-2.6 11.2-1 4.8 1.5 1.8-3-6.6-10-13.5-11.5-14.2-13.3-6-16.5 6-2.4 13.2.3 21.6 8.2l12.5 11.7-3.3-17.4a72 72 0 0 0-8.5-24.1c-3.9-5-2.4-7.4 6-9.5 8-2.1 10.2-5.5 8-12.5-2.4-7.6-.4-9.5 10-9.5 14.4 0 16.4-4.5 6.7-15-5-5.4-5-6 0-3.2 7.7 4.3 8.9-10.1 1.3-14.8-9.1-5.6-5.3-14 5-11.2 7.5 1.9 10.2.1 10.2-6.7 0-8.1 2.2-8.7 16.3-4.7 9 2.6 17.5 3 19 1 6-8 37-12 46.6-6 5.5 3.6 5.6 4.6.4 4.6-3.7 0-5.2 2.4-3.5 5.2 2 3.4 6.5 3.3 13.1-.2 5.5-3 12.1-4 14.8-2.4 9.6 6 42.1 8.5 77.5 6.2 13.3-.9 27 0 30.2 2.1 3.4 2 10.2 1.6 15.2-1.1 11.8-6.4 56.4 15.8 74.2 36.8 9.7 11.6 15.5 14.5 24.7 12.2 8.3-2 12-.8 12 4.2 0 4 5.6 8.6 12.6 10.3l12.7 3.2v467.2H720.2c-366 0-467.8-1.4-473.2-6.4-5.5-5-6.1-5-3.3 0 2.9 5-39.6 6.4-205 6.4h-208.6Zm310 186.2c0-6.4-10.9-14-25.3-17.5-12.1-3-12-2.6 2.5 9.3 16 13 22.7 15.5 22.7 8.2zM68.8 1837c-3.6-4.3-7.7-6.7-9-5.3-1.5 1.4.3 6 4 10.4 3.5 4.3 7.6 6.7 9 5.3 1.4-1.4-.4-6-4-10.4zm335.3-22.9a5 5 0 0 0-5-5 5 5 0 0 0-5.2 5 5 5 0 0 0 5.1 5.1 5 5 0 0 0 5-5zM175.6 1804c-10-6.4-16.7-6.4-12.7 0 1.7 2.8 7 5 11.7 5 7.4 0 7.6-.8 1-5zm188.5-19.3c-3-1-5.7-5.7-5.7-10.3 0-4.7-2-11.6-4.4-15.3-3.3-5.2-4.9-4.5-6.9 3.2-1.4 5.5 2.2 17.7 8.1 27 9.2 14.4 11 15.5 12.7 7.1 1-5.4-.7-10.7-3.8-11.7zm-309-16.8c-3.8-3.9-6.5-3.6-9.3.9-2.5 4-1.8 5 2 2.7 3.2-2 5.9-.9 5.9 2.6 0 3.4 1.5 4.6 3.4 2.7 2-1.9 1-6-2-8.9zm265-7.7c6.5-2.5 3.8-6.4-12.3-18.2a114.8 114.8 0 0 0-26.8-16c-3.5-.6-9-2.7-12.4-4.8-4.2-2.7-5.7.5-5 10.3 1 11.6 3.6 14 14.8 14 7.5 0 17.6 4 22.5 9 10.3 10.2 8.7 9.7 19.2 5.7zm-249.4-24.9a7.5 7.5 0 0 0-9.8-4.1c-4.4 1.7-10.5-3.6-16-14a278 278 0 0 0-33.1-43c-13.3-14.4-24.2-28.5-24.2-31.4 0-2.9-3.7-8.3-8.3-12.1-15.6-13-2.4 16.3 19 42.1 11 13 19.8 26.2 19.8 29.2 0 10 40.1 46 47.8 43 4.1-1.5 6.3-6 4.8-9.7zm171 .1c-3.7-4.3-7.7-6.7-9.1-5.3-1.4 1.4.4 6 4 10.4 3.5 4.3 7.6 6.7 9 5.3 1.4-1.4-.4-6-4-10.4zm100 1.6c-1.7-4-3-2.9-3.1 3-.3 5.4 1 8.4 2.6 6.7 1.7-1.7 1.9-6 .4-9.7zm-364.2-34.6c0-8.4-35-44.4-45.8-47.2-5.6-1.5-10.1-1.7-10.1-.5 0 5.9 33 37.5 39 37.5 3.9 0 8.3 3.5 10 7.6 3.3 8.8 6.9 10 6.9 2.6zm843.1-43.3c-3.5-4.3-7.4-6.7-8.7-5.4-3.5 3.5 3.6 13.1 9.8 13.1 3.3 0 3-2.9-1-7.7zm-694.2-12c-5-18.8-38.9-50.2-57.5-53.1-16-2.5-16.5-2.3-5 2.5 23.5 9.9 27.8 13 27.8 20 0 10.2 8.2 21.2 23 31.1 7 4.7 13 8.7 13.4 8.8.5.1-.3-4-1.7-9.3zm205.3 6.5c-1.7-1.7-6-1.9-9.7-.4-4 1.6-2.9 2.8 3 3 5.4.3 8.4-1 6.7-2.6zm57.2-1.5c0-2.5-3.4-5.8-7.6-7.4-7.7-3-10.4 2.4-4.2 8.6 4.9 4.8 11.8 4.2 11.8-1.2zm-61-24c0-5.3-2.7-7-8-5-4.4 1.7-10.2 3-13 3-2.7 0-3.5 2.4-1.8 5.2 5.1 8.2 22.9 5.9 22.9-3.1zm-153-7.6c-11-6.9-16.4-5.2-9.5 3 3.4 4.2 8.5 6.2 11.3 4.5 3-1.9 2.3-4.8-1.8-7.5zm-138.7-7.3c-7.8-15-22.5-27.3-33-27.5-3.9 0-11.3-4-16.4-8.6-14.1-12.7-11.2-1 3.8 15 9.2 10 16.3 13.4 24.1 11.5 6-1.5 8-1.4 4.4.3-5.2 2.3-4.6 5.1 2.5 12.4 14.3 14.4 22.7 12.6 14.6-3.1zm733.7.5c0-1.3-5-5.1-11.4-8.5-10.3-5.5-10.8-5.3-4.4 2.4 6.5 7.8 15.8 11.4 15.8 6zM-25.7 1603c2.4-6.2-.7-7.6-14.7-6.6-18 1.2-18 6.4 0 10.7a91.2 91.2 0 0 1 11 3c.4.4 2-2.9 3.7-7.1zm91.6-40.5c-4.6-7-10.7-12.7-13.7-12.7s0 5.7 6.5 12.7a77 77 0 0 0 13.8 12.7c1 0-2-5.7-6.6-12.7zm74.1-9.6c0-1.1-3.4-3.3-7.6-5-4.2-1.6-7.6-.7-7.6 2 0 2.8 3.4 5 7.6 5 4.2 0 7.6-1 7.6-2zm968.3-67.4c-14.4-12.4-23.4-15.2-23.4-7.3 0 7 27.1 25.4 32.5 22 2.6-1.5-1.5-8.2-9-14.7zm-882 163.3c-3.4-4.2-4-7.6-1.2-7.6s8 3.5 11.4 7.6c3.6 4.3 4.1 7.7 1.3 7.7s-8-3.5-11.4-7.7zm-12.6-17.7c-1.7-2.8-.7-5.1 2.2-5.1 3 0 5.4 2.3 5.4 5 0 2.9-1 5.1-2.2 5.1-1.3 0-3.7-2.2-5.4-5zm39.2-.5c-17.4-6.6-52.4-36.2-50.1-42.4 1-3-1.5-9.4-5.8-14.3-4.5-5.2-5.4-8.9-2.1-8.9 3 0 7.8 4 10.5 8.9 2.8 4.8 8.9 8.8 13.7 8.9 8.2 0 51.9 46.2 47.5 50.2-1.2 1-7.3 0-13.7-2.4zm78.5-58.8c-6.4-6.4-3.4-11.9 6.6-11.9 6.8 0 9 2.5 7 7.7-3 8.1-8.1 9.7-13.6 4.2zm37.2-1.7c0-2.8 2.2-5 4.8-5 2.6 0 6.2 2.2 8 5 1.7 2.8-.5 5-4.9 5-4.3 0-7.9-2.2-7.9-5zm-45.7-44.4c-7.3-1.5-22.9-23.2-31.8-44.2-4-9.7-4-9.7 7.5 0 26.6 22.6 35.2 32.6 33.6 39-1 3.7-5.1 6-9.3 5.2zm403.7-6.7c-5.5-8.9.7-10.8 7.7-2.4 4 4.9 4.4 7.8 1 7.8-3 0-6.9-2.5-8.7-5.4zm-233.3-29.8c-3.5-5.6 4.6-11.7 9.2-7 4.9 4.8 4 11.7-1.5 11.7-2.6 0-6-2.1-7.7-4.7zm-150.8-10.4c-6.6-5.5-9.5-10-6.4-10.1 3-.1 9.7 4.4 14.7 10 11.8 13 7.2 13-8.3.1zm-220.3 0c-13.7-5.8-29-24.8-25-31.2 1.8-3 8.8 1.6 16.1 10.4 7.2 8.6 16 15.6 19.5 15.6 3.7 0 8 2.3 9.8 5 3.7 6.1-6.2 6.2-20.4.2zm409.1 0c-4-2.5-5.7-6.4-3.7-8.4 2.1-2.1 7.7 0 12.4 4.8 9.2 9.1 3.7 11.5-8.7 3.7zm-459-23.8a14 14 0 0 1-3.4-8.7c0-3.2 2.4-2.9 6 .8 3.3 3.3 4.9 7.2 3.4 8.6-1.4 1.5-4.1 1.1-6-.7zm477-7.1c-11.6-11.7-20.4-13-16.3-2.3 4.5 11.6-10.3 9.4-23-3.4-7.8-7.7-11.9-9.2-13.3-4.8-3.4 10.2-26.5-14.4-26.5-28.2 0-8.4 3-11.8 10.2-11.8 5.6 0 10.1-2 10.1-4.2 0-2.4 3.5-4.3 7.7-4.3s7.6 3 7.6 6.8c0 3.7 4 6.8 9 6.8 14 0 32.7 15.2 29.4 24-2 5.3-.7 6.6 4.7 4.5l15.3-6.2c8.3-3.4 10.7 5.7 2.9 10.5-2.7 1.6-4 7.5-2.9 13 2.4 12.5-2.2 12.4-14.8-.4zm-450-17c-12.5-6.6-22.2-14.5-21.5-17.6.7-3.2-1.3-5.8-4.4-5.8-3.1 0-13.6-6.9-23.2-15.3-9.6-8.5-20-13.8-23-12-3.1 2-4.1 1.2-2.3-1.8 1.8-2.9-.6-8.4-5.3-12.2-7.3-6-8-5.8-4.1.7 3 5.2 1 4.6-6.1-1.6-7.3-6.4-11.2-7.3-12.6-3-3.3 9.9-39.6-16.2-67-48.3-13.5-15.9-23.6-30-22.2-31.3 3.7-3.7 19 3.4 19 8.8 0 2.7 2.4 3.5 5.1 1.7 2.8-1.7 5.1-.7 5.1 2.3s6.3 5.1 14 4.8c8.6-.4 10.5-1.5 5-3-4.8-1.2-8.8-6.7-8.8-12 0-11.6 7.8-13 12-2.3 1.6 4.2 8.1 7.5 14.5 7.4 6.4-.2 18.4 1 26.8 2.6 8.4 1.6 12.4 1.5 9-.2-13.4-6.2-5.5-9.7 17.5-7.9 13.2 1 28.8 5.1 34.8 9 6.8 4.5 29 7.6 61 8.6 30.8.9 55.4 4.2 63.1 8.5l12.7 7-12.7 3.6c-8 2.3-9.4 3.8-3.7 4.2a91 91 0 0 1 26.7 10l18 9.6-14.2 4a52.9 52.9 0 0 1-19.1 2.5c-14.6-4-76.8-9-81-6.5-7.4 4.6 12.6 10.6 36.5 11 11.9.2 21.6 2.1 21.6 4.3 0 5-53.8 5-58.8-.1-2.1-2.1-9.7-3.8-17-3.7-12 .2-12.3.7-4.2 7 10.9 8.2 11.7 15.3 1.3 11.3-4.2-1.6-7.7-1-7.7 1.5 0 2.4 10.4 9.2 23.1 15.2 12.7 6 21.9 12.8 20.4 15.3-1.6 2.4 4 6.8 12.4 9.7 15.9 5.6 20.9 16 7.6 16-4.1 0-7.6 2.3-7.6 5.1 0 8.4-16.4 5.5-40.6-7.1zm35.6 0c0-1-3.5-3.3-7.8-5-4.6-1.7-6.6-.9-4.8 2 3 4.9 12.6 7.2 12.6 3zm-152.4-130c0-2.8-2.4-5.1-5.3-5.1-3 0-4 2.3-2.3 5 1.8 2.9 4.2 5.1 5.4 5.1 1.2 0 2.2-2.2 2.2-5zm180.8 124c-8.5-8.4-10.6-17.4-4.2-17.3 2 0 9.2 5.8 15.8 12.7 9 9.6 10 12.6 4.1 12.6-4.3 0-11.4-3.5-15.7-8zm86.2 0c-5.4-4-7.7-7.2-5-7.1 7 .1 20 9.1 17.3 12-1.3 1.2-6.8-1-12.3-4.9zm342.6 3c-4.5-3-5.2-5-1.5-5 3.3 0 7.4 2.2 9.2 5 3.9 6.3 2.1 6.3-7.7 0zm505-7.7c-1.7-7-5.3-12.7-8-12.7-2.6 0-3.7-1.8-2.3-4 1.4-2.2.4-7.4-2.1-11.4-3.8-6-4.8-5.4-5.2 2.7-.3 5.6-1.6 7.3-3 3.9-1.4-3.5-6.7-6.4-11.6-6.4a46 46 0 0 1-21.8-10c-7-5.5-14-8.7-15.5-7.2-1.5 1.5-17.8-5.3-36.3-15-18.4-9.8-32.2-15.7-30.6-13.1 4 6.6 0 5.9-19.8-3.6-12.4-6-17.3-11.6-17.3-20.2 0-6.6 2-10.7 4.5-9.2 9.4 5.8 29.8 7.2 29.8 2 0-2.8 6.1-1.2 13.6 3.7 8.6 5.7 14.2 6.9 15.4 3.4 1-3 5-9.9 8.9-15.2 6.8-9.3 7.4-9.2 20.1 2.7 7.2 6.8 13.1 14.9 13.1 18 0 7.7 31.5 19 37 13.4 2.7-2.5 2.2-5.9-1-7.8-3-2-5.5-10.4-5.5-19v-15.5l16.2 15.8c16.6 16.3 24.5 19.7 24.5 10.8a5 5 0 0 0-5-5.1c-2.7 0-8.5-6.9-12.8-15.3-4.5-8.6-5.7-15.2-2.7-15.2 2.9 0 5.2 2 5.2 4.6 0 2.5 6.4 6.8 14.3 9.5 10.5 3.7 16.7 3.2 23.8-2 13.1-9.6 14-9.4 36.3 10.6 10.8 9.8 21.3 17.8 23.4 17.8 2.1 0 3.8 23 3.8 51v50.7h-13c-8.6 0-22.7-9-41.9-26.6-15.9-14.6-23.2-19.8-16.2-11.4 7 8.3 14.4 16 16.5 16.9 2.1.9 3.8 5 3.8 9.2 0 4-2.1 6.1-4.7 4.5-2.6-1.6-6.2-.6-8 2.3-6.2 10.2-22.6 5.4-25.8-7.6zm-35-48.2c1.7-2.8-.6-5-5.1-5-4.6 0-6.8 2.2-5.1 5 1.7 2.8 4 5 5 5 1.1 0 3.4-2.2 5.1-5zm27.9-12.2c0-1-3.6-3.3-7.9-5-4.5-1.7-6.6-.9-4.8 2 3 4.8 12.7 7.1 12.7 3zm-9.2-34.6c-3.7-3.7-6-4-6-.8 0 6.8 6 12.8 9.3 9.4 1.5-1.4 0-5.3-3.3-8.6zm48.6 3.2c-4.2-4.2-24.6-6.9-22.2-3 1.3 2 7.3 4.1 13.5 4.6 6 .4 10-.3 8.7-1.6zM587.9 1406c-11.8-12.5-10.2-20 3-14.9 6 2.3 7.2.9 4.7-5.7-2-5.5-1.3-7.5 2-5.4 3 1.8 4.3 6 3 9.5-1.3 3.4 2 9 7.5 12.3 10.2 6.4 8.6 16-2.7 16-3.5 0-11.4-5.3-17.5-11.8zm-365.5.7c-17-4.6-18-14.3-1.4-14.3 8.6 0 24.5 13.5 20 17.1a50 50 0 0 1-18.6-2.8zm-94.2-7.5c-12.1-12.1 4.6-15.8 19.7-4.4 9.5 7.2 9.4 7.4-3.2 7.6-7.2 0-14.7-1.4-16.5-3.2zm410.6-1.7c-4-6.4 2.8-6.4 12.7 0 6.6 4.2 6.4 5-1 5-4.7 0-10-2.2-11.7-5zM310 1381.9c-1.8-3-2.1-6.6-.6-8.1 3.6-3.7 13.5 2.8 13.5 8.7 0 6.5-8.8 6.1-12.9-.6zm371 .3c-1.7-2.7-.8-5 2-5s6.5 2.3 8.2 5c1.7 2.8.9 5.1-2 5.1-2.7 0-6.4-2.3-8.2-5zM193.4 1367c-1.8-2.8-.9-5 2-5 2.7 0 6.4 2.2 8.1 5 1.8 2.8.9 5-2 5-2.7 0-6.4-2.2-8.1-5zm81-11.2c-8.8-7-15-9-16.2-5.6-1.1 3.4-6.5 1.3-13.5-5.3-12.9-12.1-31.3-38.9-26.7-38.9 8 0 69.7 32.7 77 40.8 8 8.8 7.9 9.2-3.4 6.3-10.6-2.8-11.1-2.2-4.9 5.4 9.6 11.7 4.7 10.6-12.3-2.7zm394 1c0-2.7 1.7-5.2 3.8-5.4 2-.2 7.6-1.2 12.3-2 5.6-1.1 7.6.7 5.8 5.4-3 8-22 9.8-22 2zm379.7-22.5c-11.3-8.2-11.5-18-.4-18 4.6 0 7 1.4 5 3.2-1.8 1.9-.7 6.5 2.5 10.3 8 9.6 3.6 12.3-7.1 4.5zm-847.1-18c0-2.6 3.4-3.5 7.6-2 4.2 1.7 7.6 3.9 7.6 5 0 1-3.4 2-7.6 2-4.2 0-7.6-2.2-7.6-5zM76.6 1291c-1.8-3 .2-3.8 4.7-2 8.8 3.3 10.5 7 3.1 7-2.6 0-6.1-2.3-7.8-5zm60.9-69-15.3-7 16.6 1c9.5.5 16.5 3.6 16.5 7.4 0 3.6-.6 6.4-1.3 6.1-.7-.2-8.1-3.6-16.5-7.5zm-306-7.3c1-12 2.2-12.4 11.6-3 6.1 6 6 7.5-.8 10.1-11.3 4.4-11.6 4.2-10.8-7zm245.2 5.3c-1.7-2.7-7-3.6-11.8-2-7.2 2.3-7.4 1.8-1.2-2.5 4.6-3.3 9.6-3.5 13.1-.5 3.2 2.6 7.6 3 9.9 1 2.3-2.1 2.5-1 .5 2.5-4.4 7.6-6.6 8-10.5 1.5zm-34.5-4c-4.8-1.2-8.9-4.2-8.9-6.7 0-6 5.6-6 15.1.1 9.2 5.8 6 9.2-6.2 6.5zm-178.5-25.8c-1.4-2.4-9.6-3.3-18-2l-15.6 2.3v-98.8c0-54.4 1.6-100.4 3.4-102.2 2-1.9 7.1 0 11.6 4 9.6 8.6 33.6 10.4 68.4 5 20-3 24.1-2.5 20.8 2.8-2.8 4.5-2.1 5.5 2 3 3.3-2.1 9.8-.8 14.3 3 6.4 5.3 8.7 5.4 10.3.4 2.5-7.4 35.4-8.2 64-1.6a64.3 64.3 0 0 0 41.6-3.6c18.9-7 24.8-7.2 42.3-1.4 11.2 3.7 25 5.5 30.9 4 5.8-1.6 10.5-1.3 10.5.5 0 4 29.9 3.2 40.6-1a63.7 63.7 0 0 1 22.9-1.7c8.4.8 27-1.3 41.6-4.6 14.5-3.3 27.7-4.7 29.3-3 1.7 1.6 8.1 3.6 14.3 4.5 6.2.9 15.9 3.7 21.5 6.3 14 6.6 44.3 10.8 86.3 12 19.6.6 38.4 2.9 42 5.1 3.4 2.3 8.4 2.8 11 1.3 2.5-1.6 8.3.7 12.8 5.2 7 7 9.4 7.2 16.5 1.4 6.5-5.4 8.7-5.5 10.4-.5 2.5 7.5 36.9 8.6 36.9 1.2 0-2.8-3.8-5-8.5-5-14 0-2.9-6.7 14.4-8.6 9-1 14.8-.3 13 1.5-1.8 1.7.1 6.5 4.2 10.6 11.9 11.8 8.6 16.7-11.7 17.5-10.5.3-27 1.6-36.8 2.7-38.8 4.5-43.2 4.3-41.8-2.6.8-3.8-1.5-5.8-5-4.5-3.6 1.3-6 5-5.3 8.1.7 3.2-3.3 5.7-8.9 5.7-5.6 0-10.2-2.3-10.2-5 0-2.8-2.4-5.1-5.3-5.1-3 0-4 2.3-2.3 5 4.2 6.8-15.9 6.5-38.1-.4-23.8-7.5-126.6-5.6-167.6 3-38.5 8.1-128.5 7.2-194.7-2-41.7-5.8-72.7-5.2-44 .9 7 1.4 21.6 4.6 32.6 7 23.4 5 29 15 12.2 21.7-9.1 3.7-3.7 4.8 23.7 5l35.5.4-13.7 12.7c-7.6 7-16.7 12.7-20.3 12.6-5 0-5-1 .5-4.5 5.4-3.4 4.2-5.3-5.1-8.3-23.2-7.5-36.3-6.6-46.7 3.1-8.8 8.2-9.1 9.8-2.2 9.8 4.5 0 9.5-2 11-4.5 1.5-2.4 7.3-5.6 12.8-7 8.6-2.3 9.9-.5 8.4 12.1-1.5 12.4-.6 13.8 5.6 8.7 5.1-4.3 8.4-4.5 10.8-.7 1.9 3 8 6.6 13.6 8 5.6 1.4-.7 2.8-14 3.1-13.3.4-24.1-1.4-24.1-3.9 0-7.2-17.1-9.6-30.7-4.3-12 4.6-12 5-2.4 9 7.8 3.2 8.3 4.3 2 4.5-4.6.2-11.2-3-14.7-7.2-7-8.4-22.7-10.7-17.7-2.6 1.7 2.8-1.4 5.1-7 5.1-14.6 0-26.4-5.4-23.2-10.7 1.6-2.5.4-4.5-2.6-4.5-7.5 0-6.7 13.8 1 17 3.5 1.3-8.5 2.9-26.7 3.3-27.5.7-30.5 1.6-18.1 5.3a88.1 88.1 0 0 0 29.6 2.7c8.3-1 15.8 1 17.1 4.5 1.3 3.4 11.6 6.5 22.8 7a92 92 0 0 1 29 5.2 97 97 0 0 0 30.4 5 73 73 0 0 1 34.2 9.6c14.3 10.5 16.8 19.2 3.4 12-5-2.7-12-3-15.6-1-6.5 4.1-69.9 2.9-126.4-2.4-21.1-2-31.8-1.1-31.8 2.5 0 6.4-13.4 7.4-17.2 1.3zm93.4-8.2c0-1.2-2.2-3.7-5-5.4-2.8-1.7-5.1-.7-5.1 2.2 0 3 2.3 5.4 5 5.4 2.9 0 5.1-1 5.1-2.2zm61.5-7.5c-4-2.5-10.3-3.4-14-2-10.7 4.2-8 6.7 7.2 6.6 10.1 0 12-1.3 6.8-4.6zm-64-51.2c1.7-2.8-.4-5.1-4.8-5.1-4.3 0-7.9 2.3-7.9 5 0 2.9 2.2 5.1 4.8 5.1 2.6 0 6.2-2.2 8-5zm35.6-22.9 20.3-7.4-18.7.9c-10.3.5-17.7 2.6-16.5 4.6 1.3 2-2.9 4.7-9.2 6-6.3 1.1-8 2.4-3.9 2.8 4.2.3 16.8-2.8 28-6.9zm-22.9-12.5c0-2.7-3.4-3.6-7.6-2-4.2 1.6-7.6 3.8-7.6 4.9 0 1 3.4 2 7.6 2 4.2 0 7.6-2.2 7.6-5zm44.4-3.3c-1.7-1.7-6.1-1.8-9.8-.4-4 1.7-2.8 2.9 3 3.1 5.4.2 8.4-1 6.8-2.7zm-53.2-35.8a29 29 0 0 0-15.2-.2c-5 1.3-2.2 2.5 6.2 2.6 8.4 0 12.5-1 9-2.4zm488.9-17c-14-6-17.8-6-17.8 0 0 2.8 6.3 5 14 4.7 12.3-.3 12.8-.8 3.8-4.7zm556.5 146.4c-72-4.5-87.9-8-43.5-9.4 16.8-.5 26-2.1 20.4-3.5-5.6-1.5-15.7-8.1-22.5-14.9-10.2-10.1-10.6-11.6-2.5-8.6 8.6 3.3 9 2.7 2.7-5-8-9.7-8.8-9.8 116.3 1 34.9 3 74.3 6.1 87.6 6.9l24.1 1.4v38.6l-59.7-1.2c-32.8-.7-88.1-3-123-5.3zm7.6-14c-3.7-5.8-38.1-17.5-41.6-14-1.4 1.4 4.4 4.1 13 6 8.5 1.9 16.8 5.5 18.4 8.1 1.6 2.6 5.2 4.7 8 4.7s3.8-2.1 2.2-4.7zm21.2-8.4c-1.7-1.7-6-2-9.7-.4-4 1.6-2.9 2.8 3 3 5.4.2 8.4-1 6.7-2.6zm-116.4 14.8c3.7-1.5 8-1.3 9.8.4 1.6 1.7-1.4 2.9-6.7 2.7-6-.3-7.1-1.5-3-3.1zM9.3 1150a29 29 0 0 1 15.3.2c3.4 1.4-.6 2.5-9 2.4-8.4-.1-11.2-1.3-6.3-2.6zm187.9-5a41.7 41.7 0 0 1 17.8 0c4.8 1.2.8 2.3-9 2.3-9.7 0-13.7-1-8.8-2.3zm-42-6.2c4.3-2.4 13.3-6 20.2-8.2 11.5-3.5 11.8-3.2 4.1 4.5a32 32 0 0 1-20 8.1c-9.1 0-10.1-1.1-4.2-4.4zm740.3-.3c-13.6-2.6-13.7-3-3.8-9.1 5.7-3.5 10.3-4.3 10.3-1.6 0 2.6 7.5 5.5 16.5 6.4 15 1.5 15.4 1.9 3.8 4.3a81 81 0 0 1-26.8 0zM13 1133.3a5 5 0 0 1 5.1-5 5 5 0 0 1 5 5 5 5 0 0 1-5 5.1 5 5 0 0 1-5-5zm852.5 1.6c3.7-1.4 8-1.3 9.8.4 1.6 1.7-1.4 3-6.7 2.7-6-.2-7.1-1.4-3-3zM105 1119.4c-2.9-5-5.3-6.3-5.4-3 0 3.2-3.5 5.4-7.6 4.8-9.6-1.4-16.5-8.2-8.3-8.2 3.4 0 5-2 3.5-4.4-1.5-2.4 1.5-8.2 6.6-12.8 7.4-6.7 13.1-7.4 29-3.7l19.9 4.6-25.4 1.3c-15.3.8-20 2.1-11.8 3.4a37 37 0 0 1 19.9 9.7c3.4 4.1 4.2 7.2 1.6 6.7-10.5-2-17.8.6-14.8 5.4 1.7 2.8 2 5 .5 5-1.4 0-4.9-4-7.7-8.8zm51.7-4.8a29 29 0 0 1 15.3.2c3.4 1.3-.6 2.4-9 2.3-8.4-.1-11.2-1.2-6.3-2.5zm85-6.7c0-2.8 2.5-5 5.4-5 3 0 4 2.2 2.2 5-1.7 2.8-4.1 5.1-5.3 5.1-1.3 0-2.3-2.3-2.3-5zm250.3 1.6a29 29 0 0 1 15.3.2c3.4 1.4-.6 2.4-9 2.3-8.4 0-11.2-1.2-6.3-2.5zm-313.7-6.7c1.7-2.9 5.3-3.9 7.9-2.3 7 4.4 5.7 7.4-3.2 7.4-4.3 0-6.5-2.3-4.7-5.1zm35.5 0c-9.7-4.1-9.6-4.3 1.3-4.7 6.2-.2 11.4 2 11.4 4.7 0 2.8-.6 5-1.3 4.8l-11.4-4.8zm57.1 1.5a72.4 72.4 0 0 1 22.9 0c6.3 1.3 1.1 2.2-11.4 2.2-12.6 0-17.7-1-11.5-2.2zm160.2.1a29 29 0 0 1 15.2.2c3.4 1.4-.6 2.4-9 2.3-8.4 0-11.2-1.2-6.2-2.5zm-278.3-11.3c5.6-2.6 7.9-5 5.1-5.2-6.4-.6 8.3-10.3 15.7-10.4 3 0 5.5 3.4 5.5 7.6 0 4.2-2.5 7.6-5.5 7.7-3 0-11.2 1.2-18.2 2.6-11.1 2.2-11.4 2-2.6-2.3zm974 1.3c-3.4-1.4-5-4.7-3.4-7.2 1.6-2.6-5.9-4.6-16.5-4.6-14.4 0-17.4 1.3-11.7 5 5.6 3.6 5.8 5 .9 5-3.7 0-10-3.2-14-7.2-4.3-4.2-13.7-6.4-23-5.2-13.4 1.7-14.8.9-9.4-5.6 4-5 12.8-7 24.6-5.8 10 1 29.8-1 43.7-4.5l25.4-6.2-25.4-1.3c-14-.8-51-.9-82.5-.3-37.1.7-57.2-.8-57.2-4.2 0-3-6.8-5.3-15.2-5.3-8.4 0-15.3 2.5-15.3 5.7 0 4-2 4-7.1-.3-5.8-4.8-7.9-3.9-10.5 4.5-1.9 5.7-7 10.4-11.3 10.4-6.2 0-6.6-1.5-2-7.2 5-5.8 3.2-7.7-9.4-10.1l-31.4-6.1c-12-2.3-15.2-1.4-13.5 3.8 1.5 4.4 10.5 6.9 24.8 6.9 12.3 0 22.4 2.3 22.4 5 0 2.9 1.8 7.8 4 11.1 5.6 9-4.5 12.9-11.4 4.5-3.3-3.9-15-8.6-26-10.5-11-1.9-18.8-5.3-17.4-7.7 1.5-2.3-10.3-2.9-26-1.3-23.3 2.4-28.3 1.6-26.4-4.1 1.3-4 4.9-7.2 7.9-7.2 11.7 0 12.5-7.6.8-8.5-12.8-.9-24-2.3-32.6-4.2-2.7-.6-12.5-1-21.5-1-9.1.1-16.6-2.1-16.6-5 0-3 8.6-4.1 20.8-2.7 13.8 1.6 19 .7 15.6-2.7-7-7-1.5-19 8.7-19 4.6 0 11.4 4.8 15.1 10.7 5 8 8.2 9.3 12.4 5a27.4 27.4 0 0 1 16.8-5.6c6.1 0 12.5-3.4 14-7.6 5.9-15.1 21.8-7.7 19.2 8.9-.9 5.5 8.4 4.7 12-1 1.6-2.7 6.7-3.5 11.2-1.7 6 2.3 7.2 1.3 4.1-3.7-2.7-4.4.1-3.8 8 1.7 14.2 10 20.4 10.8 18.7 2.4-.8-3.8 7.1-6.6 21.6-7.5a591 591 0 0 0 43.1-4.5c31.3-4.8 63.5-6.2 61.3-2.7-1 1.8 29.8 2.3 68.7 1.3l70.7-2v33.8c0 30.2-1.2 34.2-11.4 38.3-10.1 4-5.1 7.9 7.6 5.9 2.1-.4 3.8 5 3.8 12 0 12-1.5 12.7-26.7 12.4-14.6-.3-29.5-1.6-33-3zm44.6-36.7c0-2.5-3.6-6-8-7.7-11-4.1-12.3-3.9-12.3 2.3 0 3 2.2 4 5 2.3 2.8-1.7 5.1-.7 5.1 2.2 0 3 2.3 5.4 5 5.4 2.9 0 5.2-2 5.2-4.5zm-299.8-31c4.2-2.8 5.4-5 2.6-5-2.8 0-8.5 2.2-12.7 5-4.2 2.7-5.3 4.9-2.6 4.9 2.8 0 8.6-2.2 12.7-5zm-572 60c-1.6-2.6-7.5-3.1-13.2-1.3-7 2.2-9.2 1.4-7-2.3 2-3.1 1.1-5.7-1.8-5.7-3 0-5.4 2.3-5.4 5.1s-7.4 4.8-16.5 4.5l-16.5-.6 15.2-3.9c14.2-3.6 13.6-4-7.6-5a204 204 0 0 1-35.6-4.6l-12.7-3.6 16-5.7c12-4.2 18.4-4 25.5.4a46.1 46.1 0 0 0 24.6 4.5c13-1.2 81.7-1 150.8.5 31.7.6 15.6 8.4-17.5 8.4-30.7 0-35.8 6.8-8.9 11.6 7 1.3-1.8 2.6-19.6 3-28.3.6-31.6-.3-26-7 5.2-6.3 4.5-7.6-4.4-7.6-7.1 0-9.7 2.4-7.8 7.3 2 5.5-1.3 7.2-13 6.9-8.7-.3-17.1-2.5-18.7-5zm125 2.3c7-1.3 17.3-6 22.9-10.7 5.6-4.6 8.4-6.2 6.2-3.6s2.4 7.5 10.2 11c12.9 5.6 11.3 6.1-19 5.9-18.1-.2-27.3-1.3-20.3-2.6zm184.3.2a29 29 0 0 1 15.2.2c3.4 1.3-.6 2.4-9 2.3-8.4-.1-11.2-1.2-6.2-2.5zm85-1.6c0-2.8 2.4-5 5.3-5 3 0 4 2.2 2.3 5-1.8 2.8-4.2 5-5.4 5-1.2 0-2.3-2.2-2.3-5zm127 0c0-2.8 3.2-5 7.3-5 4 0 8.7 2.2 10.4 5 1.8 2.8-1.5 5-7.3 5-5.7 0-10.5-2.2-10.5-5zm74.9 1.5a72.4 72.4 0 0 1 22.8 0c6.3 1.2 1.2 2.2-11.4 2.2s-17.7-1-11.4-2.2zm86 0c11.8-1.5 15.5-4.2 13.4-9.6-2.3-6.1 1-6.9 19.4-4 28.1 4.3 31 6.8 9 7.8-14.1.7-12.7 1.5 8 4.3 21 2.9 17.5 3.5-20.3 3.5-25.1 0-38.4-1-29.4-2zm-321.7-9c-1.6-4.3-4.7-6.5-7-5.2-2.2 1.4-9.4.5-16-2-9.1-3.6-4.6-4.7 19.7-4.7 34.5-.1 47.8-4.4 36.3-11.6-4.4-2.8 2-4.4 17.6-4.5 15 0 23.2 1.9 21.2 5-1.7 2.8-.9 5.1 1.9 5.1 2.7 0 9 1.5 13.8 3.4 5.1 2 7.6 1.4 5.9-1.4-1.7-2.7 3.1-4.6 10.6-4.2l31.1 1.4c12.5.6 16 2.4 12 6.3-3 3-34.4 6.2-73.3 7.3-44.3 1.2-67.5 3.7-66.7 7.2 2 8.2-3.8 6.4-7-2.2zm305.2-3.1c-1.5-2.6 3-4.6 10.2-4.6 15.6 0 16.8 2.9 2.8 6.5-5.6 1.5-11.4.6-13-2zm-486.8-3.7c-1.4-2.3 9-4.4 23.1-4.7 14.1-.4 24.7.3 23.6 1.4-4.3 4.3-44.3 7-46.7 3.3zm384.4.6a29 29 0 0 1 15.2.2c3.4 1.4-.6 2.5-9 2.4-8.4-.1-11.2-1.3-6.2-2.6zm-312.6-4.9c3.5-1.4 9.2-1.4 12.7 0s.7 2.6-6.3 2.6-9.9-1.2-6.4-2.6zm54.6-1.7c-8.7-3.8-8.2-4.3 3.9-3.7 7.6.5 14 2.6 14 4.8 0 4.9-4.6 4.6-17.9-1.1zm-22.8-31.4c0-2.6-2.6-3.1-5.9-1.1-3.4 2-4.5 1.4-2.5-1.8 1.8-3 8.5-4.4 14.7-3.2 11.4 2.2 11.4 2.2-.3-3-6.5-2.8-10.3-7.4-8.6-10.2 3.3-5.3 23 4.3 23 11.3 0 2 8.2 3.8 18.3 3.8 15.8 0 17.5-1 12-7.6-4.5-5.5-4.6-7.6-.4-7.6 3.3 0 7.2 3.4 8.8 7.6 1.8 4.7 10 7.8 21.4 8.1 10.2.3 24.3 2.4 31.2 4.7 8 2.7-10.1 4.2-49.5 4-35.7 0-62.2-2.2-62.2-5zm130.2-12c-2.3-5.8-.7-7.7 5.3-6.5 9 1.7 10.8 10.4 2.7 13.1-2.7 1-6.3-2-8-6.5zm-233.6-1.9c-8.6-3.2-8.7-4-1-10.4 6.3-5.2 9.7-5.4 14.2-1 8 8-1.1 15.9-13.2 11.4zm200-5.8c0-3 2.2-4 5-2.3 2.8 1.8 5 4.2 5 5.4 0 1.3-2.2 2.3-5 2.3s-5-2.5-5-5.4z" clip-path="url(#d)" transform="translate(169.8 75.7)"/><path style="fill:#b68895;stroke-width:5.08" d="M-169.9 1705.1c0-231.2 2-269.2 12.7-251.8 6 9.8 11.3 5 8.8-8-1.3-7.2-5.4-14.2-9-15.6-5-2-4.4-4.7 2.3-11.4 10.9-10.9 24.4-11.6 28.3-1.6 2.2 5.7-.3 6.6-11.2 4.1l-14-3.2 11.3 9.8c13.4 11.5 36 9.2 26.2-2.6-4.2-5.1-4.3-7 0-7 3 0 5.6 2.1 5.6 4.7s6.9 6.2 15.2 8c8.4 1.8 15.3 5.3 15.3 7.6 0 3.7 31.3 17 41.5 17.6 1.8.1 5 2 7.2 4 2 2.1 6 3.8 8.6 3.8 2.6 0-.6-4.5-7.2-10-13.6-11.2-7-14 8.4-3.4a86.9 86.9 0 0 0 24 10.2c7.5 1.8 22.1 9 32.4 16a91.1 91.1 0 0 0 23 12.6c2.4 0 4.3 3.5 4.3 7.6 0 4.2 2.3 7.7 5.1 7.7s5 2.5 5 5.5 4.4 11.7 9.6 19c5.2 7.5 11.1 18.8 13.1 25.2l3.6 11.7-19.4-8a126.7 126.7 0 0 1-35.3-24.4 1206 1206 0 0 0-35-34.1l-19-17.8 9.5 16c5.2 8.9 22.6 30.9 38.7 48.9 16 18 29.2 34.5 29.2 36.5 0 6.6-27.4-2.6-38.3-12.7-10.2-9.5-10.3-9.5-10.3 1 0 7.4 5.3 13 16.7 17.8 14.8 6.2 23 17 12.9 17-5.7-.1-27-15.7-47-34.3-9.6-9.1-21.4-16.5-26.1-16.5-4.8 0-12.4-1.5-17-3.2-6-2.4-4.8 2 5 16.4 14.2 21 9.3 30-8 14.4-9-8-9.8-8.1-9.8-.5 0 4.6-2.3 8.4-5 8.4-8.5 0-5.8 14.4 3.7 19.7 4.8 2.7 7 6.8 4.6 9.2-2.3 2.3-8-.5-12.6-6.2-10-12.2-57.6-49-60.1-46.4-2.7 2.7 34.5 40.4 52.8 53.3 9.1 6.5 18.6 10.4 21 8.9 4.4-2.7 14.4 5.9 15.7 13.5 3.9 22 30 58.7 37 51.7 1.7-1.6 7 3.5 11.8 11.5a737 737 0 0 0 18.6 28.7c12.8 18.7 7.3 24.4-6.5 6.8-5.9-7.5-13.7-13.5-17.5-13.5-3.8 0-12.1-7.4-18.4-16.5-17.5-25.2-51.8-59.7-59.3-59.7-3.8 0-5.1-2.6-3.1-5.9 2.3-3.7 1.4-4.5-2.5-2-3.3 2-11.6 0-18.4-4.4-6.7-4.4-15.2-8-18.8-8-4.6.1-4.2 1.6 1.1 5 5 3.3 5.5 5 1.3 5-3.5 0-6.4 2.5-6.4 5.4 0 3 4 4.7 9 3.8 4.8-.8 8.3 1.3 7.6 4.6-.6 3.3 4.7 10.7 11.9 16.3 7.2 5.6 11.6 12.6 9.8 15.5-4.5 7.2 20.7 39.2 33.4 42.5 8.1 2.1 9.7.9 7.3-5.8-1.8-4.7 5.8 1.2 16.8 13 21.3 23.2 40.8 50.4 32.1 45-9.7-6-11.3 6.4-1.7 13.1 5.3 3.7 16.6 20.5 25.3 37.2 8.6 16.8 15.8 27.6 16 24.2.6-16.4 35.7 8.7 35.7 25.4 0 4.2 3.5 10.4 7.6 14 9.1 7.5 9.8 3.3 2-11.8-5.2-10-4.2-9.7 8.8 2.2 13.7 12.5 33.3 24.8 39.6 24.8 1.4 0 1.4-3.5-.3-7.7-1.6-4.1-5.6-7.6-8.8-7.6-3.3 0-19-13.7-35-30.6-27.4-28.8-35.6-40-24-32.9 2.8 1.8 5.1-2 5.2-8.6 0-9.2 2.9-6.7 13.3 12 8.4 15.2 15.7 22.8 20.2 21 4.2-1.5 7 .7 7 5.7 0 4.6 4 9.8 8.9 11.7 12.5 4.6 46.7 32.5 45.5 37-.6 2 4.6 8.5 11.6 14.4l12.7 10.6-12.7.8c-7 .4-15 .3-17.8-.2-2.7-.5-2.3 1.8 1 5.2 3.4 3.5 14.4 6.8 24.5 7.5 10 .7 19.7 2.6 21.4 4.3 1.7 1.7-24.6 3-58.4 3-35.5 0-62.8-2-64.7-5-1.7-2.8-5.4-5-8.2-5-2.8 0-3.6 2.2-2 5 2.2 3.3-41.3 5-126.6 5H-170Zm298.4 222.7c-1.7-1.7-6-1.9-9.7-.4-4 1.6-2.9 2.8 3 3 5.4.3 8.4-.9 6.7-2.6zm-95.2-22.3c-8.8-7-10.3-10.1-5-10.5 5.2-.3 5.6-1.3 1.2-3a11.2 11.2 0 0 1-6.3-9.7c0-6.3-5.8-8.7-36.5-14.6-5.5-1.1-7.5.8-5.8 5.3 1.5 4 5.5 7 8.8 7 3.4 0 13.9 8 23.3 17.9 9.5 9.7 20.8 17.7 25.2 17.6 5.5 0 4-3-4.9-10zm34-13.5c-1.6-1.5-5.5-1.1-8.8 1-4.4 2.6-4.1 4.7 1 7.9 6.8 4.2 13.3-3.4 7.7-9zm-107.1-7.6c2.2-3.6 1.4-4.5-2.2-2.3-3.1 2-11 .8-17.3-2.6-10.4-5.6-10.8-5.4-4.5 2.3 8 9.8 18.8 11 24 2.6zM.3 1846c-6.6-19.1-27-44.7-32-39.9-1.4 1.5 1 6.7 5.4 11.6 4.4 5 9.6 15.3 11.6 23 2.7 11 12.3 22 20.8 23.9.4 0-2.3-8.3-5.8-18.6zm-106.4-41.9c-1.9-3-5.8-5.4-8.8-5.4-3.4 0-3 3 1 7.7 7 8.4 13.2 6.6 7.8-2.3zm78.4-23.3c-3.5-4.3-7.8-6.4-9.4-4.8-1.6 1.6.4 5 4.6 7.7 10.7 6.8 12.1 6 4.8-2.9zm-73.6-73.5c-1.7-2.8-5.4-5.1-8.2-5.1-2.8 0-3.7 2.3-2 5 1.8 2.9 5.5 5.1 8.3 5.1 2.8 0 3.7-2.2 2-5zM267 1951.9c0-2.4-6.3-10.7-14-18.5l-14-14 15.3 8.1c31.8 17.2 41 28.8 22.9 28.8-5.6 0-10.2-2-10.2-4.4zm48.2-4.7c3.7-9.7-22-41.7-33.5-41.7-5.3 0-9.6-3-9.6-6.7 0-4.2 5.5-6.2 15.2-5.5 8.4.5 14-1 12.4-3.6a5.6 5.6 0 0 0-7.7-1.7c-2.6 1.6-6.2-4.2-8-13-2.2-11.3-5.3-15-10.8-12.9-6.6 2.6-6.6 1.8-.5-5.7 4.6-5.8 4.9-7.5.7-5-3.5 2.2-6.4 1.5-6.4-1.5s-3-5.4-6.7-5.4c-6.6 0-28.8-20.5-28.8-26.7 0-1.7 8-1.8 17.7-.2 11.8 1.9 17.8.9 17.8-3 0-7-5.3-9-33-13.4l-27.2-4.5c-3.8-.6-9-5-11.7-9.7-2.6-4.7-8.7-8.5-13.4-8.4-6.8 0-6 2.2 4 9.8 7 5.3 11 11.4 9 13.4-7.5 7.4-52.2-17.3-106.9-59.2-16.9-13-30.9-38.3-26.9-48.8 3.7-9.6-5.5-27-14.3-27-3.7 0-15.4-7-26-15.3-22.5-18-25-18.7-17.8-5.2 4.1 7.7 3.9 9.4-1 7.4-3.6-1.4-10.8-11-16-21.5l-9.4-18.8 10.7 9.7c11 10 15.3 4.6 4.7-6-9-9-3-11.7 10.8-4.7a65.2 65.2 0 0 1 21.6 24.6c13.9 26.8 48.8 34.7 35.7 8.1-3-6.3-7-16.7-9-23.3-3-10.8-2.3-11.3 7.5-6 5.9 3 13.4 10 16.6 15 3.2 5.3 8.8 8.4 12.4 7 4-1.5 11 6.6 18 20.8 6.2 12.9 13.7 23.4 16.6 23.4 3 0 9.2 9.2 13.8 20.3 5.8 13.7 11.7 20.3 18.4 20.3 5.3 0 16.1 6 24 13.1 11.3 10.6 17.3 12.6 30.7 10 15.5-2.9 17-1.9 22.5 14.9 3.3 9.8 8.6 18.2 11.9 18.5 22.1 2.2 38.1 4 49.1 5.4 9.8 1.2 12.4-.5 11.2-7.3-2.3-14.1 7.1-10.5 30.5 11.9 32.5 31 36 33.5 49.8 37.3 12.1 3.3 12.3 3 2.9-4.4-5.4-4.3-8.7-9-7.2-10.4 1.4-1.4 7.9 3.1 14.4 10 6.6 7 13.8 12.8 16 12.8 2.2 0 13.5 9.7 25.2 21.6 11.7 11.8 18.3 17.5 14.7 12.5-8.5-11.7-3.5-16.6 6.7-6.4 4.3 4.3 10.6 7.8 14 7.8 8.8 0-9.8-19.7-27-28.6-7.7-4-14-9.7-14-12.8 0-3.7 2.5-3.4 7.6.8 11.9 9.8 9 1.1-6.3-19.2l-14-18.6L436 1806c10.5 8 18.5 18 17.8 22.5-.7 4.4 2.6 8.9 7.5 9.9 6.6 1.3 8.1-.6 5.9-7.5-2.1-6.5 0-5.5 7.5 3.5a47 47 0 0 1 10.7 18.9c.2 12 41 51.1 50.7 48.6 6.1-1.6 8.3-5.6 6.6-12-1.4-5.4-4-9.8-5.8-9.8-4 0-25.8-22-46.2-46.4-14-16.7-20.3-34.9-12.2-34.9 5.2 0 44.2 36.3 56.4 52.6 9.2 12.4 11.8 13.6 14.4 6.8 2-5.2-2.7-15.5-12.5-27.4-8.7-10.5-15.8-21.6-15.8-24.8 0-8.7-24.3-33.1-26.5-26.6-1.4 4-5.3 3.8-13.9-.8-10.5-5.6-11.5-5.4-8.6 2.3 2 5.4 1.1 7.9-2.6 6.6-3.2-1-6.4-5.5-7-10-2-13.5-16.3-31.3-39.9-49.8-12.4-9.8-23.7-21.8-25-26.7-3.1-11 3.3-11.5 12-1 6 7.3 7 7.3 11.1 0 3.1-5.6 1.3-12.1-5.9-21.3-5.7-7.2-9-15.3-7.4-18 3.7-6 20.2 8.5 31.4 27.5 11.5 19.4 15.8 17.6 12.7-5.4-2.5-18.9-2.1-19.5 12.8-19.5 10.7 0 16.2 2.9 17.9 9.4 3 11.8 18.5 12.2 19 .4.3-5.3 1.4-6.4 3-2.6 1.4 3.5 4.7 6.4 7.3 6.4 2.6 0 1.3-8-2.7-17.8-7-16.5-6.8-17.8 1.8-17.8 5.3 0 10.6 4.8 12.2 11 2.4 9.2 4.2 10 10.6 4.6 6.3-5.2 10.3-4.5 22.4 4.1 8.1 5.8 16 9.2 17.6 7.6 1.6-1.6 8 2 14.4 7.8a45.7 45.7 0 0 0 15.1 10.6c7.2 0 10.9-40.7 4.4-48.4-5.6-6.8-3.3-9.6 6.5-8 6 1 4.5-6.4-3.8-18.3-12.8-18.2 1.5-19.7 19.8-2 19.7 19.1 23.4 19.6 23.4 3 0-19.8 12.7-20.4 41.3-2 23.8 15.3 26.6 16 32.3 8.1 7.6-10.3 23-11.3 23-1.5 0 4 3.4 8.4 7.5 10 10.5 4 9.7 13.4-1.2 13.5-7.2 0-6.3 2.2 4.4 11.4a63.2 63.2 0 0 1 16.4 20.3c1.6 4.9 5.3 8.9 8.2 8.9 6.8 0 6.9-18.8.2-22.9-2.8-1.7-5-5.8-5-9s10.8 5 24.2 18c13.4 13.3 26.5 24 29.3 24 2.7 0 8 5 11.9 11.1 5.9 9.5 7.8 10 12.6 3.7 6.5-8.4 15.5-9.4 21.8-2.5 2.5 2.7 1.6 3-2.1 1-3.9-2.3-6.3-.8-6.3 3.8 0 4.1-2.9 8.4-6.3 9.6-5 1.6-4.8 5.3.6 17 3.9 8 7.6 12.5 8.4 9.7.8-2.8 2.8-11.3 4.5-19 2-9.4 5.4-12.8 10.6-10.8 4.1 1.6 6 5.5 4.2 8.7-2.4 4.3-1.6 4.4 3 0 4.9-4.4 2-14.2-12.9-44.4-10.5-21.3-21.1-38.7-23.6-38.7-2.4 0-2.7 2.9-.6 6.4 2.6 4.3 1 4-4.8-.6-4.7-3.9-8.6-9.5-8.6-12.5s-6.1-14.4-13.7-25.3a134 134 0 0 1-15-25.6 302 302 0 0 0-4.6-17.3c-2.5-8.5-1.3-11.4 4.8-11.4 12 0 10-12.7-3.2-22-9.3-6.6-10.1-9-4.3-12.9 4.1-2.8 5.7-8.4 3.7-13.5-2.6-6.8-1.2-8.2 6.5-6.1 5.8 1.5 11-.4 12.7-4.5 3.6-9.6 23.3-9 23.3.5 0 4.2 2.5 7.7 5.6 7.7 7.2 0 1.1-26.3-7.3-31.7-4.5-2.8-4.4-3.8.1-3.8 3.4 0 7.5 2.2 9.2 5 1.8 2.8 5.5 5 8.2 5 6 0-9.1-28-22.6-42-13.6-14-7.8-15.4 18.6-4 13.8 5.9 24.7 8 26.5 5.2 1.6-2.7.5-4.9-2.4-4.9-3 0-5.4-2.3-5.4-5.2 0-3.5 3.6-3.4 10.6.4a98 98 0 0 0 24.1 8.1c7.5 1.3 21 6.7 30 12 16.9 10 24.4 7.5 16.3-5.3-2.6-4-4.7-9-4.7-11-.2-7.4 29 7 48.3 24 21.5 18.6 27.8 21.3 27.8 11.7 0-3.3 5.4-.9 12 5.3s14.9 10.6 18.4 9.8c3.5-.8 7.6 1.7 9 5.6 1.5 4 .3 5.6-2.8 3.7-3-1.8-7-.7-9.1 2.6-2.6 4.1-.3 5.1 7.2 3.1 6.2-1.6 15.8.8 22.4 5.6 19.9 14.5 33.8 21 44.4 21 5.6 0 10.2 2.8 10.2 6 0 3.3 1.5 4.5 3.3 2.7 1.7-1.7 7.4-.9 12.7 1.9 6.4 3.4 9.4 3.4 9.4-.2 0-2.9 2.3-5.2 5.1-5.2 3.3 0 5.1 74.5 5.1 213.3v213.4H770.2c-272 0-417.3-1.8-419.4-5-1.7-2.9-6.5-5.2-10.7-5.2-4.2 0-6.2 2.3-4.5 5 1.8 3-2.4 4.7-10 4-8.6-.7-12.2-3.4-10.4-8zm63.6-3.3c0-9.2-13.9-23.2-23-23.2-4 0-15.3-4.6-25.3-10.2l-18.1-10.1 5.4 10.1c3 5.6 8.8 10.2 13 10.2 4 0 7.3 3 7.3 6.7s7.5 10.3 16.6 14.6c21.7 10.4 24 10.6 24 2zm5-72.7c0-7-1-7.4-4.5-2-3 4.8-5.4 5.2-7.8 1.3-2-3.1-10.8-5.5-19.7-5.3l-16.2.4 17.8 6.9c24.3 9.3 30.5 9 30.4-1.3zm-50.7-5.5c0-6.6-6-11-11-8-5.2 3.3-.7 12.2 6.2 12.2 2.6 0 4.8-1.9 4.8-4.2zm-33-11c-10-11-17.8-13.2-17.8-5 0 3 5.1 7.4 11.4 10 16.3 6.5 16.6 6.3 6.3-5zm7.6-30.2c0-6-10-12.4-13.6-8.8-3.6 3.7 2.8 13.6 8.8 13.6 2.6 0 4.8-2.2 4.8-4.8zm0-23.5c0-4.3-2.4-6.4-5.2-4.7-2.8 1.8-3.8 5.3-2.2 8 4.3 7 7.4 5.7 7.4-3.3zm-89.3-37.2c1.5-2.5-2.2-5.8-8.4-7.4-12.8-3.3-16.6-1.3-11.8 6.5 4.1 6.6 16.4 7.1 20.2 1zm711.6-10.7c5.4-8.7-2.5-15.7-10-8.9-6.9 6.5-5.7 14 2.3 14 2.5 0 6-2.3 7.7-5.1zm-759.5-12.2c0-1-3.5-3.3-7.9-5-4.5-1.7-6.5-.9-4.8 2 3 4.8 12.7 7.1 12.7 3zm731.5-79.3a5 5 0 0 0-5-5 5 5 0 0 0-5.1 5 5 5 0 0 0 5 5.1 5 5 0 0 0 5.1-5zm-55.9-61c0-2.7-2.4-5-5.3-5-3 0-4 2.3-2.3 5 1.8 2.9 4.2 5.2 5.4 5.2 1.2 0 2.2-2.3 2.2-5.1zm0-57.8c0-1-6.2-6-14-10.9l-13.9-9 9.7 11c8.6 9.6 18.2 14.4 18.2 9zm42.4-46.5c-1.6-4.3-4-6.7-5.4-5.4-1.3 1.3-.9 4.9 1 7.8 5 8.2 7.9 6.6 4.4-2.4zm-700.2 399c-1.7-2.8-.7-5 2.2-5 3 0 5.4 2.2 5.4 5s-1 5.1-2.2 5.1c-1.3 0-3.7-2.3-5.4-5zm39.5-34.9a72.2 72.2 0 0 1-16.2-19.7c-6.8-13.1-12.6-14.3-21.8-4.5-5.5 5.9-8.3 5.8-18-.6-6.3-4-11.5-11.8-11.5-17 0-6.2-3.5-9.6-10.1-9.6-11.9 0-13.6 7.7-2.6 12a8 8 0 0 1 4.7 10.2c-1.6 4.1 1.9 12.2 7.7 18 14.7 14.8 6.5 13.2-17.5-3.4-18.6-12.8-19.3-14-8.5-15.6 9.5-1.4 10.6-3 5.7-9-3.3-3.9-7.9-7.2-10.2-7.2-2.3 0-9.8-5.1-16.7-11.4a583.5 583.5 0 0 0-20.9-18.3c-4.6-3.8-7.2-8-5.7-9.6 1.5-1.5 6.6.4 11.3 4.3 7.6 6.3 8 5.8 4.6-5.1l-3.9-12.2 16.1 11.5c8.9 6.3 14.9 12.7 13.4 14.3-5 4.9 8.2 16.4 18.7 16.4 5.6 0 18.3 5 28.3 11.1 11.2 7 18.7 9 19.9 5.6 1-3 10.3 2.2 20.6 11.7 10.4 9.5 22.4 17.3 26.7 17.3 8 0 20 9.4 20 15.6 0 6.7-23.9 3.3-34.1-4.8zM49 1804.7c-8.3-15.6-6.6-19.9 2.6-6.7 4.5 6.4 7 12.8 5.5 14.3-1.4 1.4-5-2-8.1-7.6zm25-5.9c-3.5-6.5-3.6-10.2-.4-10.2 2.8 0 7.6 4.6 10.5 10.2 3.5 6.5 3.7 10.2.4 10.2-2.8 0-7.5-4.6-10.5-10.2zm340.9-19.8c-17.3-16.1-20-24.2-8.1-24.2 4.2 0 7 3.4 6.3 7.7-.7 4.2 6.5 13 16 19.4 9.6 6.6 13.7 11.8 9.4 11.8-4.3 0-15-6.6-23.6-14.7zm-383.7-3.4c-11-11-10-13.8 2.1-7.3 5.6 3 10.2 7.7 10.2 10.4 0 6.9-3.1 6-12.3-3.1zm33.1-8.8c-6.4-10.7-6.3-10.8 2.5-2.4 5 4.8 8 9.9 6.7 11.2-1.3 1.3-5.5-2.6-9.2-8.8zm308.2 5.3c-4.5-3.5-13-15-18.9-25.8-10.6-19.3-10.6-19.5-.6-22.1 9.4-2.5 9.6-3.5 2.1-14.8-4.4-6.7-11.9-12.2-16.6-12.2-8 0-30.8-19.6-30.8-26.4 0-9.1 16.2-6.8 27.8 3.9 7.3 6.8 16.9 12.3 21.2 12.3 4.3 0 13.6 4.6 20.7 10.2s11.2 10.2 9 10.2c-2 0-1.1 3.1 2 7 4.5 5.4 4.2 7.7-1.5 9.9-4.1 1.5-8.4 0-9.6-3.3-1.2-3.3-3.9-4.4-6-2.5-2 2 1.3 10.6 7.5 19.3 6.2 8.7 10.2 17 8.9 18.2-3.6 3.6-19-3.4-19-8.5 0-2.5-2.4-4.6-5.3-4.6-10.1 0 4.9 19.6 16.3 21.3 12.2 1.8 19.3 14.3 8.1 14.3-3.9 0-10.8-2.9-15.3-6.4zm64.7-3.8c-5-5.6-6.9-10.1-4.1-10.1 2.8 0 9.2 4.5 14.3 10.1 5 5.6 6.9 10.2 4 10.2-2.7 0-9.1-4.6-14.2-10.2zm-182.9-5c-5-5.6-7.5-10.2-5.5-10.2 7.2 0 23.3 10.6 23.3 15.4 0 8-8 5.6-17.8-5.3zM8.1 1745.5c-4-4.8-4.4-7.8-1-7.8 6 0 13.2 9.7 9.7 13.2-1.3 1.3-5.2-1.2-8.7-5.4zm300.3-8c-9.4-5.8-15.8-11.7-14.3-13.3 2.8-2.8 39 17.3 39 21.6 0 4.5-8.3 1.7-24.7-8.3zm-117.6-20.9c-7-2.6-16.9-9.7-22-16-7.6-9-8.8-9.3-6.4-1.9 2.2 7 .7 8.9-5.9 7.6-6.3-1.2-9-6.9-9.4-19.5-.7-22.7-24.8-69.4-44.7-86.4-8.6-7.4-16.8-30.3-10.8-30.3 1.2 0 8 2.7 15.2 5.9 9.2 4.2 13 9.8 13 19.7 0 9.2 4.2 16.7 12.6 22.2 7 4.6 12.7 11.3 12.7 15 0 3.7 4.6 10.9 10.2 16 9.1 8.2 10.1 8.3 10.1.7 0-11.7 13.5-10.5 16.7 1.5 1.7 6.7 5.6 9 12.4 7.2 9.7-2.5 20.6 8.9 28.2 29.7 2.3 6.1 1 7.8-4.2 5.8-4-1.6-7.4-5.8-7.4-9.3 0-3.6-3.4-9.3-7.6-12.8-9-7.4-9.7-3.4-2.1 11 9.4 17.6 0 17.1-14.9-.8-9.6-11.5-15.5-15.1-18-11.1-2 3.3-1.4 6 1.3 6 5.4 0 38.7 40 35.6 42.8-1 1-7.6-.4-14.6-3zm108.3-16.5c-7.9-6.8-12.8-13.8-11-15.6 1.8-1.8 10.5 3.7 19.2 12.3 18.9 18.4 12.3 21-8.2 3.3zm-69.7-6.3c-1.8-4.6-2.1-9.5-.7-10.8 4-4 18.2 9.7 15.1 14.7-4.3 7-11 5.3-14.4-3.9zm202.7-52.6c-1.7-2.8-.7-5 2.3-5s5.3 2.2 5.3 5-1 5.1-2.2 5.1c-1.2 0-3.6-2.3-5.4-5zM236.5 1616c-4-2.5-6.1-5.6-4.7-7 1.4-1.4 5.8-.5 9.8 2 4 2.4 6.2 5.6 4.8 7-1.4 1.4-5.8.5-9.9-2zm-76.3-17.9c-9.8-11.8-2.8-14 7.7-2.4 5.1 5.6 6.9 10.2 4 10.2-2.9 0-8.1-3.5-11.7-7.8zm-44.3-31.2c-7.3-2.9-8.6-11.8-1.8-11.8 2.5 0 5.8 3.4 7.4 7.6 1.7 4.2 2.5 7.4 1.9 7.2l-7.5-3zM99.4 1531c0-7.4 1.1-7.7 12.3-3.4 11.4 4.3 10 11.6-2.2 10.7-5.5-.4-10.1-3.7-10.1-7.3zm1072.4-13.5c-6.8-8.2-2-24.8 6.4-22 7 2.3 10.9 29 4.2 29-2.6 0-7.4-3.2-10.6-7zM76.5 1504.2c-5-5.6-6.9-10.2-4-10.2 2.7 0 9.1 4.6 14.2 10.2 5 5.6 6.9 10.1 4.1 10.1-2.8 0-9.2-4.5-14.3-10.1zm947.6-48.2c-4-4.8-4.4-7.7-1-7.7 6 0 13.2 9.6 9.7 13.1-1.3 1.3-5.2-1.1-8.7-5.4zm27.8-7.7c-1.7-2.8-.9-5 2-5 2.7 0 6.4 2.2 8.1 5 1.8 2.8.9 5-1.9 5s-6.5-2.2-8.2-5zm-951.2-20.8c-6.3-2.3-11.5-7.9-11.5-12.2 0-4.4-3.4-9.3-7.6-10.9a12.4 12.4 0 0 1-7.6-10.5c0-4.9-3-6.5-8-4.6-4.6 1.8-15.2-2.8-25.3-10.9-32.7-26-16.8-29.8 24.2-5.8 14.8 8.7 27.6 17.9 28.6 20.3.9 2.5 6 4.6 11.4 4.6 6.5 0 9.7 3.5 9.7 10.7 0 8-2.2 10-8.9 7.6-7.4-2.6-7.3-1.9 1 4.5 12 9.4 9.1 13-6 7.2zm1001.7-16c-1.9-6.3-7-15.5-11.3-20.4-10.2-11.6-1.9-11.2 13.7.8 14.1 10.9 19.5 31 8.4 31-4 0-8.9-5.2-10.8-11.4zm36.2-9.3c-17-17.5-17.3-18.3-7.7-25.2 5.4-4 9.9-10.2 9.9-14 0-3.8 2.5-5.2 5.8-3.2 4.1 2.6 4.8-.4 2.4-10-3.3-13.1-2.9-13.5 8.1-7.4a39.6 39.6 0 0 0 20.5 5c7.8-1.2 9 3.3 9 36.3v37.7l-15.3-.5c-10.2-.4-20.8-6.4-32.7-18.7zm-30.6-34.8c-1.6-2.6-.6-6.2 2.2-8 2.9-1.7 5.2.4 5.2 4.8 0 8.9-3 10.2-7.4 3.2zm-91.5-5.1c-5-8.3 6-10.8 12.6-2.9 5 6.2 4.8 7.6-1.7 7.6-4.4 0-9.2-2.1-10.9-4.7zm-1043-13c-9-7.5-16.4-11.8-16.6-9.4 0 2.3-3.6-2-7.7-9.7-4.2-7.7-9.6-14-12-14-2.4 0-5.6-3.3-7.1-7.2-2.3-6-.1-6.4 12.2-2 8.2 2.8 18.5 3.8 22.8 2.2 4.3-1.7 6.6-1 5 1.4-1.4 2.5.7 7.3 4.9 10.7 6.2 5.2 7.5 4.7 7.5-2.6 0-7.3 3.2-8.4 17.3-6.1 14.4 2.3 17.8 1 20-7.4 2-7.7 5.3-9.4 13.2-6.9 6.1 2 10.5 1.1 10.5-2 0-7 51.9 20.4 54.7 28.8 1.1 3.5-2 6.3-6.8 6.3-8.1 0-8 1 .9 11 9.6 10.9 9.6 10.9-4.2 7.5-11-2.7-13.2-1.8-10.9 4.3 3.7 9.5.1 9.7-17.4.7-17.6-9-52.7-14.6-60-9.5-3 2-6.6 7-7.8 10.8-1.6 5-6.5 3.3-18.5-6.8zm1023.8 5.3c-4.8-3.5-7-8.4-5-10.8 2-2.4 0-1.6-4.5 1.8-10.5 8-21.7-2.8-14.7-14.1 3.7-6 6.7-5 16.4 5.6 6.6 7 14.7 12 18.1 10.8 3.4-1.1 6.2.3 6.2 3.1 0 8.8-7.3 10.4-16.5 3.6zm168.9-12.4c0-2.8 2.3-6.5 5-8.2 2.9-1.7 5.1-.9 5.1 2 0 2.7-2.2 6.4-5 8.1-2.8 1.8-5.1.9-5.1-1.9zm-1011-8.5c-7-3.8-17.8-7-24-7.2-6.3 0-11.5-2-11.5-4.4 0-2.4-5.1-6.8-11.4-9.9-11.2-5.4-11.2-5.5 2.5-5.8 9.8-.3 14 2.2 14 8.1 0 4.7 1.3 7.1 3 5.5 1.6-1.6 10.7.3 20.2 4.3a132 132 0 0 0 20 7.2c3 0 4.1 5.1 1.7 7.6-1 1-7.5-1.5-14.4-5.4zm-12.6-22.6c-1.8-2.8.3-5 4.5-5 4.1 0 9 2.2 10.7 5 1.7 2.8-.3 5.1-4.5 5.1s-9-2.3-10.7-5zm-312.4-145.7c0-17.3 1.5-22.2 4.9-16.9 3.8 6 6 6.3 11 1.3 7.6-7.5 29.8-8.5 29.8-1.2 0 2.8-2.9 5.3-6.4 5.6-3.5.2-.6 2.1 6.4 4.2 7 2 19.2 1.4 27.2-1.2 8.6-3 15.8-3 17.8-.3 1.8 2.5 14 4.3 27.1 4 23.1-.5 39.8 4.5 34 10.2-4.1 4.1-25.4 4.3-40 .3-8.7-2.3-10.6-1.9-6 1.4 10 7.1.4 9.3-47.4 10.6a353 353 0 0 0-49.6 3.8c-7.6 2.3-8.8-.8-8.8-21.8zm73.6 8.6c-1.7-2.8-5.4-5.1-8.2-5.1-2.8 0-3.7 2.3-2 5 1.8 2.9 5.5 5.1 8.3 5.1 2.8 0 3.6-2.2 2-5zm1265 5c13.9-6 22-6 12.6 0-4.2 2.8-11 4.8-15.2 4.7-5-.2-4.2-1.8 2.5-4.7zm-63.6-2c0-4.8 15.2-7.2 18-2.8 1.6 2.7-1.8 4.8-7.5 4.8-5.8 0-10.5-.9-10.5-2zm29.6-1.4c3.6-1.5 8-1.3 9.7.4 1.7 1.7-1.3 2.9-6.7 2.6-5.9-.2-7.1-1.4-3-3zm31.7-11.6c-9-5.6.2-9.8 12-5.5 8 2.9 8.4 4 2.1 6.5a18.1 18.1 0 0 1-14.1-1zm-90.5-3.6c5-1.3 9-4.5 9-7.1 0-2.6 2.3-4.7 5.3-4.7s3.7 2.6 1.7 6c-3.6 5.7-2.1 5.4 22.2-4.5 3.8-1.6 5.3 0 3.7 4.2-1.6 4.4-11.7 7.3-26.7 7.8-13.2.4-20-.3-15.2-1.7zm63.5 0c3.5-1.4 9.2-1.4 12.7 0s.7 2.6-6.3 2.6-9.9-1.2-6.4-2.6zm-70.8-10.2c3.7-1.5 8-1.3 9.8.4 1.6 1.7-1.4 2.9-6.7 2.6-6-.2-7.1-1.4-3-3zm-1233.1-16.7c-2.8-1.7-5-18.3-4.8-36.9l.2-33.8 16.1-1.6c21-2 20.7-11.2-.4-13.3-15.8-1.5-16.6-2.6-16.6-22.9v-21.3l47 .2c25.9.2 51.6 2.1 57.2 4.4 19.8 8 24.2 8.3 31.2 2.5 5-4 17.8-4.8 41.3-2.2 44.2 4.8 56.9 4.2 66-3.4 7.7-6.4 37.2-5.9 41.8.7 3.2 4.4 60.6 5.8 71.1 1.7 17.1-6.7 120.7-8.6 128.5-2.4 3.4 2.7 17 6.5 30.4 8.4 13.3 2 22.9 5.7 21.3 8.3-1.6 2.6 0 4.9 3.7 5 3.7.2 1 2.6-5.7 5.3-6.8 2.7-30 3.9-51.5 2.5-21.5-1.3-40.5-1.1-42 .5-5.3 5.2-86.2 2.4-114.4-4-22.6-5-27.9-5-31.6 1-3.2 5-4.6 5.3-4.6.8-.1-8-59-8.8-63.8-.9-2 3.2-9 4.1-16.9 2-7.3-1.8-27-4.1-43.9-5-29.6-1.8-30-1.7-11.8 4.2 29.6 9.6 27 11.7-15 11.8-21.5 0-52.8 1.9-69.5 4-29 3.8-29.8 4.2-17.8 10.8 8.7 4.8 23.6 6.1 48.9 4.3 23.4-1.7 37.5-.7 39.7 2.9 2 3 1.6 5.2-.7 4.8-7.9-1.2-27 6.7-27 11.2 0 2.5-2.5 4.5-5.5 4.5s-4-2.3-2.2-5c1.7-2.9.7-5.2-2.3-5.2s-5.3 2.3-5.3 5.1-6.9 5.1-15.3 5.1-15.2 2.3-15.2 5c0 2.9-2.4 5.2-5.4 5.2-3 0-4-2.3-2.3-5 1.8-3-.2-3.8-4.7-2-10.2 3.8-10 7.8 1 20.2 14.3 16.2 13 22.3-5.1 22.7-9.1.3-21.6 1-27.8 1.7-6.2.7-13.5-.1-16.3-1.9zm37.5-17.2c7.8-5.6 8.1-7.6 2.3-11.3-4-2.4-13.6-4.6-21.5-4.8-13.2-.3-13.6.2-5 6.6 5 3.8 8.6 9 8 11.6-1.9 6.8 5.4 5.9 16.2-2zm40.9-4.7c-11-6.7-16-19-7.7-19a5 5 0 0 1 5.1 5.2c0 2.8 6.8 5 15.1 5 12.1 0 14.4 1.7 11.8 8.7-2 5.4-4.1 6.3-5.4 2.5-1-3.3-4.2-6-7-6-2.7 0-3.5 2.2-1.8 5 4 6.4 2.5 6.2-10.1-1.4zm72.7 3c3.6-1.5 8-1.3 9.7.4 1.7 1.7-1.3 2.9-6.7 2.7-5.9-.3-7-1.5-3-3zm-39.7-12c0-2.3-4-5.1-8.9-6.4-7.3-2-7-2.4 1.3-2.4 5.6 0 15.8 1.5 22.8 3.5l12.7 3.7-14 2.7c-7.6 1.6-14 1-14-1.2zm38 .2c1.8-2.7 5.5-5 8.3-5 2.8 0 3.7 2.3 2 5-1.8 2.8-5.5 5.1-8.3 5.1-2.8 0-3.6-2.3-2-5zm360.5-15.7c-4.2-6.8 12-9 20.5-2.7 7.6 5.5 7 6.3-4.9 6.3-7.4 0-14.4-1.6-15.6-3.6zm94.2.5c0-6.4 5.4-6.4 15.3 0 6.2 4 5.4 5-3.8 5-6.3 0-11.5-2.2-11.5-5zm386.1-.3c0-3 2.3-4 5.1-2.2 2.8 1.7 5 4.1 5 5.3 0 1.3-2.2 2.3-5 2.3s-5-2.4-5-5.4zm-538.5-9.4c0-2.5 4.6-3.4 10.2-2 5.6 1.5 10.2 3.6 10.2 4.7 0 1-4.6 2-10.2 2s-10.2-2.1-10.2-4.7zm-302.2-5.5c-6.7-3-7.6-4.5-2.6-4.7 4.2-.1 11.1 2 15.3 4.7 9.3 6 1.3 6-12.7 0zm236.2.4c-16-3-16.7-3.8-6.4-7.3a24.3 24.3 0 0 1 22.7 4c12 8.4 11.6 8.5-16.3 3.3zm882.7 1.3c3.5-1.4 9.2-1.4 12.7 0s.6 2.5-6.4 2.5-9.8-1.1-6.3-2.5zM77.8 1058.6c-4.9-1.2-8.9-5.3-8.9-9 0-10.3 16.4-12.2 27-3.2 6.4 5.4 10.2 6 12.7 2.1 2.5-4 7.7-3.9 18.7.7l15.3 6.4-15.3 2.7c-18 3.3-37.2 3.4-49.5.3zm83.9-12.3c-.6-7.9 1.3-8 20.6-1.7 11.7 3.7 25.8 7.9 31.4 9.2 5.6 1.3-3.7 2-20.6 1.7-25-.5-30.9-2.2-31.4-9.2zm654 .7c15.5-5 38.4-6.3 34-1.9-1.8 1.8-13 3.9-25 4.6-17 1.1-19 .5-9-2.7zm221-.4c-39.7-6.5-114.3-8-114.4-2.2 0 2.8-2.1 2-4.5-1.9-2.5-3.8-6.6-5.7-9-4.1-2.6 1.5-8 .5-12-2.3-5.5-3.8-3.2-4.6 9-3 9 1 17.3-.5 18.6-3.5 1.4-3.4 4.3-2.6 7.6 2.1 3.4 4.7 5.5 5.3 5.5 1.6a12 12 0 0 0-5-9.2c-9.5-5.9.1-12.4 17.1-11.7 10.8.4 16.8 3.2 16.8 7.8 0 4.7-3.6 6.3-10 4.6-5.8-1.5-8.2-.8-5.6 1.7 2.5 2.4 16 3 30 1.3 22.2-2.8 23.5-3.5 10.2-6L976 1019l22.7-8.8c17.5-6.7 20.5-7 13-1.2-9.3 7-8.9 7.5 7.6 7.4 13.1 0 15.6-1.3 9.8-5-6.5-4.2-6.3-5 1.3-5 4.9 0 8.9 1.8 8.9 4 0 4.8 45 0 54.3-5.6 3.3-2 7.2-1.6 8.8 1 1.6 2.5 14.4 3.9 28.3 3 17-1 24.4.2 22.1 3.8-2 3.3-1 4 2.6 1.8 3.3-2 4.7-5.8 3-8.4-1.6-2.6 2.7-4.8 9.6-4.8 13.6 0 18.6 8.3 18.6 30.5v14.3l-49.1 3.7c-33.8 2.5-52 1.9-58.4-2-5-3.2-11-5.8-13-5.7-2.2 0-.5 2.3 3.7 5 9.3 6 5 6-33-.4zm-1019.5-3.1c3.6-1.5 8-1.3 9.7.4 1.7 1.7-1.3 2.9-6.7 2.7-5.9-.3-7-1.5-3-3.1zm374.5-11.5c-4.5-7.2 26-17 35.8-11.5 8.1 4.5 8 5.2-1.8 8.3-19.8 6.3-31.5 7.4-34 3.2zm407.5-3.6c3.5-1.4 9.2-1.4 12.7 0s.6 2.5-6.4 2.5-9.8-1.1-6.3-2.5zm-212.1-6.8c-4.6-3-5.2-5-1.6-5 3.3 0 7.5 2.2 9.2 5 3.9 6.3 2.1 6.3-7.6 0zm194-10.5c1.2-3.7 5.2-7.7 8.9-8.9 3.8-1.3 5.7.6 4.4 4.4a15.9 15.9 0 0 1-8.9 9c-3.8 1.2-5.7-.7-4.4-4.5zm74.3-8.2c3.6-1.5 8-1.3 9.7.4 1.7 1.6-1.3 2.8-6.7 2.6-5.9-.2-7-1.4-3-3z" clip-path="url(#e)" transform="translate(169.8 75.7)"/><path style="fill:#a57985;stroke-width:5.08" d="M-169.9 1813.7V1671l13.5 10.6c7.4 5.8 14.8 9.3 16.4 7.7 1.6-1.6.6-4.5-2.2-6.4-7.8-5.5-23.7-32.1-20.8-35 1.4-1.4 7.6 3.2 13.7 10.3 6 7 13.9 11.7 17.3 10.4 11-4.3 49.8 22.2 64.6 44.1 24 36 16.3 38.1-18.8 5.3-18.3-17-37.1-31-42-30.8-6 .2-2.5 5.3 11.4 16.5 11 9 28.6 24.8 39.1 35.3 10.6 10.5 21.1 19 23.4 19 2.4 0 7.9 8 12.3 17.8 8.2 18 6.2 22.8-5 11.7-8.1-8.2-7.6-3.7 2 15.5 4.4 8.8 10 16 12.7 16 2.6 0 4.7 3.3 4.7 7.3s6 14.2 13.1 22.8c9.9 11.7 11.2 15.6 5.4 15.6-4.3 0-9-2-10.6-4.6-1.6-2.6-9.5-6.2-17.6-8-8-1.7-18.9-8.1-24-14.1l-9.5-11 14.4 9.1c23.2 14.7 21.6 5.5-2-11.7-22.3-16.1-31.9-17.2-19.5-2.1 6.5 7.8 6.2 8-4 1.6-6.1-3.8-10.2-8.4-9-10.2 1.1-1.9-9.9-9.6-24.5-17.2l-26.5-13.8 30 28.8c21.5 20.7 28.1 30 23.4 32.9-4.9 3-3.7 5.5 4.5 9.9 6 3.2 9.5 8.2 7.7 11-4.1 6.8 17.6 30 28.1 30 4.5 0 13.2 3.5 19.5 7.8 6.2 4.4 11.2 6.2 11.2 4.1 0-2.1 2.8-1.1 6.1 2.2a26.3 26.3 0 0 0 16.3 6.1c7.9 0 8.8 1.4 4 6.1-9.2 9.3-7.3 13 5.4 10.7 6.3-1.1 16 1.3 21.6 5.6 9.8 7.4 9.7 7.5-2.6 4.5-11.3-2.9-12-2.3-5.7 5.3 6.5 7.9-.3 8.5-95.2 8.5H-170ZM-53 1938.5c-3.5-4.2-8.3-7.6-10.6-7.6-2.4 0-3 3.4-1.4 7.6 1.6 4.2 6.4 7.6 10.6 7.6 6.3 0 6.5-1.4 1.4-7.6zm31-18c-6.7-5.6-13.3-9-14.7-7.6-4.3 4.3 9.9 18 18.6 17.8 6.4-.1 5.5-2.4-3.9-10.3zm-88.6-42.6c-1.5-4-.2-8.2 3-9.3 3.3-1 2-3.4-3-5.3-5.4-2-7.7-1.4-5.9 1.6 1.7 2.8.7 5-2.3 5s-5.3-2.9-5.3-6.4c0-3.5-5-9.5-11.2-13.4l-11.2-7 9.2 14.7c13.5 21.3 32.7 35.8 26.7 20zm11.9-35.7c0-1.3-5.2-4.9-11.5-8-11-5.3-11-5.2-1.5 2.4 10.3 8.3 13 9.5 13 5.6zm27.6-76c-5.4-4-11-6.1-12.2-4.8-2.8 2.8 10.3 11.8 17.3 12 2.6 0 .3-3.2-5-7.2zm-56.1-40.7a20 20 0 0 0-10.1-10c-6-2.3-6.3-.8-2 7.2 6.1 11.5 16.3 13.8 12 2.8zm231.7 225.7c-6.6-4.2-6.5-5 1-5 4.7 0 10 2.2 11.7 5 4 6.4-2.8 6.4-12.7 0zm54-2.7c-2.3-6-1-6.7 5.8-3.2 4.8 2.5 12.2 5.8 16.4 7.4 4.4 1.6 2 3-5.8 3.2-7.7.2-14.7-3-16.4-7.4zm232 3.4c8.8-3.4 8.7-4.1-1.2-13-5.8-5.3-10.5-11.8-10.5-14.6 0-2.7-4-8-8.9-11.5-8.4-6.2-8.4-6.8.5-10.2 7-2.7 13.8 1.3 26.7 15.8 19.4 21.9 20.8 25.1 9 20.5-6.7-2.5-7.2-1.7-2.7 3.8 7.1 8.5 2.6 13.7-11.5 13.2-9.5-.3-9.6-.7-1.3-4zm34.3-18.1c-8.6-12.4-15.5-24.7-15.5-27.3 0-2.7-3.5-7.7-7.7-11.2-4.1-3.5-7.6-9.7-7.6-13.8 0-4.7 3-6.4 7.6-4.7 11.9 4.6 9.1-.6-8.8-16.8-12.4-11-15-16.3-10.8-20.6 7.4-7.6 61.5 30.8 77.7 55.1 9.4 14.2 13.4 16.5 24.4 13.7 14.2-3.6 36.4 3.6 58.7 19 7.8 5.3 17.4 8.5 21.3 7 5.8-2.3 5.1-6.6-4-23.1-8.7-15.9-9.8-21.7-5-26.5 7.6-7.5 22.6 2.7 18.8 12.8-3.3 8.3 6.4 33.5 12.9 33.5 2.8 0 3.7-3.4 2.1-7.6-1.7-4.4.7-9 5.5-10.8 7.7-3 7.6-4.2-1.2-14a90.8 90.8 0 0 1-13-18.4 365.3 365.3 0 0 0-41.4-63.7 3578 3578 0 0 0-57.9-69.8c-15.6-18.5-20.4-28.2-19.9-41.1.6-15.5 2-17 17.6-17.5 11.7-.4 17 1.6 17 6.7 0 4.6 3.3 6.2 9 4.4 19.2-6.2 31.7-14 31.7-20.2 0-10.8 9.2-13 21.4-5.3 6.4 4 20.2 10 30.7 13.3 10.5 3.3 21.5 10.5 24.4 16 2.9 5.4 7.2 8.6 9.7 7.1 2.4-1.5 8.1 1 12.7 5.6 7.6 7.6 8 7.2 4.7-5.8-2.5-10-1.8-13 2.3-10.5 3.2 2 5.8 1 5.8-2s-3.4-6.8-7.6-8.4a13.2 13.2 0 0 1-7.6-11.5 26 26 0 0 0-6.4-15.4c-5-5.4-5-7.2 0-9 4-1.5 5.2-7 3.3-14.6-4.2-16.6 4.2-15.6 21.2 2.4 10.7 11.3 15.4 13.4 20.2 8.9 5-4.6 4.8-8.7-.9-19.8-4-7.7-5.4-14-3.3-13.9 7.3.2 24.7 17.6 31.7 31.7 7.2 14.4 18.2 18.5 21.7 8 1.5-4.4 6-4.5 18.3-.2 18.2 6.3 27.7 14.4 32.7 27.7 1.9 5 7 9 11.2 9 4.3 0 7.8 1.7 7.8 4 0 2.1 9.1 14 20.3 26.4 11.2 12.4 20.3 25.1 20.3 28.4 0 3.3 3.2 8.6 7.2 11.9 13.8 11.5 14.7-5 1-19.4-7.3-7.6-13.3-16.3-13.3-19.3 0-8 12.3-16.8 18-12.7 8.7 6.2 31.5 53.7 34.9 72.8 2.1 12 6.6 19.3 12.9 21 12.4 3.2 17.5-14 7.1-24.3-4.2-4.2-6.7-13.7-5.7-21.5l1.9-14 7 14c4.7 9.6 8.2 12.2 10.8 8 2.3-3.7 5.2 1.3 7.3 12.7 3 15.6 4.8 17.8 10.8 12.8 4-3.3 6-9.4 4.3-13.7-1.6-4.2-.7-9 2.1-10.7 3.2-2 2.5-11.3-2-25.8-4-12.5-7.2-20.7-7.4-18.3-.2 2.4-3.4 1.9-7.2-1.2-3.7-3.1-8.3-4.2-10.1-2.3-3.4 3.3-5.3-5.6-3.7-17.6.4-3.5-2.7-10-7-14.3-9-9-10.4-17.3-2.9-17.3 2.8 0 5.1-4.6 5.1-10.2s-3.4-10.1-7.6-10.1a7.8 7.8 0 0 0-7.6 7.9c0 4.4-2.3 6.5-5 4.8-2.9-1.7-5.2-7.7-5.2-13.2 0-5.6-4.5-19-10.1-30s-10-24-9.8-29c.2-5.3 1.5-6.5 3-2.7 1.4 3.4 4.3 6.3 6.3 6.3 5.7 0 3.2-19.6-3.3-26.1-4-4-4-7.3 0-11.6 4-4.4 8.5-2.9 17.6 6.3 12.9 12.9 22.6 11.7 11.7-1.4-3.5-4.3-8.8-6.2-11.7-4.4-3.4 2-4.2.1-2.2-5.1 1.9-4.9.8-8.5-2.5-8.5-3.1 0-4.2-1.5-2.3-3.4 1.8-1.9-.5-7.7-5.3-13-8.4-9.2-8.2-9.3 5.5-4.1 7.8 3 16 4.2 18.4 2.7 2.3-1.4 10.7 2.8 18.6 9.4 8 6.6 17.4 11 21.1 9.6 3.7-1.2 12.8 3.1 20.3 9.7 13.4 11.9 13.5 11.9 3.7.3-8.4-10-8.6-11.2-1.2-8.3 12.7 4.8 10.6-1-7.6-21-15.5-17-16.5-17.4-21.7-7.7-3 5.6-7.7 8.5-10.4 6.5a61.3 61.3 0 0 1-17.8-34c0-4.2-2.3-7.7-5.1-7.7-2.9 0-7.9-6.2-11.2-14a124.3 124.3 0 0 0-16.4-26.2l-10.4-12.4 15.6 10.8c9.7 6.7 19.9 9.8 26.7 8 6.4-1.7 11-.5 11 2.8 0 3 2.2 5.6 5 5.6 2.6 0 3.4-4 1.5-8.8-2.8-7.5-2-8 4.5-2.6 4.2 3.4 9 5 10.6 3.4 9.1-9.1 85.5 62 102.8 95.8a59.7 59.7 0 0 0 17.6 18.4c6.9 4.5 10.9 5.4 8.8 2.1-2.1-3.4.2-8.3 5.3-11.3 7.9-4.6 8-5.2.7-5.4-10.9-.2-33.4-18.5-28.6-23.3 2-2 7.1-.8 11.4 2.8 6.6 5.4 7.7 4.4 7.7-7 0-7.3-2.3-13.3-5.1-13.3-4.8 0-36-31.6-33.6-34 3.4-3.4 38.1 13 47.7 22.6 6.2 6.3 15.6 11.4 20.7 11.4 5.2 0 13.5 4.6 18.6 10.2 5 5.6 15.4 10.2 23 10.2s16.7 3.4 20.1 7.5c3.5 4.2 8.5 6.2 11.2 4.6 2.7-1.7 10.4 2.2 17.2 8.5l12.3 11.6v394.5H440.2Zm640.4-85.8c-6.8-6.8-13-8.5-21.2-6l-11.6 3.8 12.3 6.6a48.6 48.6 0 0 0 21.2 5.9c8.3-.7 8.3-1.4-.7-10.3zm47-15.9c-3.4-9-26.7-18.6-46.7-19.1-8.7-.3-14.9-2-13.8-3.8 3-4.8-3.1-12-18.7-22-20.2-12.8-24.6-11.2-18.3 7 3.2 9.1 11 17.7 18.8 20.8 7.3 2.9 17.3 7.3 22.1 9.8a57.7 57.7 0 0 0 22 4.5c7.2 0 16.6 3.4 20.8 7.7 8.8 8.7 17.9 5.6 13.9-4.9zm-9.7-23.4c-4.1-6.7-28.2-16.2-31.8-12.7-1.4 1.5 5.2 6 14.7 10.1 21.1 9.2 21.2 9.2 17.1 2.6zm-234.7-9.3a55 55 0 0 1-11.6-15.8c-6-11.7-6-12.1 1.8-5.8 7.3 6 8.5 5.9 8.5-1 0-11-10.4-16.3-15.7-7.9-7.7 12.2 6.5 43.2 16.8 36.8 3.2-2 3.2-4.3.2-6.3zm186.5-26.2a37.1 37.1 0 0 0-16.5-4.8c-5 0-10.4-3.5-12-7.7-3.7-9.6-12-10-12-.4 0 4-2.9 8.3-6.4 9.7-3.5 1.5-1.7 3 3.8 3.4 22 1.6 39.4 4.6 42.1 7.3a4 4 0 0 0 5.6 0c1.6-1.5-.5-4.9-4.6-7.5zm33.4-13c-5.4-3.9-13.4-7.1-17.7-7-4.8 0-2 3.9 7 9.9 16.8 11 26.3 8.5 10.7-2.8zm-542-11.4c-8.1-13-24.7-23.2-24.7-15.2 0 8.5 15.5 24.6 23.7 24.6 5.4 0 5.7-2 1-9.4zm507.1-6.8c-1.6-4-2.8-2.9-3 3-.3 5.4 1 8.4 2.6 6.7 1.7-1.7 1.9-6 .4-9.7zm-542-24.5a5 5 0 0 0-5-5 5 5 0 0 0-5 5 5 5 0 0 0 5 5.1 5 5 0 0 0 5-5zm502.6-1.9c-1.2-1-7.9-3.4-14.9-5.3l-12.7-3.4 12.7 7.5c10.8 6.3 21.5 7.2 14.9 1.2zm-520.3-3.2c-1.7-2.7-5.9-5-9.2-5-3.6 0-3 2 1.6 5 9.7 6.4 11.5 6.4 7.6 0zm109.2-12.4c0-1.2-2.3-3.6-5-5.3-2.9-1.8-5.2-.8-5.2 2.2s2.3 5.4 5.1 5.4 5.1-1 5.1-2.3zm401.2-5.5c-3.5-4.2-7.4-6.7-8.7-5.4-3.5 3.5 3.6 13.2 9.8 13.2 3.3 0 3-3-1-7.8zm40.8-5.4c0-1.6-4.3-8.4-9.4-15-7.1-9-10.9-10.5-15.3-6-8.7 8.6-7 13.9 4.4 13.9 5.5 0 10.1 2.3 10.1 5a5 5 0 0 0 5 5.1c2.9 0 5.2-1.3 5.2-3zm-61.6-33.4c-6.3-8.9-12.4-13.4-13.5-10-1.1 3.2 3.3 10.4 9.8 15.9 16.4 13.6 17 12.7 3.7-6zm-60.4-4.5c0-2.6-3.3-4.8-7.4-4.8-4.5 0-6.3 3-4.6 7.6 3 7.8 12 5.7 12-2.8zm13.2-44.1c-5.6-5.6-9.4 3.2-5.4 12.4 3.8 8.7 4 8.7 6.2-.2 1.2-5 .8-10.6-.8-12.2zm-58.9 1.2c0-4.2-2.2-7.6-4.9-7.6s-3.6 3.4-2 7.6c1.6 4.2 3.8 7.6 5 7.6 1 0 2-3.4 2-7.6zm38.1-7.6c-2.4-4-5.4-4.3-8.7-.9a9.4 9.4 0 0 0-1.4 11c2.4 4 5.4 4.3 8.7 1a9.4 9.4 0 0 0 1.4-11.1zm100-1.1c-3.6-3.7-6-4-6-.8 0 6.8 6 12.8 9.4 9.4 1.5-1.4 0-5.3-3.4-8.6zm70.1-7.8c-.1-7.4-7.6-14-16.7-14.7-8.8-.8-8.8-.3-.5 8.9 8.9 9.8 17.4 12.7 17.2 5.8zM74 1923.3c-3.5-4.3-4-7.7-1.3-7.7 2.8 0 8 3.5 11.4 7.7 3.6 4.2 4.1 7.6 1.3 7.6s-8-3.4-11.4-7.6zm41.9-6.2c-9.7-3.6-7.5-11.6 3.2-11.6 12.7 0 24 13 11.8 13.5-4.8.3-11.5-.6-15-1.9zm-64.3-9.8c-2.7-7-2-7.3 4.5-2 8.8 7.4 9.7 10.3 3.2 10.3-2.5 0-6-3.7-7.7-8.3zm-66.1-12.1c-16-12.1-18-15.1-9.6-15.1 11.1 0 37.1 18 37.1 25.8 0 7.7-6.5 5.2-27.5-10.7zm155.5-1c-12-8.3-20.7-16.4-19.1-18 1.5-1.5 7 1 12.1 5.6 5.2 4.6 11.5 8.5 14 8.6 7.8.3 23.4 14 19 16.6-2.3 1.4-14-4.3-26-12.7zm-102.6-15.6a45 45 0 0 1-18.3-23.6c-3-9.4-11-22.8-17.7-29.7-6.6-7-12.2-15.2-12.4-18.3-.7-10.9-9-26-21.8-39.9-7-7.6-11.1-15.6-9-17.8 2.2-2.1 16.4 9.9 31.6 26.6 33 36.3 40.7 48.3 31.3 48.4-3.6 0-.8 4.7 6.2 10.2 7.6 6.1 9.1 9 3.8 7-13.2-4.6-11 .7 9.5 23.3 19 21.2 18.3 24.6-3.2 13.8zm-82-14c-11.3-10-11.4-10.2-.8-5a42 42 0 0 1 14.3 10.4c5 8-.5 5.8-13.5-5.4zm559.5-12.7c-23.1-29.6-25.8-39.2-5.5-20.2 15.7 14.7 33.6 43.5 26.8 43.1-2 0-11.5-10.4-21.3-22.9zm-192.3-2.5-12-10H324c6.7 0 15 2.8 18.2 6 3.3 3.4 7.6 4.5 9.5 2.6 2-2 2.5-4.1 1.4-5-12.8-8.8-38-33.6-39-38.2-2.7-12.6 27.3-3.6 44.1 13.2 9.7 9.8 12 37 2.9 33.4-3.6-1.4-8 0-10 3-4.9 8-13.8 6.3-27.4-5zm-46.6-17.8c-8.8-10.6-1.4-16.3 8.4-6.4 4.8 4.7 6 9.2 3 11-2.7 1.7-7.8-.3-11.4-4.6zm-32.8-2.3c-1.8-2.8.3-5 4.5-5 4.1 0 9 2.2 10.7 5 1.7 2.8-.3 5-4.5 5s-9-2.2-10.7-5zm-128.6-30.8c-6-9.6-5.7-10 3.6-5 13 6.9 18.3 15.5 9.7 15.5-3.7 0-9.7-4.7-13.3-10.5zm41.8-11.7c-27.3-15.6-53-34.7-53-39.4 0-2 4-4.8 9-6 4.8-1.3 1.3-1.5-7.9-.7-14.2 1.4-18.3-.8-26.7-14.6-5.4-8.9-8.5-19.6-6.9-23.8a89 89 0 0 0 4.3-15.3c1.7-9.7 31.8-11.2 35.5-1.7 1.7 4.3-1.1 6.8-7.7 6.8-5.7 0-8.9 2.3-7.2 5.1 1.8 2.8 10.5 5 19.4 5 18.2 0 26 12 31.8 48.3 3.4 22 10 33 19.6 33 3.3 0 10.5 3.4 16 7.5 16.2 12.4-2.6 9.3-26.2-4.2zm-59-68a78.5 78.5 0 0 1-11.5-19c-2.3-6-4.9-7.7-6.2-4.2-2.8 7.4 12.7 32 20 32 3 0 2-4-2.3-8.8zm112.7 69.8c-6.5-4.2-6.3-4.9 1.3-5 5 0 9-3.7 9-8 0-12 12.3-5.8 14.2 7 1.8 12.1-10.4 15.1-24.5 6zm-35.5-19c-24-12-26-24.1-4-24.1 12.3 0 16.7 2.3 16.7 8.7 0 4.8 4.7 12.1 10.2 16.3 14.5 11-.3 10.4-22.9-1zM462 1754c-34-31.3-40-40.2-32.4-49.3 5.9-7 7.6-6.8 16 2.2 5.2 5.6 9.4 12.7 9.4 16 0 3.1 7.1 14.8 15.8 25.8 8.8 11 15 21 13.8 22-1.1 1.2-11.3-6.3-22.6-16.7zm351.3-48.2c-2.2-5-2.5-10.6-.8-12.3 5.2-5.2 9.3 2 7 12.1-2.2 8.9-2.4 8.9-6.2.2zm-472.6-12.3c-15.3-3.7-21.6-11.6-9.3-11.6 5.8 0 13.4 3.4 17 7.6 3.4 4.2 5.4 7.3 4.3 7l-12-3zm-178-6.9c-5.5-8.8.7-10.7 7.7-2.3 4 4.8 4.4 7.7 1 7.7-3 0-6.9-2.4-8.7-5.4zm-191-4.8a69 69 0 0 1-17.1-18.9c-8.2-12.8-7.3-12.5 9.5 3.5 22.3 21.1 24.3 25.2 7.7 15.4zm823.6-10.4c0-3 2.3-4 5.1-2.2 2.8 1.7 5.1 4.1 5.1 5.3 0 1.3-2.3 2.3-5 2.3-2.9 0-5.2-2.4-5.2-5.4zm-645.1-12.4c-3.6-4.3-5.4-9-4-10.4 1.4-1.4 5.5 1 9 5.3 3.7 4.4 5.5 9 4 10.4-1.3 1.4-5.4-1-9-5.3zm-299.7-17.8c-4.3-8-3.9-10.1 2.2-10.1 4.1 0 10 4.5 13 10.1 4.3 8 3.9 10.2-2.2 10.2-4.2 0-10-4.6-13-10.2zm76.9-10.6c-8.2-6.6-9.6-9.7-4.5-9.7 7.7 0 22.2 13.8 18.5 17.5-1.1 1-7.4-2.4-14-7.8zm-90.6-8.6a7.3 7.3 0 0 1-2.4-10c2.6-4.1 5.6-3 10 4 6.3 10.3 3.1 12.8-7.6 6zm39-1c-4.1-2.8-5.5-5-3-5.1 2.6 0 .3-4.8-5-10.6-6.5-7.4-13.9-10-23.8-8.5l-14.3 2 .7-70.2c.4-38.6 2-70.3 3.3-70.3 1.4 0 12.8 6.9 25.2 15.3 24.6 16.6 29.8 18.6 23.8 8.9-6.6-10.5-6.6-21.1-.2-25.2 4.1-2.6 3.2-3.9-2.8-4-5 0-9-2.2-9-5 0-5.4 13.6-1.7 25.5 7 4.2 3 13.3 8.7 20.3 12.6l12.7 7-12.3-13.3c-11.3-12.3-11.5-13.4-2.5-13.2 22.7.4 65.3 27.8 86.5 55.7 11.8 15.3 19.2 28.7 16.4 29.7-6.4 2.3 10.5 21 19 21 3.7 0 8.2 2.7 10.2 6 2.4 3.8 1.4 4.4-3 1.6-5-3-5.9-1.8-3.4 4.8 2.6 6.6-.6 5.5-12.2-4.2-16.4-13.9-25-16.7-25-8.1a5 5 0 0 0 5 5 5 5 0 0 1 5.1 5c0 4.7-15.1 1.3-20.3-4.6-6-7-34.4-20.1-37.2-17.3-1.7 1.7-8.8-.7-15.8-5.2-21.6-14.2-21-9.2 1.3 9.8 23.2 19.9 28.9 32.8 8.5 19.5-11.6-7.6-12.7-7.6-12.7-.1 0 4.5-3.9 8.2-8.6 8.2-6.7 0-7.3 1.3-2.5 6 3.3 3.4 6 9.5 6 13.7 0 5.7-2.6 5-11.4-2.9-16.7-15-43.6-29.5-47.5-25.6-2 2 2 8 8.7 13.6l12.1 10-12.7.4-12.7.4 12.7 7c8 4.5 13.8 5.2 15.8 2 2.7-4.5 9.4 11.2 9.6 22.4 0 5.4-21.4 4.5-30.4-1.3zm-5-40.7c-10-6.5-21.8-6.5-17.8 0 1.7 2.8 8.2 5 14.3 5 9-.1 9.7-1 3.5-5zm17.8-32.9c-20-16.4-28.3-16.5-10.7-.2 7.6 7 16.5 12.7 19.8 12.7 3.4 0-.7-5.6-9.1-12.5zm85.3-23c-1.5-5.6-5.9-10.2-9.7-10.2-8.5 0-8.7 2.6-1.7 15.7 6.6 12.4 15 8.3 11.4-5.5zm18.8 10.1c0-2.7-2.4-5-5.4-5-3 0-4 2.3-2.2 5 1.7 2.8 4.1 5.1 5.4 5.1 1.2 0 2.2-2.3 2.2-5zm5 86.4c-6.5-4.2-6.3-5 1-5 4.8 0 10 2.2 11.8 5 4 6.4-2.8 6.4-12.7 0zm99.2-40.6c-1.8-2.9.2-3.7 4.8-2 8.8 3.4 10.4 7 3 7-2.6 0-6.1-2.2-7.8-5zm744-5.5c-5.2-9.7-4.8-10 5-4.8 5.9 3.1 9.4 7.9 7.7 10.5-4.3 7-6.4 6-12.7-5.7zM79 1547c0-4.3 2.3-6.5 5-4.7 2.8 1.7 5.1 5.3 5.1 7.9 0 2.6-2.3 4.8-5 4.8-2.8 0-5.1-3.6-5.1-8zm-22.5-5.1c-9.3-9.3-10.1-15.5-2.7-20.1 3.7-2.3 3.5-5.6-.6-10.5-4.7-5.6-4.3-7.1 1.7-7.1 7.9 0 14.5 14.1 16 34.3 1 13.4-3.4 14.4-14.4 3.4zm957.2-37.7c-6.6-4.3-6.4-5 1-5 4.7 0 10 2.2 11.7 5 4 6.4-2.8 6.4-12.7 0zM1174 1404c-2.1-8.4-4.8-11.4-7-7.8-2 3.2-8.7 4.6-14.8 3-9.2-2.4-10.2-4.7-6-12.6 2.9-5.4 3.5-12.6 1.5-16-2.7-4.4-1.4-4.3 4.4.4 7.1 5.8 7.9 5.3 5.5-3.8-2.9-10.9 5.5-14.5 11.3-5 1.9 3 6.6 4.2 10.5 2.7 5.6-2.2 7.1 3.3 7.1 25 0 29.4-6.7 37-12.5 14.1zm-1078.4 5.3c-10.4-4.2-7.2-11.2 3.8-8.3 5.6 1.5 10.1 4.7 10.1 7.1 0 4.9-4 5.2-14 1.2zm-132.4-72.7c-13-17.4-13.6-20.5-4.4-20.5 9.7 0 30.5 23.6 26.5 30.1-5.3 8.7-10.2 6.5-22.1-9.6zm93.8 6.5c-1.8-1.8-10.7-3-19.8-2.6-19.4.7-32-5.6-27-13.7 4.4-7.2 23.1-7.4 23.1-.2 0 3 2.4 4 5.2 2.2 2.9-1.8 3.9-5.4 2.3-8-3.3-5.2 4.4-5.4 22-.4 6.5 1.8 11.8 5.6 12 8.4 0 2.8 2 7.5 4.4 10.4 4.8 5.7-16.6 9.5-22.2 3.9zM-167.3 1179c-1.7-2.7-.7-5 2.2-5 3 0 5.4 2.3 5.4 5 0 2.8-1 5.1-2.2 5.1-1.3 0-3.7-2.3-5.4-5zm8.3-7.7c-9-9.6-10-12.6-4-12.6 4.3 0 9.1 2.2 10.7 4.8 1.6 2.6 11.3 3.4 21.4 1.7 13.3-2.1 17.5-1.3 14.9 2.9-2 3.2-.8 5.9 2.6 5.9 3.4 0 4.7 1.4 3 3.2-1.9 1.8-7.2.1-12-3.8s-7.2-4.4-5.3-1.2c2 3.2 0 7.2-4.5 8.9-12 4.6-13.8 4-26.8-9.8zm80.6.1c0-4.2 2.2-7.6 5-7.6 2.6 0 3.5 3.4 2 7.6-1.7 4.2-4 7.6-5 7.6-1.1 0-2-3.4-2-7.6zm-91.5-48.2a5 5 0 0 1 5.1-5.1 5 5 0 0 1 5.1 5 5 5 0 0 1-5 5.1 5 5 0 0 1-5.2-5zm2.9-14.8c-1.6-2.5 1.7-3.4 7.3-2 11.9 3.2 13.4 6.6 2.8 6.6-4 0-8.6-2-10.1-4.6zm2.2-12.6c0-1.1 3.6-3.4 8-5 4.4-1.8 6.5-1 4.7 2-3 4.8-12.7 7-12.7 3zm517.2-11.7c3.7-1.4 8-1.3 9.8.4 1.7 1.7-1.3 3-6.7 2.7-6-.2-7.1-1.4-3-3zm-484.2-9.3-15.2-6.7 13.7-.4c7.5-.2 15.2 2 17 5 5.4 8.7.8 9.3-15.5 2.1zm1217.9-28.7c-3.4-3.4-19.5-5.6-37.8-5.3-17.6.4-40-1-49.8-2.8-15.2-3-12.7-3.9 17.8-6.1 34.7-2.7 78.6 3.3 104.2 14.1 11.8 5 11.3 5.4-7.9 5.7-11.3.2-23.2-2.3-26.5-5.6zm-1252.6-2.5c-1.8-1.9-3.4-11-3.4-20.3 0-15 1.7-17 14-17.5l44.5-1.8c16.7-.7 32.7.5 35.5 2.6 9.4 7.2 41.9 11 45.4 5.3 2.1-3.3 15.1-4.5 34-3 35.1 2.7 40.7 5 36.7 15.3-1.6 4.1-5.5 5.8-8.6 3.9-3.2-2-12.7-3-21.1-2.3-11.8 1-13.5.1-7.6-4 9.9-6.7 3-6.6-32.5.5-16 3.2-26.5 7.5-23.3 9.5 4 2.5 3.3 4.5-2.2 6.7-4.4 1.7-8 1.1-8-1.3 0-5.4-23.7-10.6-63.6-14-31.4-2.7-37.2 2.5-6.8 6.1 9.3 1.1 21.6 3.1 27.1 4.4 5.6 1.3 15.4 2.5 21.6 2.7 6.3.2 11.5 2.5 11.5 5 0 2.6-12.8 4.6-28.5 4.5-15.6-.2-25.7-2-22.4-4 4.3-2.6 3.7-4.6-2-6.8-5.1-2-8-.3-8 4.4 0 7.6-25.5 10.8-32.3 4zm352-7c-4-2.6-12.7-4.8-19.2-4.8-7.3 0-11-2.5-9.7-6.4 1.4-4 13-6.5 32.2-6.8 41.3-.6 47.6-1.9 35-7-8-3.2-5.4-4.8 13.3-7.7 15.8-2.4 33.8-1 55 4.5 17.4 4.4 37.3 8 44.2 8 7.1 0 11.2 2.3 9.5 5.2-1.8 2.8 2.1 5.2 8.6 5.4 11 .3 11.1.6 1.5 4.8a74.3 74.3 0 0 1-30.5 1.9c-34.8-4.3-94-4.7-94-.6 0 2.1-6.3 3.4-14 2.8-7.8-.6-16.5.4-19.3 2.1-2.9 1.8-8.5 1.1-12.6-1.5zm213.6-6.9c0-1 3.4-3.3 7.6-4.9 4.2-1.6 7.6-.7 7.6 2s-3.4 5-7.6 5c-4.2 0-7.6-1-7.6-2zm20.3-3c0-2.8 2.5-5.1 5.4-5.1 3 0 4 2.3 2.2 5-1.7 2.8-4.1 5.1-5.3 5.1-1.3 0-2.3-2.3-2.3-5zm683.3 0c-15.8-6.9 26-9 55-2.8 8.7 1.9 13.2 1.1 11.4-1.8a6 6 0 0 1 2-8.1c3-1.8 5.2 1.5 5.2 7.3 0 9.4-3 10.4-31.7 10-17.5-.1-36.3-2.3-42-4.7zm-966.5-3.4c-10.8-4.4-7-11.9 6.2-11.9 9 0 11.7 2.1 9.6 7.6-3 8-5.2 8.6-15.8 4.3zM74 1011.4c5.3-9.9 29.7-14.3 37.2-6.8 6.8 6.7-8.5 17-25.3 17-15.8 0-16.9-1-12-10.2zm116.8-2c0-4.8 15.2-7.2 18-2.9 1.6 2.7-1.8 5-7.5 5-5.8 0-10.5-1-10.5-2z" clip-path="url(#f)" transform="translate(169.8 75.7)"/><path style="fill:#906974;stroke-width:5.08" d="m-169.4 1856.4-.2-99.8 12.6 11.8c6.9 6.5 12.5 14.4 12.5 17.5 0 3.1 11.7 14.3 25.9 25 29.6 22 29.5 28.4-.2 16.5-28.7-11.5-25.5-3.5 5.4 13.6 17.4 9.6 24.8 16.6 22.9 21.5-1.7 4.5 2.6 11 11 16.3 31.5 20.3 42.4 35.6 19.1 26.8-10-3.8-11.9-3.3-9.6 2.6 1.6 4.1 4.6 7.4 6.9 7.4 2.2 0 12.2 8.2 22.2 18.2s20.5 16.7 23.3 15c2.9-1.8 5.2-.9 5.2 2.1s-5.7 5.4-12.7 5.4c-7 0-12.7-1.7-12.7-3.8 0-3.9-14.1-18.7-44.4-46.7-15.2-14-23.3-30.5-11.5-23.2 2.8 1.8 5.1 1 5.1-1.6 0-5.8-32.7-31.4-40.2-31.4-3 0-11.3-9.4-18.5-20.8-7.2-11.4-14.5-19.4-16.1-17.8-1.7 1.6.8 7.2 5.4 12.3 10.9 12 10.7 16.5-.4 13-5-1.5-1 4.3 8.7 13 9.7 8.5 14.5 15.5 10.7 15.5-3.8 0 2 7.3 12.9 16 10.9 8.9 15.2 14.3 9.6 12.1a87 87 0 0 0-17.9-4.8 51.4 51.4 0 0 1-15.2-4.9c-7.6-4 9.4 11.6 31.5 29l11.7 9.2-12.7-2.6-12.7-2.6 10.8 8.6 25.4 19.8 14.6 11.1-44 .3-44.2.3zm604.1 84.7L424 1926l15.1 1.8c11.1 1.3 14.4 0 12.5-5.2-1.5-3.7-4.7-6.9-7.2-6.9s-4.6-2.2-4.6-5c0-11.9 18.2-3.6 36.3 16.5 10.7 11.8 19.5 18.8 19.6 15.4 0-6.8 11.7-4 27.8 7 8.8 6 4.4 6.8-34 6.8-43 0-44.1-.3-54.7-15.2zm99.6 7.1c-4.1-10.6-4-12.2 1.4-12.2 2.4 0 5.7 4.5 7.1 10.1 3.2 12-4 13.8-8.5 2.1zm38.6 3.8c-6.7-4.3-3.3-21.1 4.3-21.1 2.4 0 6.6 4 9.4 8.9 4.4 7.6 5.6 6.5 8.5-7.6 1.9-9.1 5.4-16.6 7.8-16.6 7.2 0 5.2-7.5-5-18.3-11.3-12.2-23.6-46.4-21.5-60.2 1.2-7.9 0-8.7-5.5-4-5.6 4.6-7 3.8-7-3.5 0-5.1 2.6-8.3 5.8-7 3.9 1.4 5-2.3 3.4-10.8-1.5-8.2-5.8-13-11.6-13-14.7 0-25.2-5.6-25.2-13.4 0-5.6 2.2-6 9.8-2 8.2 4.4 10 3.4 11.4-6.2 2-13.2-8.5-37.4-18.6-43.1-3.8-2.1-8.5-10.4-10.5-18.3l-3.6-14.5 16.4 8.5c17.8 9.2 25.3 7.9 13-2.3-9.9-8.2-10-13.7-.2-13.7 4.2 0 7.7 2.4 7.7 5.2 0 2.9 3 1 6.7-4 6.2-8.4 8.4-7 28 17.5 11.6 14.7 21.1 28.4 21.1 30.5 0 2.1 4.3 5 9.6 6.3 6.4 1.7 9.5 7 9.5 16.4 0 13.8 8 22.7 20.5 22.9 5.2 0 5.3-2.3.5-11.2a60.1 60.1 0 0 1-5.6-25.4c.3-9-2.2-14.2-6.8-14.2-10.4 0-9-8.5 1.8-11.3 12-3.2 15.8-44.5 4-44.5-10.2 0-15.9-10.4-8.2-15.2 4.8-3 5-6.4.5-14.7-3.2-6-3.8-10.8-1.5-10.8 5.3 0 28.5 24.5 35.2 37.3 4.5 8.4 5.7 8.6 12.8 1.5 15.4-15.4 33.9-15.8 49.2-1.2 8.6 8.3 17.2 12.3 22.1 10.4 9.4-3.6 21.2 13.4 23.5 34 .4 4 2.9 3.7 8.2-.7 6.5-5.3 7.6-4.2 7.6 7.2 0 10 2.3 13.2 8.8 12 6.6-1 9 2.2 9.2 13a31 31 0 0 0 12.8 23.9c6.8 5.1 12.4 11.9 12.4 15 0 3 2.3 7.1 5 9.1 2.9 2 10.3 14.4 16.5 27.6 8 17.2 13.5 23.2 19 21 4.3-1.5 7.8-5 7.8-7.7s2.4-3.3 5.4-1.5c3 1.8 4.3 6.2 3 9.6-5 13 4.8 19.8 20.8 14.3 18.6-6.6 28.9-1 24.4 13-2.8 8.9-7.4 10.5-28.5 10.4-20-.2-26.8-2.5-32.9-11.1-4.5-6.6-5.5-11.7-2.5-12.7 11.6-3.8 4-8.5-13.9-8.5-14.2 0-18.7-2-17.8-7.8.9-5.2-3.2-8-12.7-8.5-7.6-.4-11.2.4-7.8 1.8 3.3 1.4 4.8 5.7 3.3 9.6-1.7 4.5 2 8.2 10.4 10.3 7.3 1.9 13.2 5.3 13.2 7.7 0 2.4-4 2.9-8.9 1-7.9-3-8-2.3-1.6 5.7 6.4 7.8 6.4 9.6 0 14-5.6 4-4.7 4.7 3.8 2.8 6.6-1.4 12.2.4 13.8 4.5 2 5.2-1.2 6.1-13.7 3.7l-16.3-3.1 12.7 10.7c7.3 6.2 9.9 10.9 6 11-3.7 0-6 2.8-4.8 6 1.2 3.7 15.2 6.1 36.8 6.4 23 .3 35.6 2.6 37 6.8 3 9.2 10.7 7.8 9.3-1.7-1.5-10.6-13.5-17.8-24.1-14.5-4.7 1.4-9.8.5-11.5-2.2-3.3-5.4 38.4-21 56.2-21 6.3 0 17.5 2.7 24.8 6 10.7 5 14.2 4.8 17.6-.9 3-4.9.4-9-9.2-14-21.5-11-25-16.5-14.3-22.4 8.8-5 8.7-5.7-2.6-11.6-6.6-3.4-11.2-9.2-10.4-13 .9-3.6-1.3-8.4-4.8-10.6-8-4.9-11.3-31.2-8.8-69.4.3-4.9-1.1-16.3-3.2-25.4-3-13.4-2.2-16.5 4.5-16.5 4.5 0 8.2 3.6 8.2 8 0 4.6 2.4 6.4 6 4.2 3.8-2.4 5-.4 3.3 6-2.5 9.4 3.2 16.3 28.8 35 9.8 7.2 9.7 7.4-4 7.6-8 0-13.1 2.1-11.6 4.6 1.5 2.4 8.2 3.3 15 2 12.8-2.4 21.3 5.1 15.7 14.1-2 3.3-5.6 3.6-9.2.8-6.6-5.2-28.7-11.4-28.7-8.1 0 1.2 12.4 10 27.6 19.8 29.3 18.8 38.1 27.8 27.3 28.1-3.7.1.5 3.3 9.2 7.1a54.8 54.8 0 0 1 19.7 13c3 4.8 4.7 4.8 7.7-.2 2.3-3.6 7.8-4.8 12.9-2.9 8.3 3.2 8.3 3.9-.8 11-9 7-8.5 7.5 8.1 6.2 16-1.2 17.8-3 18-16.2.2-18.4 7.3-21.2 27.2-10.9 20.4 10.6 24.3 10 13.5-1.9-11.2-12.4-6-21.6 10.2-17.5a42 42 0 0 0 21.3-.4c7.8-3 7.3-4.3-3.8-10.3-7-3.8-12.7-11-12.7-16.1 0-5.8-4.3-10-11.4-11-6.3-.9-11.5-4.9-11.5-8.8 0-4-3-7.3-6.7-7.3-9.9 0-47.8-34-55.6-49.8-4-8.4-10-13.1-15.3-12.2-4.8.8-8.7-1-8.7-3.8 0-3 3.4-5.3 7.6-5.3 5.3 0 7.6-5.4 7.6-17.8 0-20 1.8-20.8 21.6-10.4 16.5 8.6 17.5 4.9 3.3-12.2-7.5-9-11.4-10.7-14.2-6.2-5.7 9.3-19.5 2-23-12.2-1.7-6.8-5.4-12.4-8.1-12.4-2.7 0-5-5.2-5-11.6 0-6.5-2.7-14.5-6-17.8-4.8-4.8-4.8-6.1.2-6.1 3.5 0 5-2.2 3.4-4.8-1.7-2.8 5.2-4.3 16.2-3.6 14.2 1 20.7 4.3 25 13a46 46 0 0 0 17.3 17.5c11.7 6 13 7.8 26.8 38.8 6.5 14.6 8 15.8 8.2 6.4.4-12.7 5.4-14.5 14.6-5.3 4.6 4.6 7.5 4.6 12 .2 4.4-4.5 2.9-8.4-6.4-16.1a53.7 53.7 0 0 0-16-10.4c-2.1 0-3.8-4.2-3.8-9 0-7.6.8-7.8 5-1.3 3.1 4.8 5 5.3 5 1.4 0-3.4-4.5-8.6-10-11.6-11.8-6.3-14-16.3-2.5-12 5.5 2.2 6.8.7 4.4-5.5-1.8-4.6-6.2-7.3-9.7-6-8.1 3.1-40.5-20.3-40.6-29.4 0-3.6-3.3-10.6-7.3-15.4-8.4-10-11-28.2-4-28.2 6.5 0 35.9 20.8 40.9 29 2.2 3.6 8.5 6.6 14 6.6 5.6 0 11.5 3.6 13.2 8 2 5.3 6.9 7 14.5 5 10-2.4 25 6.5 21.5 13-.7 1.3 2.7-2 7.6-7.3 8.6-9.3 9-8.3 9 26 0 23.6-2.2 36.7-6.4 38.7-4.8 2.2-4.9 3.6-.4 5.8 4.4 2 6.1 44.3 6.5 157.4l.5 154.7H999c-184 0-188-.2-195.2-10.5-4-5.8-6.1-15.1-4.6-20.8 2.3-8.8.5-10-12-8.9-8.1.8-19.6-.3-25.7-2.3-12.1-4-20.2-18.4-10.4-18.7 6-.1-41-24.3-48.5-24.9-9.6-.7-2.3 9.3 10.8 14.7 8 3.3 17.1 11.6 20.2 18.4 3.1 6.8 8 12.3 10.8 12.3 2.9 0 5.2 4.3 5.2 9.6a24 24 0 0 0 9 16.3c4.8 3.8 7.1 4.8 5 2.4-2-2.5-1.2-7.5 1.8-11.2 6.9-8.2 22-1.4 30 13.5 5.3 9.9 3.4 10-105.3 10-60.8 0-113.6-2-117.2-4.2zm247.8-26.2c0-2.8-2.4-5-5.3-5-3 0-4 2.2-2.3 5 1.8 2.8 4.2 5 5.4 5 1.2 0 2.2-2.2 2.2-5zm122-50c0-6.6-6-11-11-8-5.2 3.3-.7 12.3 6.2 12.3 2.6 0 4.8-2 4.8-4.2zm99-5.9a66 66 0 0 0-22.8-4.1c-11.6.2-11.3.6 2.5 4.1 21.2 5.4 32.9 5.4 20.3 0zm-40.6-5c-1.7-2.8-5.9-5.1-9.2-5-3.6 0-3 2 1.6 5 9.7 6.3 11.5 6.3 7.6 0zM605.4 1790c-5.2-5.1-9.4 2.6-5.2 9.5 3.2 5.2 4.4 5.2 6.1 0 1.2-3.5.8-7.8-1-9.5zm121.7-63.3c-10-14.4-10.1-19.9-.3-16 10.4 3.9 9.6-3.2-1.3-11.5-19-14.4-21.5-7.2-7.7 21.1 7.7 15.5 14.7 25.9 15.6 23 1-2.9-1.9-10.3-6.3-16.6zm383.2 8.9c0-1.2-2.3-3.6-5-5.4-2.9-1.7-5.1-.7-5.1 2.3s2.2 5.3 5 5.3 5.1-1 5.1-2.2zm-16.3-36c-4.4-4.5-29.3-6.3-26.6-2 1.6 2.7 5 3.6 7.3 2.1 2.5-1.4 5.9-.3 7.7 2.6a6 6 0 0 0 8.3 2.1c2.8-1.7 4.3-4 3.3-4.9zm82.4-30c0-1.3-2.3-3.7-5.1-5.4-2.8-1.7-5.1-.7-5.1 2.2 0 3 2.3 5.4 5 5.4 2.9 0 5.1-1 5.1-2.2zm-110-26c-1.7-4.3-4.2-6.7-5.5-5.4-1.3 1.4-.9 4.9 1 7.9 5 8 7.9 6.5 4.4-2.5zm87.3-32.4c-1.8-3-5.8-5.4-8.8-5.4-3.3 0-3 2.9 1 7.7 7 8.4 13.3 6.5 7.8-2.3zm-58-59.7c-4.4-7.6-5.4-7.8-5.6-1.2-.1 8.6 5.2 16.3 8.8 12.7 1.2-1.2-.2-6.4-3.2-11.5zm-1192.2 377c-8.5-6.4-8.7-7.5-1.4-7.6 12-.2 24.6 5.2 24.6 10.5 0 7-12.2 5.4-23.2-2.9zm-9.8-23c-1.8-2.8.2-3.7 4.8-2 8.8 3.4 10.4 7 3 7-2.6 0-6.1-2.2-7.8-5zm103.4-8.9c-6.3-8-6.1-8.2 2-2 4.8 4 8.8 8 8.8 9 0 4.1-4.1 1.5-10.8-7zm412.2-1.3a5 5 0 0 1 5-5 5 5 0 0 1 5.1 5 5 5 0 0 1-5 5.1 5 5 0 0 1-5.1-5zm24.1 1.7c3.5-1.4 9.2-1.4 12.7 0s.6 2.6-6.4 2.6-9.8-1.2-6.3-2.6zm-26-27.5c-25.8-26-12.3-25.7 17.1.4 17.7 15.7 20.6 20.2 12.7 20-5.6-.3-19-9.5-29.8-20.4zm-380.5-2.6c-2-2-3.7-7.3-3.7-11.5 0-5.8 1.5-6.3 5.6-2.2 3.1 3.1 4.8 8.3 3.7 11.5-1 3.2-3.6 4.2-5.6 2.2zm-47.2-9.5c-5.4-4.1-7.3-7.5-4.1-7.6 3.1-.1 8.6 3.2 12 7.4 8 9.7 4.8 9.8-7.9.2zm350.8-7.8c-1.7-2.8-.8-5 2-5s6.5 2.2 8.2 5c1.7 2.8.8 5-2 5-2.7 0-6.4-2.2-8.2-5zm734-10.2a5 5 0 0 1 5.2-5 5 5 0 0 1 5 5 5 5 0 0 1-5 5.1 5 5 0 0 1-5.1-5zm-182.8-12.7c0-4.1 2.3-7.6 5-7.6 2.9 0 5.2 3.5 5.2 7.6 0 4.2-2.3 7.7-5.1 7.7s-5-3.5-5-7.7zm-937.3-6.6c-8.3-5-26-13.1-39.2-18-13.2-5-35.5-19.7-49.5-32.6-20.8-19-25.6-26.5-25.6-40.2 0-20.9 8.6-21.8 28.5-3 8.1 7.6 17.5 13.2 20.8 12.5 3.4-.7 8.6 3.3 11.6 9 3 5.6 7.1 9.7 9.2 9 2-.6 4 .8 4.6 3.2.6 2.3 8.6 8 17.8 12.7a65.2 65.2 0 0 1 25 24.8c4.5 9 11 19.9 14.6 24.1 8.5 10.3.9 9.7-17.8-1.5zm388.7-3.5c-9.2-9.8-10.1-12.7-4-12.7 4.3 0 11.6 5.7 16.2 12.7 4.6 7 6.4 12.7 4 12.7-2.4 0-9.7-5.7-16.2-12.7zm790.3-.1c-5.4-4.1-8.4-8.9-6.6-10.7 5.4-5.3 19 2.3 19 10.6 0 9.4-.1 9.4-12.4 0zm-1001.2-12.6c-1.7-2.8-.7-5 2.3-5s5.4 2.2 5.4 5-1 5-2.3 5c-1.2 0-3.6-2.2-5.4-5zm-132-10.2c-1.8-2.8-.9-5 2-5 2.7 0 6.4 2.2 8.1 5 1.8 2.8.9 5.1-2 5.1-2.7 0-6.4-2.3-8.1-5zm529.6-5.6c-11-6.2-11.6-17.7-1.1-21.7 8.4-3.2 14.4 6.7 11.6 19.1-1.2 5.7-3.9 6.4-10.5 2.6zm514.3-4.5c-6.6-4.3-6.4-5 1-5 4.7 0 10 2.2 11.7 5 4 6.4-2.7 6.4-12.7 0zm44.5-3.5c-5-1.3-9-4.6-9-7.2 0-3 4.1-2.8 10.2.5 5.6 3 10.2 6.5 10.2 7.8 0 1.3-.6 2.1-1.3 1.8-.7-.3-5.3-1.7-10.1-3zm-1149.4-19.2c-8.4-7-18.8-12.6-23.3-12.7-4.4-.1-11-5.7-14.6-12.5-3.6-6.7-10.8-13.4-16-14.7-6-1.6-9.6-7-9.5-14.4 0-8.2 1.4-9.9 4.2-5.3 2.3 3.6 12 10.5 21.6 15.4 9.5 4.8 16.8 11.3 16.2 14.4-.6 3 8 11.9 19 19.6 11.1 7.6 20.2 15.9 20.2 18.3 0 6.2-.7 5.8-17.8-8.1zm196.9 1c-18.7-13-21.3-19.3-6.4-15.4 7 1.9 10.2.2 10.2-5.5 0-4.5-2.3-8.2-5.1-8.2a5 5 0 0 1-5-5.1c0-7.5 20.1-6.2 21 1.3.3 3.4.9 12 1.2 19a47 47 0 0 0 4.7 19c6.3 9.8-2.5 7.6-20.6-5zm727.5-9.2c-5.5-8.8.7-10.7 7.7-2.3 4 4.9 4.4 7.8 1 7.8-3 0-6.9-2.5-8.7-5.5zm-399.3-8.5c-6.3-8-6.1-8.2 2-2 4.8 4 8.8 8 8.8 9 0 4.1-4.1 1.5-10.8-7zm572.2 3.8c-1.7-2.8-.7-5 2.2-5 3 0 5.4 2.2 5.4 5s-1 5-2.2 5c-1.3 0-3.7-2.2-5.4-5zm-55-12.9-14.2-12.5 13.3-5c7.4-2.9 14.6-5.2 16-5.2 3.1 0 32.3 30.5 32.3 33.6 0 1.1-7.5 2-16.5 1.8-10.2 0-22-5-30.8-12.7zm-491.1 2.4c0-3 2.3-4 5-2.2 2.9 1.7 5.1 4.2 5.1 5.4 0 1.2-2.2 2.2-5 2.2s-5.1-2.4-5.1-5.4zM84 1732.8a5 5 0 0 1 5.1-5.1 5 5 0 0 1 5.1 5 5 5 0 0 1-5 5.1 5 5 0 0 1-5.2-5zm965.3-2.6c-5.2-6.2-4.9-7.6 1.9-7.6 4.5 0 8.2 3.4 8.2 7.6 0 4.2-.9 7.6-2 7.6-1 0-4.7-3.4-8.1-7.6zm-1120.2-2.5c-1.7-2.8-.8-5 2-5 2.7 0 6.4 2.2 8.2 5 1.7 2.8.8 5-2 5s-6.5-2.2-8.2-5zm1089.7-10.2a5 5 0 0 1 5-5 5 5 0 0 1 5.1 5 5 5 0 0 1-5 5.1 5 5 0 0 1-5.1-5zM954 1707c-13.1-5-15-13.7-3.8-18 10.2-4 9.8-17-.6-17-5 0-7 2.7-5.3 7.4 4.8 12.3-27.6 24.4-34.7 13-3-4.9 4-7.6 14.5-5.6 2.5.4 3.3-2.4 1.8-6.3-3.9-10 19.9-34.4 29.7-30.6 4.3 1.6 6.7 6.1 5.2 10-1.5 3.8.4 7 4.2 7 9.1 0 16.8 10 19 24.7 2 14.4-12.5 21.9-30 15.4zm24.1-14.8c0-2.8-4-5-8.9-5-7.6 0-7.7.8-1.2 5 9.6 6.2 10.1 6.2 10.1 0zm-1146.3 7.4c-4.7-12.3.8-13.5 11-2.3 8.3 9.3 8.4 10.2.6 10.2-4.7 0-10-3.6-11.6-7.9zm1179.8-1c-6-6-2.7-11.5 7.2-11.5 5.6 0 10.1 2 10.1 4.6 0 5.7-13.2 11-17.3 7zM-108.9 1687c0-2.7 2.2-5 4.8-5 2.6 0 6.2 2.3 8 5 1.6 2.8-.5 5.1-4.9 5.1-4.3 0-7.9-2.3-7.9-5zm-17-7.3c-1.9-5-.4-6.4 4.6-4.6 4 1.6 7.3 5 7.3 7.4 0 7.3-8.8 5.2-11.9-2.8zm-20.8-6.4c-2.7-7.2-2.1-7.8 2.9-2.8 3.5 3.4 5 7.5 3.4 9-1.5 1.6-4.4-1.2-6.3-6.2zm1053.8-1.8c0-5.7 2.3-9 5-7.3 2.9 1.7 5.2 6.4 5.2 10.4s-2.3 7.4-5.1 7.4-5-4.7-5-10.5zm91.6-9.7c-6.6-4.1-19.2-24.5-48-77.6-14.5-26.6-13.5-29.2 5.9-14 9.4 7.5 14.7 8.8 19.4 4.8 7.6-6.3 27.6 8 27.6 19.7 0 3.9 5.7 13.9 12.7 22.2 15.8 18.8 16.7 29.6 2 25.7-9-2.3-10.2-1-7.4 7.7 3.8 12.1-2 17.7-12.2 11.5zm-76.2-25.3c-7.4-13.7-2.7-20.2 7.4-10.1 4.6 4.6 5.7 10 3 14.3-3.5 5.6-5.6 4.7-10.4-4.2zm-37.3-8.6c-4-4 .6-12 7-12 2.6 0 4.7 3.5 4.7 7.6 0 7.9-6 10.1-11.7 4.4zM-119 1613.4c-18-13.4-14.4-16.8 7.4-6.8 7.1 3.2 13 9 13 12.7 0 9-.3 8.9-20.4-6zm1064.3 2.5c-1.7-2.8-.7-5 2.3-5s5.3 2.2 5.3 5-1 5.1-2.2 5.1c-1.2 0-3.7-2.3-5.4-5zm-60.7-14.8c-1.5-2.5-1.4-8.4.4-13 2.6-6.9 4.2-7.2 7.6-1.8 2.4 3.7 4.3 9.6 4.4 13.1 0 7.4-8.2 8.5-12.4 1.7zm50.2-3a35.8 35.8 0 0 0-9.4-13.8c-3.8-2.7-3.8-3.8.2-3.9 8.4 0 18.5 13.8 15.7 21.4-1.6 4.3-3.8 3-6.5-3.7zm-1096.6-15.3c-5.3-4-8.6-8.6-7.1-10 1.4-1.5 6.7 2 11.8 7.5 10.8 12 9 12.9-4.7 2.5zm1176.9-1.3c-7.6-1.2-14.2-8.2-19.1-20-4.2-10-6.8-19.1-5.8-20.1s9.1 5.4 17.9 14.4c8.8 9 16 14 16 11.2 0-2.8-7-11.6-15.3-19.7-8.4-8-15.2-18.1-15.3-22.5 0-12.8-24.3-39.6-29.2-32.2-3 4.5-10.1 2.1-26.8-9-21.7-14.3-17.4-22 5.5-9.8 7.8 4.2 9.1 3.7 6.7-2.5-1.6-4.3-1.6-7.8 0-7.8 5.3 0 59.5 57.2 56.8 60-1.5 1.4 1.9 5.8 7.4 9.7 5.6 4 10.1 9.4 10.1 12.3 0 2.8 3.5 8.5 7.7 12.7 15.3 15.4 7 27.1-16.6 23.3zm-107.6-22.1a55.8 55.8 0 0 1-10.5-19.6c0-9.4 17.1 2.9 26.5 19 11.8 20-1.2 20.6-16 .6zm-1021.4 6.2c-14.3-8.1-32-12-28.4-6.3 2.4 3.8-1.1 3.8-12 0-13.7-4.7-15.5-7.6-15.5-25.3v-20l14 9.1c7.7 5 20 14.2 27.1 20.6a510 510 0 0 0 23 18.8c10.3 8 4.4 10.2-8.2 3zm25.4-.3c0-2.7 3.5-3.6 7.6-2 4.2 1.6 7.7 3.8 7.7 5 0 1-3.5 2-7.7 2-4.1 0-7.6-2.3-7.6-5zm-17.3-17c-5.3-3.3-14-10-19-15-5.2-4.8-12.8-8.8-17-8.8-4.2 0-7.6-3.2-7.6-7 0-4-4.6-8.3-10.2-9.7-5.6-1.5-10.2-5.2-10.2-8.2 0-7.5 5.5-7 27.2 2 10 4.2 25.2 7.6 33.6 7.6 10.4 0 15.4 2.6 15.4 7.7 0 4.2-2.4 7.6-5.3 7.6-3 0-4 2.3-2.3 5 1.8 2.9 7.2 5.1 12 5.1 5 0 13.4 3.4 18.8 7.4 9.6 7.2 9.6 7.3-1 4.6-6-1.5-12.4-.2-14.3 2.8-4.2 6.8-7.7 6.6-20.1-1zm89.7 3.3c-7-2.8-8.8-17-2.3-17 5.3 0 16.3 11 16.3 16.3 0 4.4-4.2 4.7-14 .7zm975.4-16.7c-17-20.4-19.8-28.1-12.2-32.8 5.6-3.5 37.2 19.8 32.8 24.2-1.8 1.8-7.8-.7-13.3-5.6-9.9-8.8-9.9-8.7-1.5 7.6 4.6 9 10.6 16.5 13.4 16.5a5 5 0 0 1 5 5c0 9.7-7.7 5-24.2-14.9zm164 5.2c-5-8.3 6-10.8 12.6-2.9 5 6.2 4.7 7.6-1.7 7.6-4.4 0-9.3-2.1-10.9-4.7zm-1193.7-13.2c-5.4-4.1-8-7.5-5.8-7.5s-3-6.6-11.7-14.7-15.8-17-15.8-19.8c0-7.5 21.4-11.5 28.8-5.4 4.7 3.9 8.7 3.1 14.6-2.7 7.3-7.4 9.4-7.4 24.2 0 15.2 7.7 44.1 36 44.1 43.3 0 5-15.5 9.9-20.7 6.6-5.6-3.4-6.3-13-.8-11.1 2 .7 4.3-1 5-3.8.7-2.8-2.1-4.9-6.3-4.7-33.3 1.9-33.7 2-30.6 11.9 2.5 8 1.1 9.2-8.1 6.8-7.7-2-10-1-7.5 3 4.7 7.6 2.7 7.2-9.4-2zm1116.3-25.1c-12.7-11.2-13.1-12.6-4-12.6 5.5 0 14.2 5.7 19.2 12.6 11.8 16.1 3.2 16.1-15.2 0zm-1167.6-3c-1.8-3-2.3-6.5-1-7.8 3.5-3.5 19 3.5 19 8.6 0 6.4-14 5.7-18-.9zm-35.3-14.8c-4-6.7 7.6-12.3 13.4-6.5 3.3 3.3 2.3 6-2.8 8-4.3 1.6-9 1-10.6-1.5zm1331.6-94.2c-1.8-4.6 0-7.6 4.5-7.6 8.3 0 10.1 8 3 12.4-2.5 1.6-5.9-.6-7.5-4.8zM53.7 1336.5c0-2.8 3.4-5 7.6-5 4.2 0 7.6 2.2 7.6 5s-3.4 5.1-7.6 5.1c-4.2 0-7.6-2.3-7.6-5zM1095 1047c-4.2-2.7-5.4-5-2.6-5 2.8 0 8.5 2.3 12.7 5 4.2 2.7 5.4 4.9 2.6 4.9-2.8 0-8.5-2.2-12.7-5zm-917-15.4c-1.8-2.8-5.2-3.9-7.6-2.4-2.4 1.5-5.7.5-7.3-2.1-5.6-9 7.9-11.7 17-3.5 4.9 4.5 10.2 6.8 11.8 5.3 1.6-1.6 4.4-.5 6.2 2.5 2 3.1-.9 5.4-6.8 5.4-5.6 0-11.6-2.3-13.3-5.2zm39-.2c1.3-3.7 5.3-7.7 9-8.9 3.8-1.3 5.7.7 4.4 4.5a15.9 15.9 0 0 1-8.9 8.9c-3.8 1.2-5.7-.7-4.4-4.5zm-310.8-6c-9.7-2.7-30.9-3.7-47-2.3-21.2 1.9-29.2.9-29.2-3.7 0-9.8 6.1-13.5 12.9-7.9 4.2 3.5 8 2.7 12.5-2.6 7-8.5 17.7-10.6 12.7-2.6-4.6 7.5 29.8 6.3 37.3-1.2 4.6-4.6 7.3-4.7 10-.6 2 3.1 13.5 7.3 25.6 9.4 12.2 2 20.2 5.4 17.8 7.5-7.8 7-34.5 9-52.6 4zm336.6 2.7c-3.5-1.3-5.2-4.3-3.7-6.8 1.6-2.5 8.4-2.3 15.6.5 16.2 6.1 29 6.3 25.3.3-4.4-7.1 12-11.2 22.5-5.6 5.2 2.8 14.2 5 20 5 5.7 0 10.5 1.9 10.5 4.2 0 4.2-79.1 6.3-90.2 2.4zm-102.9-6.5c-6.5-4.2-6.3-5 1.3-5 4.9 0 8.9 2.2 8.9 5 0 6.2-.6 6.2-10.2 0zm-66-6c0-2.1 4.6-6.3 10.1-9.3 6.6-3.5 10.2-3.6 10.2-.3 0 2.8 4 3.6 8.9 1.8 7.7-3 8-2.3 2 5-6.7 8.3-31.2 10.4-31.2 2.8zm-96.5-4.2c0-2.8 3.4-5 7.6-5 4.2 0 7.6 2.2 7.6 5s-3.4 5-7.6 5c-4.2 0-7.6-2.2-7.6-5zM7 1013c3.7-1.5 8-1.3 9.7.4 1.7 1.7-1.3 2.9-6.6 2.7-6-.3-7.2-1.5-3.1-3z" clip-path="url(#g)" transform="translate(169.8 75.7)"/><path style="fill:#77545e;stroke-width:5.08" d="M-169.9 1943.6c0-12.8 7-17 12.7-7.6 1.8 2.8.5 5-2.8 5-4.5 0-4.4 2 .3 7.7 5.2 6.2 4.8 7.6-2 7.6-5.3 0-8.2-4.4-8.2-12.7zm33-2.6c-14.4-15-14.4-15.2-2.8-15.2 13.1 0 46 18.5 46 25.8 0 11.2-29.1 4-43.1-10.6zm752.3 5.5c-10.8-11.9-8.7-27.5 3.9-30 11.8-2.3 27 11.5 30 27.4 2 10.7.5 12.4-11.3 12.4-7.6 0-17.8-4.4-22.6-9.8zm47.9 2.2c0-4.2-2.7-7.7-6-7.7-3.2 0-4.4-1.5-2.5-3.3 1.8-1.9 7.3.1 12.2 4.4a67 67 0 0 0 16.6 10.6c4.3 1.6 1.6 3-6.4 3.2-9.2.2-14-2.2-14-7.2zm59.6-7.8c-27.4-14-43.3-19.8-31.7-11.2 2.8 2 8.3 7.9 12.3 13 6.7 8.5 6.2 8.9-7.6 5.6-8.2-1.9-17-5.5-19.6-7.9-7.2-6.5-7.9-19.7-1.2-19.8 3.4 0 2.6-2.2-1.7-5-4.2-2.6-11.9-3.5-17.1-1.8-6.7 2-8.4 1-5.7-3.2 2.7-4.5.7-5.2-7.2-2.7-8.4 2.6-15.8-.9-31-14.6-18.8-17-19.4-18.4-10-23.4 7.4-4 13.8-3.4 25 2.4a68.9 68.9 0 0 0 23 7.8c12.1 0 9.2-9.7-5-16.2-7-3.2-12.2-8.3-11.6-11.3 1.7-9.5-6.5-28.4-12.4-28.4-3 0-4.2-1.3-2.6-3 1.6-1.6 9 1 16.2 5.8 15 9.8 25.7 5.1 11.8-5-5-3.6-9-8.9-9-11.8 0-2.9-3.7-6.7-8.3-8.4-9.5-3.7-5.8-9.4 7.3-11.4 5.3-.8 12.3 4.8 17.7 14.3 7.4 13 10.2 14.5 16.5 9.2 4.8-3.9 6-8.4 3.1-12-2.5-3-2.9-10.1-.9-15.6 2.2-5.8.5-15.4-4-23.2-5-8.8-6.2-16.7-3.4-23.1 6.2-14 7-27.5 2.3-43.8-5.7-19.7 2.2-17.8 14.8 3.5 5.8 9.8 13.4 17.8 17 17.9 3.6 0 11.7 7.4 18 16.5 18.4 26.6 48.5 59 41.1 44.4-7-14-9.5-51.5-3.2-47.6 2.2 1.4 4 7 4 12.6s2.3 8.8 5 7c2.9-1.7 3.8-8.5 2.2-15.1-1.7-6.7-1.5-17 .5-23.2 3.2-10 4.5-9 13.1 10.3 5.3 11.9 9.7 24.7 9.7 28.6 0 4 6.8 14.3 15 23a93.4 93.4 0 0 1 18.2 25.4c1.7 5.3 5.2 8.3 7.8 6.7 2.6-1.6 4.7.7 4.7 5.2 0 6.5-2 7-10.2 2.6-10.9-5.8-13.7-.5-4.6 8.6 10 10-4 12.5-23.7 4.3-22.7-9.5-20.7-9.5-24.6.6-4 10.3 10.5 27.2 23.2 27.2 5.2 0 9.4 2.3 9.4 5 0 2.9 3.6 5.1 8 5.1 4.3 0 6.4 2.3 4.7 5.1-1.7 2.8 1.2 5.1 6.5 5.1 15.9 0 17 6.2 2.6 13.7-9.7 5-17.3 5.7-26.6 2.2-26-9.6-31.3-10.7-28.2-5.7 4.5 7.2 2.4 6.7-41-10-21.5-8.3-42.3-19.7-46.3-25.4-4-5.7-11.8-10.4-17.3-10.4-9.6 0-9.6.6 1.6 16.6 6.3 9 13.3 17.2 15.5 18.2a50 50 0 0 1 10.1 7.6c3.5 3.3 15.2 13.6 26.2 23 18 15.5 42 51.6 34.1 51.4-1.8 0-16.4-7-32.5-15.3zm39.4-79.9c-2-4.9-5-13.4-6.4-19-1.6-5.6-7-15.6-12.2-22.3a44 44 0 0 1-9.3-19c0-3.9-3-7-6.8-7-12.3 0-13.3 6.3-3.2 19.2 5.5 7 10 16.4 10 21 0 4.5 4.6 11 10.1 14.5 5.6 3.5 10.2 9.8 10.2 14 0 4.1 2.5 7.5 5.6 7.5 3.4 0 4.2-3.5 2-8.9zm15 89.9c-1.8-3-2-6.7-.6-8.2 3.7-3.6 13.6 2.8 13.6 8.8 0 6.5-8.8 6-13-.6zm74 .4c0-6.3 23-12.3 30.1-7.9 10.9 6.7 5 12.9-12.4 12.9-9.8 0-17.8-2.3-17.8-5zm92.8-2.2c7.7-5.8 8-8 2.2-13.8-3.8-3.8-8.2-12.1-9.9-18.4-2.5-9.9-1-11.4 11.5-11.4 8 0 16.1 2.6 18.1 5.9 2.5 4 1.3 4.4-3.5 1.6-4-2.3-.7 2.4 7.3 10.5 7.9 8 16.5 18.8 19.2 23.7 4.4 8.2 2 9-24.6 9-25.8-.2-28.3-1-20.3-7.1zm76.2-5c-5.8-6.6-12-17-14-22.8-2.7-8.7-1.2-10.7 7.9-10.7 11 0 10.9-.4-2.5-12.7-7.5-7-18.1-12.7-23.6-12.7-5.4 0-9.9-3.5-9.9-7.7 0-4.7 4.8-7.6 12.7-7.6 8 0 12.7 2.9 12.7 7.6 0 8.7 5.9 10 13 2.8 3-3 7.7-3 12.5 0 6.2 3.9 5.8 4.8-2.6 5.5-5.6.4 2.4 2.4 17.8 4.4 15.7 2 30.6 1.5 34-1.2 4-3 12-2 22.4 3.3a78 78 0 0 0 22.7 8.1c3.5 0 7.5 2.9 9 6.4 1.4 3.4 2.7 1.5 3-4.3.3-11.4 20.6-33.8 20.6-22.9 0 3.4-2.3 10.7-5.2 16-5.5 10.3-.4 13.4 8.1 5 2.7-2.7 10-3.6 16.3-2 10 2.6 11.3 6.3 11.3 30.3v27.4h-50.4c-35.6 0-51-1.9-52.7-6.4-1.8-5-3.6-5-9 0-11.7 11-42.3 7.8-54-5.8zm72.4-2.7c-1.8-3-5.7-5.4-8.7-5.4-3.4 0-3 2.9 1 7.7 7 8.4 13.2 6.5 7.7-2.3zm-274.5.8-15.2-8.7 14.7-1.7c13.3-1.6 23 5 23.3 15.6.1 5.7-6 4.3-22.8-5.2zm-974-25.1c-12.4-1.9-13.9-4-12.8-19.6 1.5-20.8 5-21.7 16.3-4.3 8.4 12.7 8.3 12.9-2 7.4-5.7-3.1-10.5-3.7-10.5-1.3 0 2.4 7.5 8 16.5 12.6 17 8.4 16.4 8.8-7.6 5.2zm920-10.3c-6.3-8.1-6.1-8.3 2-2 4.8 3.9 8.8 7.9 8.8 9 0 4.1-4.1 1.4-10.8-7zm37.5 3.2c-15.2-4.4-23.2-14.7-11.4-14.7 2.8 0 5 2 5 4.6 0 2.5 7.2 4.2 16 3.8 8.8-.4 17 2 18.2 5.6 2.6 7.3-4.3 7.4-27.8.7zm-956.9-34.7c-6.6-5.6-9.7-10.2-6.7-10.3 7.8-.2 25.6 13.7 22 17.3-1.7 1.7-8.6-1.4-15.3-7zm1280.8-5.4c0-2.8 4.5-5 10.1-5s10.2 2.2 10.2 5-4.6 5.1-10.2 5.1-10.2-2.3-10.2-5zm-1239.4-15c-4.1-2.6-5.8-6.4-3.7-8.5 2-2.1 7.6 0 12.4 4.8 9.1 9.2 3.6 11.5-8.7 3.7zm721.6 0c-5.4-3.3-5.4-4.6.3-6.9 5.5-2.2 5-4.3-2-10-9.8-8-11.5-13.8-4-13.8 6.8 0 21.5 29.3 16.5 32.4-2.3 1.4-7 .6-10.8-1.6zm369.2.7c-20.4-2.3-17.1-10.2 5-12 16.4-1.4 47 7.7 47 13.9 0 2-26 1.1-52-1.9zm-1140.5-24.9c-3.5-1.2-6.4-6-6.4-10.5 0-7.6.8-7.6 8.6.3 9.2 9.1 8.2 14-2.2 10.2zm1124.6-2.7c-1-3.5-4.1-14-7.2-23.2-4.2-12.7-4-16.3.5-14.8 3.3 1 6.8 6.9 7.7 13 1.1 7.7 7.4 12.6 21.6 16.8 11 3.3 20 8 20 10.3 0 7-40.8 5-42.6-2zm-1087.8-8.5c-8.4-5-16.5-7.1-18-4.8-4.9 7.4-25.2-11-25-22.5.2-10.6.7-10.5 10.6 2.8 5.8 7.7 12.4 12.8 14.7 11.4 2.4-1.5 5.8-.4 7.5 2.5 1.8 2.8 7.4 5.1 12.4 5.1 5.1 0 12.1 3.5 15.6 7.7 8.3 10 1.2 9-17.8-2.2zm56-15.6c-1.7-2.6-6.3-3.4-10.4-1.8-4.1 1.6-7.5.5-7.5-2.3 0-2.9-1.3-9.4-3-14.5-2.8-9-2.6-9 4.6-.3 4 5 9.4 8.7 11.8 8.3 10.4-1.9 22.2.8 22.2 5 0 6.5-14.4 11-17.8 5.6zm1247-10.5c0-3 2.3-4 5.1-2.2 2.8 1.7 5.1 4.1 5.1 5.4 0 1.2-2.3 2.2-5 2.2-2.9 0-5.2-2.4-5.2-5.4zm-567.2-6.5a21.2 21.2 0 0 0-11.8-9.3c-7.7-1.7-27.7-29-24-32.7 1-1 4.9 3.6 8.5 10.5 8.8 16.4 20.5 20.8 20.5 7.7 0-17.7 9-10.6 11.4 9 2.7 21.8 1.5 25.6-4.6 14.8zm-753.6-20.3c-13.9-13.4-23.5-27.4-24.5-35.9-1.5-12.8-.8-13.5 8.9-8.3a52 52 0 0 1 17.7 22.6 58 58 0 0 0 12.6 20.4c7.5 4.6 17.3 23.3 12.2 23.1-2.2 0-14.3-10-26.9-22zm-17.7 6.8c-5-5.6-6.9-10.2-4-10.2 6.4 0 19 14.6 15.7 18-1.4 1.3-6.6-2.2-11.7-7.8zm1110 2.5c0-5.7 3.5-7.8 11.4-6.7 6.3 1 11.4 4 11.4 6.7 0 2.8-5.1 5.9-11.4 6.7-7.9 1.2-11.5-1-11.5-6.7zm164.3-15.4c-1.7-4.3-2-9-.5-10.4 3.5-3.5 29.2 8.8 29.2 14 0 7.6-25.6 4.4-28.7-3.6zM556.6 1748c-3-5.6-3.4-10.2-.8-10.2 2.6 0 5.9 4.6 7.3 10.2 1.5 5.6 1.9 10.2.8 10.2-1 0-4.3-4.6-7.3-10.2zm614.4-3.2c-7-8.4-16.2-14-21.3-13-5.5 1-9-1.4-9-6.3 0-9.5 2.4-9.8 16.6-2.2 17.1 9.1 30.5 23.4 28.3 30.1-1.3 3.7-7 .3-14.6-8.6zm-81 3.2c-6.1-4-5.3-5 4.1-5 6.5 0 10.3 2.2 8.6 5-3.8 6.1-3.3 6.1-12.7 0zm-108.5-17.8c-1.6-4.2-1-7.6 1.3-7.6 2.4 0 7.2 3.4 10.7 7.6 5.1 6.2 4.9 7.6-1.4 7.6-4.2 0-9-3.4-10.6-7.6zm142.8 3.8c-10.4-2.3-11.8-9.5-2.6-13 4.3-1.6 2.6-5.2-5-10.9-6.3-4.6-11.5-12.5-11.5-17.6 0-5-4.4-14.8-9.7-21.6-9.8-12.4-7-29.2 3.6-22.6 5 3 38.4 85 35.5 86.8-.8.5-5.4 0-10.3-1.1zm52-11c0-2.7-4-6.1-9.1-7.7-6.6-2-9.5-8.8-10.4-23.6l-1.2-20.7 15.4 9.1c13 7.6 15.5 12.3 15.5 28.4 0 10.5-2.3 19.2-5 19.2-2.9 0-5.1-2.1-5.1-4.8zm-42.3-19c-4.3-4.3-4.4-22-.1-22 4 0 16.7 16.2 16.9 21.6.2 4.7-12.2 5-16.8.4zm-147.3-76.2a14 14 0 0 1-3.4-8.7c0-3.1 2.4-2.8 6 .8 3.3 3.3 4.9 7.2 3.4 8.6-1.4 1.5-4.1 1.1-6-.7zm14.4-6.8c-4-6.4 2.7-6.4 12.7 0 6.6 4.2 6.4 5-1 5-4.7 0-10-2.2-11.7-5zm172.3-7.3c-5.3-3.9-8-8.9-5.8-11 2.1-2.2 7.7-.1 12.4 4.5 11 11 6.1 15.8-6.6 6.5zm-32.2-17.7a35 35 0 0 0-8.8-16.5c-4.7-5.2-7.2-10.7-5.5-12.3 4.5-4.6 20.3 22.2 17.3 29.5-2 4.9-2.7 4.7-3-.7zm-1158.7-51.5c0-3 2.3-4 5.1-2.2 2.8 1.7 5.1 4.1 5.1 5.3 0 1.3-2.3 2.3-5 2.3-2.9 0-5.2-2.4-5.2-5.4zm1092.3 0c0-3 2.2-4 5-2.2 2.8 1.7 5.1 4.1 5.1 5.3 0 1.3-2.3 2.3-5 2.3-2.9 0-5.2-2.4-5.2-5.4zm-1235.1-13.7c-6.4-8-6.2-8.2 1.9-1.9 4.9 3.9 8.9 7.9 8.9 9 0 4-4.2 1.4-10.8-7zm28.6-16.4c-1.8-2.9.2-3.7 4.8-2 8.8 3.4 10.4 7 3 7-2.6 0-6.1-2.3-7.8-5zm67.4-1.5c-4.3-3.4-9-11.2-10.4-17.4-2.5-10.6-2-10.8 9.1-3.5 13 8.5 19.5 20.6 13.1 24.5-2.2 1.4-7.6-.2-11.8-3.6zm-24.3-13.8a5 5 0 0 1 5.1-5 5 5 0 0 1 5 5 5 5 0 0 1-5 5 5 5 0 0 1-5-5zm12.7-477.5c-4-6.5 2.8-6.5 12.7 0 6.6 4.2 6.5 4.9-1 5-4.7 0-10-2.2-11.7-5zm-94-5c0-2.7 3.5-3.6 7.7-2 9.7 3.8 9.7 7 0 7-4.2 0-7.7-2.2-7.7-5z" clip-path="url(#h)" transform="translate(169.8 75.7)"/></g><g style="display:inline"><path style="fill:url(#i);fill-opacity:1;stroke-width:5.08" d="M-169.9 940.3v-1016h1356.4v2032H-169.9Z" clip-path="url(#j)" transform="translate(169.8 75.7)"/><path style="display:inline;fill:url(#k);fill-opacity:1;stroke-width:5.08" d="M-169.9 940.3v-1016h1356.4v2032H-169.9Z" clip-path="url(#l)" transform="translate(174 75.7)"/></g></svg>